<svg width="300" height="300" viewBox="0 0 300 300" fill="none" xmlns="http://www.w3.org/2000/svg">
<rect width="300" height="300" rx="3" fill="url(#paint0_linear)"/>
<path d="M46.384 81.052V85.84H38.86V106H33.244V85.84H25.72V81.052H46.384ZM64.6383 96.496C64.6383 97.984 64.4223 99.352 63.9903 100.6C63.5583 101.824 62.9343 102.88 62.1183 103.768C61.3023 104.632 60.3183 105.304 59.1663 105.784C58.0383 106.264 56.7663 106.504 55.3503 106.504C53.9583 106.504 52.6863 106.264 51.5343 105.784C50.4063 105.304 49.4343 104.632 48.6183 103.768C47.8023 102.88 47.1663 101.824 46.7103 100.6C46.2543 99.352 46.0263 97.984 46.0263 96.496C46.0263 95.008 46.2543 93.652 46.7103 92.428C47.1903 91.204 47.8383 90.16 48.6543 89.296C49.4943 88.432 50.4783 87.76 51.6063 87.28C52.7583 86.8 54.0063 86.56 55.3503 86.56C56.7183 86.56 57.9663 86.8 59.0943 87.28C60.2463 87.76 61.2303 88.432 62.0463 89.296C62.8623 90.16 63.4983 91.204 63.9543 92.428C64.4103 93.652 64.6383 95.008 64.6383 96.496ZM59.1663 96.496C59.1663 94.84 58.8303 93.544 58.1583 92.608C57.5103 91.648 56.5743 91.168 55.3503 91.168C54.1263 91.168 53.1783 91.648 52.5063 92.608C51.8343 93.544 51.4983 94.84 51.4983 96.496C51.4983 98.152 51.8343 99.472 52.5063 100.456C53.1783 101.416 54.1263 101.896 55.3503 101.896C56.5743 101.896 57.5103 101.416 58.1583 100.456C58.8303 99.472 59.1663 98.152 59.1663 96.496ZM73.3654 96.388C73.3654 98.044 73.7374 99.376 74.4814 100.384C75.2254 101.392 76.3294 101.896 77.7934 101.896C78.2734 101.896 78.7174 101.884 79.1254 101.86C79.5334 101.812 79.8694 101.764 80.1334 101.716V91.96C79.7974 91.744 79.3534 91.564 78.8014 91.42C78.2734 91.276 77.7334 91.204 77.1814 91.204C74.6374 91.204 73.3654 92.932 73.3654 96.388ZM85.4974 105.388C85.0174 105.532 84.4654 105.676 83.8414 105.82C83.2174 105.94 82.5574 106.048 81.8614 106.144C81.1894 106.24 80.4934 106.312 79.7734 106.36C79.0774 106.432 78.4054 106.468 77.7574 106.468C76.1974 106.468 74.8054 106.24 73.5814 105.784C72.3574 105.328 71.3254 104.68 70.4854 103.84C69.6454 102.976 68.9974 101.944 68.5414 100.744C68.1094 99.52 67.8934 98.152 67.8934 96.64C67.8934 95.104 68.0854 93.724 68.4694 92.5C68.8534 91.252 69.4054 90.196 70.1254 89.332C70.8454 88.468 71.7214 87.808 72.7534 87.352C73.8094 86.896 75.0094 86.668 76.3534 86.668C77.0974 86.668 77.7574 86.74 78.3334 86.884C78.9334 87.028 79.5334 87.232 80.1334 87.496V78.928L85.4974 78.064V105.388ZM108.232 96.496C108.232 97.984 108.016 99.352 107.584 100.6C107.152 101.824 106.528 102.88 105.712 103.768C104.896 104.632 103.912 105.304 102.76 105.784C101.632 106.264 100.36 106.504 98.944 106.504C97.552 106.504 96.28 106.264 95.128 105.784C94 105.304 93.028 104.632 92.212 103.768C91.396 102.88 90.76 101.824 90.304 100.6C89.848 99.352 89.62 97.984 89.62 96.496C89.62 95.008 89.848 93.652 90.304 92.428C90.784 91.204 91.432 90.16 92.248 89.296C93.088 88.432 94.072 87.76 95.2 87.28C96.352 86.8 97.6 86.56 98.944 86.56C100.312 86.56 101.56 86.8 102.688 87.28C103.84 87.76 104.824 88.432 105.64 89.296C106.456 90.16 107.092 91.204 107.548 92.428C108.004 93.652 108.232 95.008 108.232 96.496ZM102.76 96.496C102.76 94.84 102.424 93.544 101.752 92.608C101.104 91.648 100.168 91.168 98.944 91.168C97.72 91.168 96.772 91.648 96.1 92.608C95.428 93.544 95.092 94.84 95.092 96.496C95.092 98.152 95.428 99.472 96.1 100.456C96.772 101.416 97.72 101.896 98.944 101.896C100.168 101.896 101.104 101.416 101.752 100.456C102.424 99.472 102.76 98.152 102.76 96.496ZM117.751 106H112.387V87.064H117.751V106ZM118.255 81.592C118.255 82.576 117.931 83.356 117.283 83.932C116.659 84.484 115.915 84.76 115.051 84.76C114.187 84.76 113.431 84.484 112.783 83.932C112.159 83.356 111.847 82.576 111.847 81.592C111.847 80.608 112.159 79.84 112.783 79.288C113.431 78.712 114.187 78.424 115.051 78.424C115.915 78.424 116.659 78.712 117.283 79.288C117.931 79.84 118.255 80.608 118.255 81.592ZM128.229 102.148C129.213 102.148 129.909 102.052 130.317 101.86C130.725 101.668 130.929 101.296 130.929 100.744C130.929 100.312 130.665 99.94 130.137 99.628C129.609 99.292 128.805 98.92 127.725 98.512C126.885 98.2 126.117 97.876 125.421 97.54C124.749 97.204 124.173 96.808 123.693 96.352C123.213 95.872 122.841 95.308 122.577 94.66C122.313 94.012 122.181 93.232 122.181 92.32C122.181 90.544 122.841 89.14 124.161 88.108C125.481 87.076 127.293 86.56 129.597 86.56C130.749 86.56 131.853 86.668 132.909 86.884C133.965 87.076 134.805 87.292 135.429 87.532L134.493 91.708C133.869 91.492 133.185 91.3 132.441 91.132C131.721 90.964 130.905 90.88 129.993 90.88C128.313 90.88 127.473 91.348 127.473 92.284C127.473 92.5 127.509 92.692 127.581 92.86C127.653 93.028 127.797 93.196 128.013 93.364C128.229 93.508 128.517 93.676 128.877 93.868C129.261 94.036 129.741 94.228 130.317 94.444C131.493 94.876 132.465 95.308 133.233 95.74C134.001 96.148 134.601 96.604 135.033 97.108C135.489 97.588 135.801 98.128 135.969 98.728C136.161 99.328 136.257 100.024 136.257 100.816C136.257 102.688 135.549 104.104 134.133 105.064C132.741 106.024 130.761 106.504 128.193 106.504C126.513 106.504 125.109 106.36 123.981 106.072C122.877 105.784 122.109 105.544 121.677 105.352L122.577 100.996C123.489 101.356 124.425 101.644 125.385 101.86C126.345 102.052 127.293 102.148 128.229 102.148ZM140.086 82.348L145.45 81.484V87.064H151.894V91.528H145.45V98.188C145.45 99.316 145.642 100.216 146.026 100.888C146.434 101.56 147.238 101.896 148.438 101.896C149.014 101.896 149.602 101.848 150.202 101.752C150.826 101.632 151.39 101.476 151.894 101.284L152.65 105.46C152.002 105.724 151.282 105.952 150.49 106.144C149.698 106.336 148.726 106.432 147.574 106.432C146.11 106.432 144.898 106.24 143.938 105.856C142.978 105.448 142.21 104.896 141.634 104.2C141.058 103.48 140.65 102.616 140.41 101.608C140.194 100.6 140.086 99.484 140.086 98.26V82.348ZM176.647 106.504C172.591 106.504 169.495 105.376 167.359 103.12C165.247 100.864 164.191 97.66 164.191 93.508C164.191 91.444 164.515 89.608 165.163 88C165.811 86.368 166.699 85 167.827 83.896C168.955 82.768 170.299 81.916 171.859 81.34C173.419 80.764 175.111 80.476 176.935 80.476C177.991 80.476 178.951 80.56 179.815 80.728C180.679 80.872 181.435 81.052 182.083 81.268C182.731 81.46 183.271 81.664 183.703 81.88C184.135 82.096 184.447 82.264 184.639 82.384L183.019 86.92C182.251 86.512 181.351 86.164 180.319 85.876C179.311 85.588 178.159 85.444 176.863 85.444C175.999 85.444 175.147 85.588 174.307 85.876C173.491 86.164 172.759 86.632 172.111 87.28C171.487 87.904 170.983 88.72 170.599 89.728C170.215 90.736 170.023 91.96 170.023 93.4C170.023 94.552 170.143 95.632 170.383 96.64C170.647 97.624 171.055 98.476 171.607 99.196C172.183 99.916 172.927 100.492 173.839 100.924C174.751 101.332 175.855 101.536 177.151 101.536C177.967 101.536 178.699 101.488 179.347 101.392C179.995 101.296 180.571 101.188 181.075 101.068C181.579 100.924 182.023 100.768 182.407 100.6C182.791 100.432 183.139 100.276 183.451 100.132L184.999 104.632C184.207 105.112 183.091 105.544 181.651 105.928C180.211 106.312 178.543 106.504 176.647 106.504ZM195.814 106.36C194.254 106.336 192.982 106.168 191.998 105.856C191.038 105.544 190.27 105.112 189.694 104.56C189.142 103.984 188.758 103.3 188.542 102.508C188.35 101.692 188.254 100.78 188.254 99.772V78.928L193.618 78.064V98.692C193.618 99.172 193.654 99.604 193.726 99.988C193.798 100.372 193.93 100.696 194.122 100.96C194.338 101.224 194.638 101.44 195.022 101.608C195.406 101.776 195.922 101.884 196.57 101.932L195.814 106.36ZM217.357 96.496C217.357 97.984 217.141 99.352 216.709 100.6C216.277 101.824 215.653 102.88 214.837 103.768C214.021 104.632 213.037 105.304 211.885 105.784C210.757 106.264 209.485 106.504 208.069 106.504C206.677 106.504 205.405 106.264 204.253 105.784C203.125 105.304 202.153 104.632 201.337 103.768C200.521 102.88 199.885 101.824 199.429 100.6C198.973 99.352 198.745 97.984 198.745 96.496C198.745 95.008 198.973 93.652 199.429 92.428C199.909 91.204 200.557 90.16 201.373 89.296C202.213 88.432 203.197 87.76 204.325 87.28C205.477 86.8 206.725 86.56 208.069 86.56C209.437 86.56 210.685 86.8 211.813 87.28C212.965 87.76 213.949 88.432 214.765 89.296C215.581 90.16 216.217 91.204 216.673 92.428C217.129 93.652 217.357 95.008 217.357 96.496ZM211.885 96.496C211.885 94.84 211.549 93.544 210.877 92.608C210.229 91.648 209.293 91.168 208.069 91.168C206.845 91.168 205.897 91.648 205.225 92.608C204.553 93.544 204.217 94.84 204.217 96.496C204.217 98.152 204.553 99.472 205.225 100.456C205.897 101.416 206.845 101.896 208.069 101.896C209.293 101.896 210.229 101.416 210.877 100.456C211.549 99.472 211.885 98.152 211.885 96.496ZM221.512 87.712C222.424 87.448 223.6 87.208 225.04 86.992C226.48 86.752 227.992 86.632 229.576 86.632C231.184 86.632 232.516 86.848 233.572 87.28C234.652 87.688 235.504 88.276 236.128 89.044C236.752 89.812 237.196 90.724 237.46 91.78C237.724 92.836 237.856 94.012 237.856 95.308V106H232.492V95.956C232.492 94.228 232.264 93.004 231.808 92.284C231.352 91.564 230.5 91.204 229.252 91.204C228.868 91.204 228.46 91.228 228.028 91.276C227.596 91.3 227.212 91.336 226.876 91.384V106H221.512V87.712ZM241.811 96.676C241.811 94.996 242.063 93.532 242.567 92.284C243.095 91.012 243.779 89.956 244.619 89.116C245.459 88.276 246.419 87.64 247.499 87.208C248.603 86.776 249.731 86.56 250.883 86.56C253.571 86.56 255.695 87.388 257.255 89.044C258.815 90.676 259.595 93.088 259.595 96.28C259.595 96.592 259.583 96.94 259.559 97.324C259.535 97.684 259.511 98.008 259.487 98.296H247.319C247.439 99.4 247.955 100.276 248.867 100.924C249.779 101.572 251.003 101.896 252.539 101.896C253.523 101.896 254.483 101.812 255.419 101.644C256.379 101.452 257.159 101.224 257.759 100.96L258.479 105.316C258.191 105.46 257.807 105.604 257.327 105.748C256.847 105.892 256.307 106.012 255.707 106.108C255.131 106.228 254.507 106.324 253.835 106.396C253.163 106.468 252.491 106.504 251.819 106.504C250.115 106.504 248.627 106.252 247.355 105.748C246.107 105.244 245.063 104.56 244.223 103.696C243.407 102.808 242.795 101.764 242.387 100.564C242.003 99.364 241.811 98.068 241.811 96.676ZM254.411 94.624C254.387 94.168 254.303 93.724 254.159 93.292C254.039 92.86 253.835 92.476 253.547 92.14C253.283 91.804 252.935 91.528 252.503 91.312C252.095 91.096 251.579 90.988 250.955 90.988C250.355 90.988 249.839 91.096 249.407 91.312C248.975 91.504 248.615 91.768 248.327 92.104C248.039 92.44 247.811 92.836 247.643 93.292C247.499 93.724 247.391 94.168 247.319 94.624H254.411ZM44.584 147C44.32 146.136 44.02 145.248 43.684 144.336C43.372 143.424 43.06 142.512 42.748 141.6H33.028C32.716 142.512 32.392 143.424 32.056 144.336C31.744 145.248 31.456 146.136 31.192 147H25.36C26.296 144.312 27.184 141.828 28.024 139.548C28.864 137.268 29.68 135.12 30.472 133.104C31.288 131.088 32.08 129.18 32.848 127.38C33.64 125.556 34.456 123.78 35.296 122.052H40.66C41.476 123.78 42.28 125.556 43.072 127.38C43.864 129.18 44.656 131.088 45.448 133.104C46.264 135.12 47.092 137.268 47.932 139.548C48.772 141.828 49.66 144.312 50.596 147H44.584ZM37.852 127.704C37.732 128.064 37.552 128.556 37.312 129.18C37.072 129.804 36.796 130.524 36.484 131.34C36.172 132.156 35.824 133.056 35.44 134.04C35.08 135.024 34.708 136.056 34.324 137.136H41.416C41.032 136.056 40.66 135.024 40.3 134.04C39.94 133.056 39.592 132.156 39.256 131.34C38.944 130.524 38.668 129.804 38.428 129.18C38.188 128.556 37.996 128.064 37.852 127.704ZM65.5973 137.676C65.5973 136.02 65.2253 134.7 64.4813 133.716C63.7373 132.708 62.6333 132.204 61.1693 132.204C60.6893 132.204 60.2453 132.228 59.8373 132.276C59.4293 132.3 59.0933 132.336 58.8293 132.384V142.068C59.1653 142.284 59.5973 142.464 60.1253 142.608C60.6773 142.752 61.2293 142.824 61.7813 142.824C64.3253 142.824 65.5973 141.108 65.5973 137.676ZM71.0693 137.532C71.0693 138.996 70.8893 140.328 70.5293 141.528C70.1693 142.728 69.6413 143.76 68.9453 144.624C68.2493 145.488 67.3853 146.16 66.3533 146.64C65.3213 147.12 64.1333 147.36 62.7893 147.36C62.0453 147.36 61.3493 147.288 60.7013 147.144C60.0533 147 59.4293 146.796 58.8293 146.532V153.66H53.4653V128.712C53.9453 128.568 54.4973 128.436 55.1213 128.316C55.7453 128.172 56.3933 128.052 57.0653 127.956C57.7613 127.86 58.4573 127.788 59.1533 127.74C59.8733 127.668 60.5573 127.632 61.2053 127.632C62.7653 127.632 64.1573 127.872 65.3813 128.352C66.6053 128.808 67.6373 129.468 68.4773 130.332C69.3173 131.172 69.9533 132.204 70.3853 133.428C70.8413 134.652 71.0693 136.02 71.0693 137.532ZM87.3239 137.676C87.3239 136.02 86.9519 134.7 86.2079 133.716C85.4639 132.708 84.3599 132.204 82.8959 132.204C82.4159 132.204 81.9719 132.228 81.5639 132.276C81.1559 132.3 80.8199 132.336 80.5559 132.384V142.068C80.8919 142.284 81.3239 142.464 81.8519 142.608C82.4039 142.752 82.9559 142.824 83.5079 142.824C86.0519 142.824 87.3239 141.108 87.3239 137.676ZM92.7959 137.532C92.7959 138.996 92.6159 140.328 92.2559 141.528C91.8959 142.728 91.3679 143.76 90.6719 144.624C89.9759 145.488 89.1119 146.16 88.0799 146.64C87.0479 147.12 85.8599 147.36 84.5159 147.36C83.7719 147.36 83.0759 147.288 82.4279 147.144C81.7799 147 81.1559 146.796 80.5559 146.532V153.66H75.1919V128.712C75.6719 128.568 76.2239 128.436 76.8479 128.316C77.4719 128.172 78.1199 128.052 78.7919 127.956C79.4879 127.86 80.1839 127.788 80.8799 127.74C81.5999 127.668 82.2839 127.632 82.9319 127.632C84.4919 127.632 85.8839 127.872 87.1079 128.352C88.3319 128.808 89.3639 129.468 90.2039 130.332C91.0439 131.172 91.6799 132.204 92.1119 133.428C92.5679 134.652 92.7959 136.02 92.7959 137.532ZM114.243 147.324C112.875 147.324 111.507 147.276 110.139 147.18C108.795 147.108 107.391 146.916 105.927 146.604V122.412C107.079 122.196 108.339 122.04 109.707 121.944C111.075 121.824 112.347 121.764 113.523 121.764C115.107 121.764 116.559 121.884 117.879 122.124C119.223 122.34 120.375 122.724 121.335 123.276C122.295 123.828 123.039 124.56 123.567 125.472C124.119 126.36 124.395 127.464 124.395 128.784C124.395 130.776 123.435 132.348 121.515 133.5C123.099 134.1 124.179 134.916 124.755 135.948C125.331 136.98 125.619 138.144 125.619 139.44C125.619 142.056 124.659 144.024 122.739 145.344C120.843 146.664 118.011 147.324 114.243 147.324ZM111.399 136.128V142.572C111.807 142.62 112.251 142.656 112.731 142.68C113.211 142.704 113.739 142.716 114.315 142.716C115.995 142.716 117.351 142.476 118.383 141.996C119.415 141.516 119.931 140.628 119.931 139.332C119.931 138.18 119.499 137.364 118.635 136.884C117.771 136.38 116.535 136.128 114.927 136.128H111.399ZM111.399 131.844H114.135C115.863 131.844 117.099 131.628 117.843 131.196C118.587 130.74 118.959 130.02 118.959 129.036C118.959 128.028 118.575 127.32 117.807 126.912C117.039 126.504 115.911 126.3 114.423 126.3C113.943 126.3 113.427 126.312 112.875 126.336C112.323 126.336 111.831 126.36 111.399 126.408V131.844ZM145.918 146.352C145.006 146.616 143.83 146.856 142.39 147.072C140.95 147.312 139.438 147.432 137.854 147.432C136.246 147.432 134.902 147.216 133.822 146.784C132.766 146.352 131.926 145.752 131.302 144.984C130.678 144.192 130.234 143.256 129.97 142.176C129.706 141.096 129.574 139.908 129.574 138.612V128.064H134.938V137.964C134.938 139.692 135.166 140.94 135.622 141.708C136.078 142.476 136.93 142.86 138.178 142.86C138.562 142.86 138.97 142.848 139.402 142.824C139.834 142.776 140.218 142.728 140.554 142.68V128.064H145.918V146.352ZM156.318 147H150.954V128.064H156.318V147ZM156.822 122.592C156.822 123.576 156.498 124.356 155.85 124.932C155.226 125.484 154.482 125.76 153.618 125.76C152.754 125.76 151.998 125.484 151.35 124.932C150.726 124.356 150.414 123.576 150.414 122.592C150.414 121.608 150.726 120.84 151.35 120.288C151.998 119.712 152.754 119.424 153.618 119.424C154.482 119.424 155.226 119.712 155.85 120.288C156.498 120.84 156.822 121.608 156.822 122.592ZM168.92 147.36C167.36 147.336 166.088 147.168 165.104 146.856C164.144 146.544 163.376 146.112 162.8 145.56C162.248 144.984 161.864 144.3 161.648 143.508C161.456 142.692 161.36 141.78 161.36 140.772V119.928L166.724 119.064V139.692C166.724 140.172 166.76 140.604 166.832 140.988C166.904 141.372 167.036 141.696 167.228 141.96C167.444 142.224 167.744 142.44 168.128 142.608C168.512 142.776 169.028 142.884 169.676 142.932L168.92 147.36ZM177.322 137.388C177.322 139.044 177.694 140.376 178.438 141.384C179.182 142.392 180.286 142.896 181.75 142.896C182.23 142.896 182.674 142.884 183.082 142.86C183.49 142.812 183.826 142.764 184.09 142.716V132.96C183.754 132.744 183.31 132.564 182.758 132.42C182.23 132.276 181.69 132.204 181.138 132.204C178.594 132.204 177.322 133.932 177.322 137.388ZM189.454 146.388C188.974 146.532 188.422 146.676 187.798 146.82C187.174 146.94 186.514 147.048 185.818 147.144C185.146 147.24 184.45 147.312 183.73 147.36C183.034 147.432 182.362 147.468 181.714 147.468C180.154 147.468 178.762 147.24 177.538 146.784C176.314 146.328 175.282 145.68 174.442 144.84C173.602 143.976 172.954 142.944 172.498 141.744C172.066 140.52 171.85 139.152 171.85 137.64C171.85 136.104 172.042 134.724 172.426 133.5C172.81 132.252 173.362 131.196 174.082 130.332C174.802 129.468 175.678 128.808 176.71 128.352C177.766 127.896 178.966 127.668 180.31 127.668C181.054 127.668 181.714 127.74 182.29 127.884C182.89 128.028 183.49 128.232 184.09 128.496V119.928L189.454 119.064V146.388ZM37.636 188.504C35.884 188.504 34.372 188.264 33.1 187.784C31.828 187.28 30.772 186.596 29.932 185.732C29.116 184.844 28.504 183.8 28.096 182.6C27.712 181.376 27.52 180.032 27.52 178.568V163.052H33.136V178.1C33.136 179.108 33.244 179.972 33.46 180.692C33.7 181.388 34.012 181.964 34.396 182.42C34.804 182.852 35.284 183.164 35.836 183.356C36.412 183.548 37.036 183.644 37.708 183.644C39.076 183.644 40.18 183.224 41.02 182.384C41.884 181.544 42.316 180.116 42.316 178.1V163.052H47.932V178.568C47.932 180.032 47.728 181.376 47.32 182.6C46.912 183.824 46.288 184.88 45.448 185.768C44.608 186.632 43.54 187.304 42.244 187.784C40.948 188.264 39.412 188.504 37.636 188.504ZM58.4091 184.148C59.3931 184.148 60.0891 184.052 60.4971 183.86C60.9051 183.668 61.1091 183.296 61.1091 182.744C61.1091 182.312 60.8451 181.94 60.3171 181.628C59.7891 181.292 58.9851 180.92 57.9051 180.512C57.0651 180.2 56.2971 179.876 55.6011 179.54C54.9291 179.204 54.3531 178.808 53.8731 178.352C53.3931 177.872 53.0211 177.308 52.7571 176.66C52.4931 176.012 52.3611 175.232 52.3611 174.32C52.3611 172.544 53.0211 171.14 54.3411 170.108C55.6611 169.076 57.4731 168.56 59.7771 168.56C60.9291 168.56 62.0331 168.668 63.0891 168.884C64.1451 169.076 64.9851 169.292 65.6091 169.532L64.6731 173.708C64.0491 173.492 63.3651 173.3 62.6211 173.132C61.9011 172.964 61.0851 172.88 60.1731 172.88C58.4931 172.88 57.6531 173.348 57.6531 174.284C57.6531 174.5 57.6891 174.692 57.7611 174.86C57.8331 175.028 57.9771 175.196 58.1931 175.364C58.4091 175.508 58.6971 175.676 59.0571 175.868C59.4411 176.036 59.9211 176.228 60.4971 176.444C61.6731 176.876 62.6451 177.308 63.4131 177.74C64.1811 178.148 64.7811 178.604 65.2131 179.108C65.6691 179.588 65.9811 180.128 66.1491 180.728C66.3411 181.328 66.4371 182.024 66.4371 182.816C66.4371 184.688 65.7291 186.104 64.3131 187.064C62.9211 188.024 60.9411 188.504 58.3731 188.504C56.6931 188.504 55.2891 188.36 54.1611 188.072C53.0571 187.784 52.2891 187.544 51.8571 187.352L52.7571 182.996C53.6691 183.356 54.6051 183.644 55.5651 183.86C56.5251 184.052 57.4731 184.148 58.4091 184.148ZM75.8098 188H70.4458V169.064H75.8098V188ZM76.3138 163.592C76.3138 164.576 75.9898 165.356 75.3418 165.932C74.7178 166.484 73.9738 166.76 73.1098 166.76C72.2458 166.76 71.4898 166.484 70.8418 165.932C70.2178 165.356 69.9058 164.576 69.9058 163.592C69.9058 162.608 70.2178 161.84 70.8418 161.288C71.4898 160.712 72.2458 160.424 73.1098 160.424C73.9738 160.424 74.7178 160.712 75.3418 161.288C75.9898 161.84 76.3138 162.608 76.3138 163.592ZM80.852 169.712C81.764 169.448 82.94 169.208 84.38 168.992C85.82 168.752 87.332 168.632 88.916 168.632C90.524 168.632 91.856 168.848 92.912 169.28C93.992 169.688 94.844 170.276 95.468 171.044C96.092 171.812 96.536 172.724 96.8 173.78C97.064 174.836 97.196 176.012 97.196 177.308V188H91.832V177.956C91.832 176.228 91.604 175.004 91.148 174.284C90.692 173.564 89.84 173.204 88.592 173.204C88.208 173.204 87.8 173.228 87.368 173.276C86.936 173.3 86.552 173.336 86.216 173.384V188H80.852V169.712ZM106.623 177.92C106.623 180.92 107.835 182.42 110.259 182.42C110.811 182.42 111.327 182.348 111.807 182.204C112.287 182.06 112.695 181.892 113.031 181.7V173.132C112.767 173.084 112.455 173.048 112.095 173.024C111.735 172.976 111.315 172.952 110.835 172.952C109.419 172.952 108.363 173.42 107.667 174.356C106.971 175.292 106.623 176.48 106.623 177.92ZM118.395 185.624C118.395 188.72 117.603 191.012 116.019 192.5C114.459 194.012 112.035 194.768 108.747 194.768C107.595 194.768 106.443 194.66 105.291 194.444C104.139 194.252 103.071 193.988 102.087 193.652L103.023 189.152C103.863 189.488 104.739 189.752 105.651 189.944C106.587 190.136 107.643 190.232 108.819 190.232C110.355 190.232 111.435 189.896 112.059 189.224C112.707 188.552 113.031 187.688 113.031 186.632V185.948C112.455 186.212 111.855 186.416 111.231 186.56C110.631 186.68 109.971 186.74 109.251 186.74C106.635 186.74 104.631 185.972 103.239 184.436C101.847 182.876 101.151 180.704 101.151 177.92C101.151 176.528 101.367 175.268 101.799 174.14C102.231 172.988 102.855 172.004 103.671 171.188C104.511 170.372 105.531 169.748 106.731 169.316C107.931 168.86 109.287 168.632 110.799 168.632C111.447 168.632 112.107 168.668 112.779 168.74C113.475 168.788 114.159 168.86 114.831 168.956C115.503 169.052 116.139 169.172 116.739 169.316C117.363 169.436 117.915 169.568 118.395 169.712V185.624ZM139.743 162.764C143.487 162.764 146.355 163.436 148.347 164.78C150.339 166.1 151.335 168.164 151.335 170.972C151.335 172.724 150.927 174.152 150.111 175.256C149.319 176.336 148.167 177.188 146.655 177.812C147.159 178.436 147.687 179.156 148.239 179.972C148.791 180.764 149.331 181.604 149.859 182.492C150.411 183.356 150.939 184.268 151.443 185.228C151.947 186.164 152.415 187.088 152.847 188H146.547C146.091 187.184 145.623 186.356 145.143 185.516C144.687 184.676 144.207 183.86 143.703 183.068C143.223 182.276 142.743 181.532 142.263 180.836C141.783 180.116 141.303 179.468 140.823 178.892H138.051V188H132.435V163.412C133.659 163.172 134.919 163.004 136.215 162.908C137.535 162.812 138.711 162.764 139.743 162.764ZM140.067 167.552C139.659 167.552 139.287 167.564 138.951 167.588C138.639 167.612 138.339 167.636 138.051 167.66V174.428H139.635C141.747 174.428 143.259 174.164 144.171 173.636C145.083 173.108 145.539 172.208 145.539 170.936C145.539 169.712 145.071 168.848 144.135 168.344C143.223 167.816 141.867 167.552 140.067 167.552ZM154.272 178.676C154.272 176.996 154.524 175.532 155.028 174.284C155.556 173.012 156.24 171.956 157.08 171.116C157.92 170.276 158.88 169.64 159.96 169.208C161.064 168.776 162.192 168.56 163.344 168.56C166.032 168.56 168.156 169.388 169.716 171.044C171.276 172.676 172.056 175.088 172.056 178.28C172.056 178.592 172.044 178.94 172.02 179.324C171.996 179.684 171.972 180.008 171.948 180.296H159.78C159.9 181.4 160.416 182.276 161.328 182.924C162.24 183.572 163.464 183.896 165 183.896C165.984 183.896 166.944 183.812 167.88 183.644C168.84 183.452 169.62 183.224 170.22 182.96L170.94 187.316C170.652 187.46 170.268 187.604 169.788 187.748C169.308 187.892 168.768 188.012 168.168 188.108C167.592 188.228 166.968 188.324 166.296 188.396C165.624 188.468 164.952 188.504 164.28 188.504C162.576 188.504 161.088 188.252 159.816 187.748C158.568 187.244 157.524 186.56 156.684 185.696C155.868 184.808 155.256 183.764 154.848 182.564C154.464 181.364 154.272 180.068 154.272 178.676ZM166.872 176.624C166.848 176.168 166.764 175.724 166.62 175.292C166.5 174.86 166.296 174.476 166.008 174.14C165.744 173.804 165.396 173.528 164.964 173.312C164.556 173.096 164.04 172.988 163.416 172.988C162.816 172.988 162.3 173.096 161.868 173.312C161.436 173.504 161.076 173.768 160.788 174.104C160.5 174.44 160.272 174.836 160.104 175.292C159.96 175.724 159.852 176.168 159.78 176.624H166.872ZM183.432 184.256C183.96 184.256 184.464 184.244 184.944 184.22C185.424 184.196 185.808 184.16 186.096 184.112V180.044C185.88 179.996 185.556 179.948 185.124 179.9C184.692 179.852 184.296 179.828 183.936 179.828C183.432 179.828 182.952 179.864 182.496 179.936C182.064 179.984 181.68 180.092 181.344 180.26C181.008 180.428 180.744 180.656 180.552 180.944C180.36 181.232 180.264 181.592 180.264 182.024C180.264 182.864 180.54 183.452 181.092 183.788C181.668 184.1 182.448 184.256 183.432 184.256ZM183 168.56C184.584 168.56 185.904 168.74 186.96 169.1C188.016 169.46 188.856 169.976 189.48 170.648C190.128 171.32 190.584 172.136 190.848 173.096C191.112 174.056 191.244 175.124 191.244 176.3V187.46C190.476 187.628 189.408 187.82 188.04 188.036C186.672 188.276 185.016 188.396 183.072 188.396C181.848 188.396 180.732 188.288 179.724 188.072C178.74 187.856 177.888 187.508 177.168 187.028C176.448 186.524 175.896 185.876 175.512 185.084C175.128 184.292 174.936 183.32 174.936 182.168C174.936 181.064 175.152 180.128 175.584 179.36C176.04 178.592 176.64 177.98 177.384 177.524C178.128 177.068 178.98 176.744 179.94 176.552C180.9 176.336 181.896 176.228 182.928 176.228C183.624 176.228 184.236 176.264 184.764 176.336C185.316 176.384 185.76 176.456 186.096 176.552V176.048C186.096 175.136 185.82 174.404 185.268 173.852C184.716 173.3 183.756 173.024 182.388 173.024C181.476 173.024 180.576 173.096 179.688 173.24C178.8 173.36 178.032 173.54 177.384 173.78L176.7 169.46C177.012 169.364 177.396 169.268 177.852 169.172C178.332 169.052 178.848 168.956 179.4 168.884C179.952 168.788 180.528 168.716 181.128 168.668C181.752 168.596 182.376 168.56 183 168.56ZM195.194 178.532C195.194 177.164 195.41 175.88 195.842 174.68C196.298 173.456 196.946 172.4 197.786 171.512C198.626 170.6 199.646 169.88 200.846 169.352C202.046 168.824 203.414 168.56 204.95 168.56C205.958 168.56 206.882 168.656 207.722 168.848C208.562 169.016 209.378 169.268 210.17 169.604L209.054 173.888C208.55 173.696 207.998 173.528 207.398 173.384C206.798 173.24 206.126 173.168 205.382 173.168C203.798 173.168 202.61 173.66 201.818 174.644C201.05 175.628 200.666 176.924 200.666 178.532C200.666 180.236 201.026 181.556 201.746 182.492C202.49 183.428 203.774 183.896 205.598 183.896C206.246 183.896 206.942 183.836 207.686 183.716C208.43 183.596 209.114 183.404 209.738 183.14L210.494 187.532C209.87 187.796 209.09 188.024 208.154 188.216C207.218 188.408 206.186 188.504 205.058 188.504C203.33 188.504 201.842 188.252 200.594 187.748C199.346 187.22 198.314 186.512 197.498 185.624C196.706 184.736 196.118 183.692 195.734 182.492C195.374 181.268 195.194 179.948 195.194 178.532ZM213.914 164.348L219.278 163.484V169.064H225.722V173.528H219.278V180.188C219.278 181.316 219.47 182.216 219.854 182.888C220.262 183.56 221.066 183.896 222.266 183.896C222.842 183.896 223.43 183.848 224.03 183.752C224.654 183.632 225.218 183.476 225.722 183.284L226.478 187.46C225.83 187.724 225.11 187.952 224.318 188.144C223.526 188.336 222.554 188.432 221.402 188.432C219.938 188.432 218.726 188.24 217.766 187.856C216.806 187.448 216.038 186.896 215.462 186.2C214.886 185.48 214.478 184.616 214.238 183.608C214.022 182.6 213.914 181.484 213.914 180.26V164.348ZM237.479 181.376C237.479 180.464 237.611 179.636 237.875 178.892C238.139 178.124 238.487 177.44 238.919 176.84C239.375 176.216 239.891 175.676 240.467 175.22C241.067 174.74 241.691 174.32 242.339 173.96C241.763 173.264 241.247 172.52 240.791 171.728C240.335 170.912 240.107 170.024 240.107 169.064C240.107 166.952 240.743 165.332 242.015 164.204C243.287 163.052 245.039 162.476 247.271 162.476C248.399 162.476 249.383 162.632 250.223 162.944C251.063 163.232 251.759 163.64 252.311 164.168C252.887 164.672 253.319 165.272 253.607 165.968C253.895 166.64 254.039 167.372 254.039 168.164C254.039 169.628 253.619 170.936 252.779 172.088C251.963 173.216 250.919 174.164 249.647 174.932L253.679 178.964C253.895 178.484 254.099 177.884 254.291 177.164C254.507 176.42 254.639 175.772 254.687 175.22L259.151 175.796C259.103 176.252 259.019 176.756 258.899 177.308C258.779 177.836 258.623 178.376 258.431 178.928C258.263 179.48 258.059 180.032 257.819 180.584C257.603 181.136 257.363 181.64 257.099 182.096C257.867 182.96 258.611 183.908 259.331 184.94C260.075 185.948 260.711 186.968 261.239 188H255.731C255.539 187.688 255.275 187.304 254.939 186.848C254.603 186.368 254.267 185.96 253.931 185.624C252.971 186.392 251.855 187.04 250.583 187.568C249.311 188.072 247.883 188.324 246.299 188.324C244.619 188.324 243.215 188.12 242.087 187.712C240.959 187.28 240.047 186.74 239.351 186.092C238.679 185.42 238.199 184.676 237.911 183.86C237.623 183.02 237.479 182.192 237.479 181.376ZM242.483 180.836C242.483 181.196 242.555 181.568 242.699 181.952C242.843 182.336 243.071 182.696 243.383 183.032C243.719 183.344 244.139 183.608 244.643 183.824C245.147 184.016 245.759 184.112 246.479 184.112C247.487 184.112 248.363 183.98 249.107 183.716C249.875 183.452 250.511 183.104 251.015 182.672L245.255 176.876C244.919 177.044 244.583 177.248 244.247 177.488C243.935 177.728 243.647 178.016 243.383 178.352C243.119 178.664 242.903 179.024 242.735 179.432C242.567 179.84 242.483 180.308 242.483 180.836ZM249.467 168.416C249.467 167.864 249.287 167.372 248.927 166.94C248.567 166.508 247.967 166.292 247.127 166.292C246.359 166.292 245.759 166.532 245.327 167.012C244.919 167.468 244.715 168.068 244.715 168.812C244.715 169.436 244.895 170.048 245.255 170.648C245.615 171.224 246.083 171.776 246.659 172.304C247.427 171.872 248.087 171.356 248.639 170.756C249.191 170.156 249.467 169.376 249.467 168.416ZM27.88 229V204.052H44.584V208.768H33.496V213.988H43.36V218.704H33.496V229H27.88ZM53.5559 229H48.1919V210.064H53.5559V229ZM54.0599 204.592C54.0599 205.576 53.7359 206.356 53.0879 206.932C52.4639 207.484 51.7199 207.76 50.8559 207.76C49.9919 207.76 49.2359 207.484 48.5879 206.932C47.9639 206.356 47.6519 205.576 47.6519 204.592C47.6519 203.608 47.9639 202.84 48.5879 202.288C49.2359 201.712 49.9919 201.424 50.8559 201.424C51.7199 201.424 52.4639 201.712 53.0879 202.288C53.7359 202.84 54.0599 203.608 54.0599 204.592ZM70.0101 214.816C69.5301 214.696 68.9661 214.576 68.3181 214.456C67.6701 214.312 66.9741 214.24 66.2301 214.24C65.8941 214.24 65.4861 214.276 65.0061 214.348C64.5501 214.396 64.2021 214.456 63.9621 214.528V229H58.5981V211.072C59.5581 210.736 60.6861 210.424 61.9821 210.136C63.3021 209.824 64.7661 209.668 66.3741 209.668C66.6621 209.668 67.0101 209.692 67.4181 209.74C67.8261 209.764 68.2341 209.812 68.6421 209.884C69.0501 209.932 69.4581 210.004 69.8661 210.1C70.2741 210.172 70.6221 210.268 70.9101 210.388L70.0101 214.816ZM72.5341 219.676C72.5341 217.996 72.7861 216.532 73.2901 215.284C73.8181 214.012 74.5021 212.956 75.3421 212.116C76.1821 211.276 77.1421 210.64 78.2221 210.208C79.3261 209.776 80.4541 209.56 81.6061 209.56C84.2941 209.56 86.4181 210.388 87.9781 212.044C89.5381 213.676 90.3181 216.088 90.3181 219.28C90.3181 219.592 90.3061 219.94 90.2821 220.324C90.2581 220.684 90.2341 221.008 90.2101 221.296H78.0421C78.1621 222.4 78.6781 223.276 79.5901 223.924C80.5021 224.572 81.7261 224.896 83.2621 224.896C84.2461 224.896 85.2061 224.812 86.1421 224.644C87.1021 224.452 87.8821 224.224 88.4821 223.96L89.2021 228.316C88.9141 228.46 88.5301 228.604 88.0501 228.748C87.5701 228.892 87.0301 229.012 86.4301 229.108C85.8541 229.228 85.2301 229.324 84.5581 229.396C83.8861 229.468 83.2141 229.504 82.5421 229.504C80.8381 229.504 79.3501 229.252 78.0781 228.748C76.8301 228.244 75.7861 227.56 74.9461 226.696C74.1301 225.808 73.5181 224.764 73.1101 223.564C72.7261 222.364 72.5341 221.068 72.5341 219.676ZM85.1341 217.624C85.1101 217.168 85.0261 216.724 84.8821 216.292C84.7621 215.86 84.5581 215.476 84.2701 215.14C84.0061 214.804 83.6581 214.528 83.2261 214.312C82.8181 214.096 82.3021 213.988 81.6781 213.988C81.0781 213.988 80.5621 214.096 80.1301 214.312C79.6981 214.504 79.3381 214.768 79.0501 215.104C78.7621 215.44 78.5341 215.836 78.3661 216.292C78.2221 216.724 78.1141 217.168 78.0421 217.624H85.1341ZM106.59 219.388C106.59 215.932 105.318 214.204 102.774 214.204C102.222 214.204 101.67 214.276 101.118 214.42C100.59 214.564 100.158 214.744 99.8215 214.96V224.716C100.086 224.764 100.422 224.812 100.83 224.86C101.238 224.884 101.682 224.896 102.162 224.896C103.626 224.896 104.73 224.392 105.474 223.384C106.218 222.376 106.59 221.044 106.59 219.388ZM112.062 219.532C112.062 221.044 111.834 222.412 111.378 223.636C110.946 224.86 110.31 225.904 109.47 226.768C108.63 227.632 107.598 228.304 106.374 228.784C105.15 229.24 103.758 229.468 102.198 229.468C101.55 229.468 100.866 229.432 100.146 229.36C99.4495 229.312 98.7535 229.24 98.0575 229.144C97.3855 229.048 96.7375 228.94 96.1135 228.82C95.4895 228.676 94.9375 228.532 94.4575 228.388V201.928L99.8215 201.064V210.496C100.422 210.232 101.046 210.028 101.694 209.884C102.342 209.74 103.038 209.668 103.782 209.668C105.126 209.668 106.314 209.908 107.346 210.388C108.378 210.844 109.242 211.504 109.938 212.368C110.634 213.232 111.162 214.276 111.522 215.5C111.882 216.7 112.062 218.044 112.062 219.532ZM123.42 225.256C123.948 225.256 124.452 225.244 124.932 225.22C125.412 225.196 125.796 225.16 126.084 225.112V221.044C125.868 220.996 125.544 220.948 125.112 220.9C124.68 220.852 124.284 220.828 123.924 220.828C123.42 220.828 122.94 220.864 122.484 220.936C122.052 220.984 121.668 221.092 121.332 221.26C120.996 221.428 120.732 221.656 120.54 221.944C120.348 222.232 120.252 222.592 120.252 223.024C120.252 223.864 120.528 224.452 121.08 224.788C121.656 225.1 122.436 225.256 123.42 225.256ZM122.988 209.56C124.572 209.56 125.892 209.74 126.948 210.1C128.004 210.46 128.844 210.976 129.468 211.648C130.116 212.32 130.572 213.136 130.836 214.096C131.1 215.056 131.232 216.124 131.232 217.3V228.46C130.464 228.628 129.396 228.82 128.028 229.036C126.66 229.276 125.004 229.396 123.06 229.396C121.836 229.396 120.72 229.288 119.712 229.072C118.728 228.856 117.876 228.508 117.156 228.028C116.436 227.524 115.884 226.876 115.5 226.084C115.116 225.292 114.924 224.32 114.924 223.168C114.924 222.064 115.14 221.128 115.572 220.36C116.028 219.592 116.628 218.98 117.372 218.524C118.116 218.068 118.968 217.744 119.928 217.552C120.888 217.336 121.884 217.228 122.916 217.228C123.612 217.228 124.224 217.264 124.752 217.336C125.304 217.384 125.748 217.456 126.084 217.552V217.048C126.084 216.136 125.808 215.404 125.256 214.852C124.704 214.3 123.744 214.024 122.376 214.024C121.464 214.024 120.564 214.096 119.676 214.24C118.788 214.36 118.02 214.54 117.372 214.78L116.688 210.46C117 210.364 117.384 210.268 117.84 210.172C118.32 210.052 118.836 209.956 119.388 209.884C119.94 209.788 120.516 209.716 121.116 209.668C121.74 209.596 122.364 209.56 122.988 209.56ZM141.519 225.148C142.503 225.148 143.199 225.052 143.607 224.86C144.015 224.668 144.219 224.296 144.219 223.744C144.219 223.312 143.955 222.94 143.427 222.628C142.899 222.292 142.095 221.92 141.015 221.512C140.175 221.2 139.407 220.876 138.711 220.54C138.039 220.204 137.463 219.808 136.983 219.352C136.503 218.872 136.131 218.308 135.867 217.66C135.603 217.012 135.471 216.232 135.471 215.32C135.471 213.544 136.131 212.14 137.451 211.108C138.771 210.076 140.583 209.56 142.887 209.56C144.039 209.56 145.143 209.668 146.199 209.884C147.255 210.076 148.095 210.292 148.719 210.532L147.783 214.708C147.159 214.492 146.475 214.3 145.731 214.132C145.011 213.964 144.195 213.88 143.283 213.88C141.603 213.88 140.763 214.348 140.763 215.284C140.763 215.5 140.799 215.692 140.871 215.86C140.943 216.028 141.087 216.196 141.303 216.364C141.519 216.508 141.807 216.676 142.167 216.868C142.551 217.036 143.031 217.228 143.607 217.444C144.783 217.876 145.755 218.308 146.523 218.74C147.291 219.148 147.891 219.604 148.323 220.108C148.779 220.588 149.091 221.128 149.259 221.728C149.451 222.328 149.547 223.024 149.547 223.816C149.547 225.688 148.839 227.104 147.423 228.064C146.031 229.024 144.051 229.504 141.483 229.504C139.803 229.504 138.399 229.36 137.271 229.072C136.167 228.784 135.399 228.544 134.967 228.352L135.867 223.996C136.779 224.356 137.715 224.644 138.675 224.86C139.635 225.052 140.583 225.148 141.519 225.148ZM152.655 219.676C152.655 217.996 152.907 216.532 153.411 215.284C153.939 214.012 154.623 212.956 155.463 212.116C156.303 211.276 157.263 210.64 158.343 210.208C159.447 209.776 160.575 209.56 161.727 209.56C164.415 209.56 166.539 210.388 168.099 212.044C169.659 213.676 170.439 216.088 170.439 219.28C170.439 219.592 170.427 219.94 170.403 220.324C170.379 220.684 170.355 221.008 170.331 221.296H158.163C158.283 222.4 158.799 223.276 159.711 223.924C160.623 224.572 161.847 224.896 163.383 224.896C164.367 224.896 165.327 224.812 166.263 224.644C167.223 224.452 168.003 224.224 168.603 223.96L169.323 228.316C169.035 228.46 168.651 228.604 168.171 228.748C167.691 228.892 167.151 229.012 166.551 229.108C165.975 229.228 165.351 229.324 164.679 229.396C164.007 229.468 163.335 229.504 162.663 229.504C160.959 229.504 159.471 229.252 158.199 228.748C156.951 228.244 155.907 227.56 155.067 226.696C154.251 225.808 153.639 224.764 153.231 223.564C152.847 222.364 152.655 221.068 152.655 219.676ZM165.255 217.624C165.231 217.168 165.147 216.724 165.003 216.292C164.883 215.86 164.679 215.476 164.391 215.14C164.127 214.804 163.779 214.528 163.347 214.312C162.939 214.096 162.423 213.988 161.799 213.988C161.199 213.988 160.683 214.096 160.251 214.312C159.819 214.504 159.459 214.768 159.171 215.104C158.883 215.44 158.655 215.836 158.487 216.292C158.343 216.724 158.235 217.168 158.163 217.624H165.255Z" fill="#0E1FB9"/>
<defs>
<linearGradient id="paint0_linear" x1="29" y1="51" x2="315" y2="319" gradientUnits="userSpaceOnUse">
<stop offset="0.218357" stop-color="#FAFF03" stop-opacity="0.52"/>
<stop offset="0.916567" stop-color="#0C129E" stop-opacity="0.89"/>
<stop offset="0.9999" stop-color="#0C1992" stop-opacity="0.0520833"/>
<stop offset="1" stop-color="#0C1992" stop-opacity="0"/>
<stop offset="1" stop-color="#0C1992" stop-opacity="0.153035"/>
</linearGradient>
</defs>
</svg>
