<svg width="300" height="300" viewBox="0 0 300 300" fill="none" xmlns="http://www.w3.org/2000/svg">
<rect width="300" height="300" fill="url(#paint0_linear)"/>
<path d="M24.188 83.764C27.932 83.764 30.8 84.436 32.792 85.78C34.784 87.1 35.78 89.164 35.78 91.972C35.78 93.724 35.372 95.152 34.556 96.256C33.764 97.336 32.612 98.188 31.1 98.812C31.604 99.436 32.132 100.156 32.684 100.972C33.236 101.764 33.776 102.604 34.304 103.492C34.856 104.356 35.384 105.268 35.888 106.228C36.392 107.164 36.86 108.088 37.292 109H30.992C30.536 108.184 30.068 107.356 29.588 106.516C29.132 105.676 28.652 104.86 28.148 104.068C27.668 103.276 27.188 102.532 26.708 101.836C26.228 101.116 25.748 100.468 25.268 99.892H22.496V109H16.88V84.412C18.104 84.172 19.364 84.004 20.66 83.908C21.98 83.812 23.156 83.764 24.188 83.764ZM24.512 88.552C24.104 88.552 23.732 88.564 23.396 88.588C23.084 88.612 22.784 88.636 22.496 88.66V95.428H24.08C26.192 95.428 27.704 95.164 28.616 94.636C29.528 94.108 29.984 93.208 29.984 91.936C29.984 90.712 29.516 89.848 28.58 89.344C27.668 88.816 26.312 88.552 24.512 88.552ZM38.7177 99.676C38.7177 97.996 38.9697 96.532 39.4737 95.284C40.0017 94.012 40.6857 92.956 41.5257 92.116C42.3657 91.276 43.3257 90.64 44.4057 90.208C45.5097 89.776 46.6377 89.56 47.7897 89.56C50.4777 89.56 52.6017 90.388 54.1617 92.044C55.7217 93.676 56.5017 96.088 56.5017 99.28C56.5017 99.592 56.4897 99.94 56.4657 100.324C56.4417 100.684 56.4177 101.008 56.3937 101.296H44.2257C44.3457 102.4 44.8617 103.276 45.7737 103.924C46.6857 104.572 47.9097 104.896 49.4457 104.896C50.4297 104.896 51.3897 104.812 52.3257 104.644C53.2857 104.452 54.0657 104.224 54.6657 103.96L55.3857 108.316C55.0977 108.46 54.7137 108.604 54.2337 108.748C53.7537 108.892 53.2137 109.012 52.6137 109.108C52.0377 109.228 51.4137 109.324 50.7417 109.396C50.0697 109.468 49.3977 109.504 48.7257 109.504C47.0217 109.504 45.5337 109.252 44.2617 108.748C43.0137 108.244 41.9697 107.56 41.1297 106.696C40.3137 105.808 39.7017 104.764 39.2937 103.564C38.9097 102.364 38.7177 101.068 38.7177 99.676ZM51.3177 97.624C51.2937 97.168 51.2097 96.724 51.0657 96.292C50.9457 95.86 50.7417 95.476 50.4537 95.14C50.1897 94.804 49.8417 94.528 49.4097 94.312C49.0017 94.096 48.4857 93.988 47.8617 93.988C47.2617 93.988 46.7457 94.096 46.3137 94.312C45.8817 94.504 45.5217 94.768 45.2337 95.104C44.9457 95.44 44.7177 95.836 44.5497 96.292C44.4057 96.724 44.2977 97.168 44.2257 97.624H51.3177ZM67.8771 105.256C68.4051 105.256 68.9091 105.244 69.3891 105.22C69.8691 105.196 70.2531 105.16 70.5411 105.112V101.044C70.3251 100.996 70.0011 100.948 69.5691 100.9C69.1371 100.852 68.7411 100.828 68.3811 100.828C67.8771 100.828 67.3971 100.864 66.9411 100.936C66.5091 100.984 66.1251 101.092 65.7891 101.26C65.4531 101.428 65.1891 101.656 64.9971 101.944C64.8051 102.232 64.7091 102.592 64.7091 103.024C64.7091 103.864 64.9851 104.452 65.5371 104.788C66.1131 105.1 66.8931 105.256 67.8771 105.256ZM67.4451 89.56C69.0291 89.56 70.3491 89.74 71.4051 90.1C72.4611 90.46 73.3011 90.976 73.9251 91.648C74.5731 92.32 75.0291 93.136 75.2931 94.096C75.5571 95.056 75.6891 96.124 75.6891 97.3V108.46C74.9211 108.628 73.8531 108.82 72.4851 109.036C71.1171 109.276 69.4611 109.396 67.5171 109.396C66.2931 109.396 65.1771 109.288 64.1691 109.072C63.1851 108.856 62.3331 108.508 61.6131 108.028C60.8931 107.524 60.3411 106.876 59.9571 106.084C59.5731 105.292 59.3811 104.32 59.3811 103.168C59.3811 102.064 59.5971 101.128 60.0291 100.36C60.4851 99.592 61.0851 98.98 61.8291 98.524C62.5731 98.068 63.4251 97.744 64.3851 97.552C65.3451 97.336 66.3411 97.228 67.3731 97.228C68.0691 97.228 68.6811 97.264 69.2091 97.336C69.7611 97.384 70.2051 97.456 70.5411 97.552V97.048C70.5411 96.136 70.2651 95.404 69.7131 94.852C69.1611 94.3 68.2011 94.024 66.8331 94.024C65.9211 94.024 65.0211 94.096 64.1331 94.24C63.2451 94.36 62.4771 94.54 61.8291 94.78L61.1451 90.46C61.4571 90.364 61.8411 90.268 62.2971 90.172C62.7771 90.052 63.2931 89.956 63.8451 89.884C64.3971 89.788 64.9731 89.716 65.5731 89.668C66.1971 89.596 66.8211 89.56 67.4451 89.56ZM79.6395 99.532C79.6395 98.164 79.8555 96.88 80.2875 95.68C80.7435 94.456 81.3915 93.4 82.2315 92.512C83.0715 91.6 84.0915 90.88 85.2915 90.352C86.4915 89.824 87.8595 89.56 89.3955 89.56C90.4035 89.56 91.3275 89.656 92.1675 89.848C93.0075 90.016 93.8235 90.268 94.6155 90.604L93.4995 94.888C92.9955 94.696 92.4435 94.528 91.8435 94.384C91.2435 94.24 90.5715 94.168 89.8275 94.168C88.2435 94.168 87.0555 94.66 86.2635 95.644C85.4955 96.628 85.1115 97.924 85.1115 99.532C85.1115 101.236 85.4715 102.556 86.1915 103.492C86.9355 104.428 88.2195 104.896 90.0435 104.896C90.6915 104.896 91.3875 104.836 92.1315 104.716C92.8755 104.596 93.5595 104.404 94.1835 104.14L94.9395 108.532C94.3155 108.796 93.5355 109.024 92.5995 109.216C91.6635 109.408 90.6315 109.504 89.5035 109.504C87.7755 109.504 86.2875 109.252 85.0395 108.748C83.7915 108.22 82.7595 107.512 81.9435 106.624C81.1515 105.736 80.5635 104.692 80.1795 103.492C79.8195 102.268 79.6395 100.948 79.6395 99.532ZM98.3595 85.348L103.724 84.484V90.064H110.168V94.528H103.724V101.188C103.724 102.316 103.916 103.216 104.3 103.888C104.708 104.56 105.512 104.896 106.712 104.896C107.288 104.896 107.876 104.848 108.476 104.752C109.1 104.632 109.664 104.476 110.168 104.284L110.924 108.46C110.276 108.724 109.556 108.952 108.764 109.144C107.972 109.336 107 109.432 105.848 109.432C104.384 109.432 103.172 109.24 102.212 108.856C101.252 108.448 100.484 107.896 99.9075 107.2C99.3315 106.48 98.9235 105.616 98.6835 104.608C98.4675 103.6 98.3595 102.484 98.3595 101.26V85.348ZM16.88 150V125.052H33.728V129.768H22.496V134.664H32.468V139.272H22.496V145.284H34.556V150H16.88ZM36.732 136.824H47.172V141.684H36.732V136.824ZM63.0255 150.504C58.9695 150.504 55.8735 149.376 53.7375 147.12C51.6255 144.864 50.5695 141.66 50.5695 137.508C50.5695 135.444 50.8935 133.608 51.5415 132C52.1895 130.368 53.0775 129 54.2055 127.896C55.3335 126.768 56.6775 125.916 58.2375 125.34C59.7975 124.764 61.4895 124.476 63.3135 124.476C64.3695 124.476 65.3295 124.56 66.1935 124.728C67.0575 124.872 67.8135 125.052 68.4615 125.268C69.1095 125.46 69.6495 125.664 70.0815 125.88C70.5135 126.096 70.8255 126.264 71.0175 126.384L69.3975 130.92C68.6295 130.512 67.7295 130.164 66.6975 129.876C65.6895 129.588 64.5375 129.444 63.2415 129.444C62.3775 129.444 61.5255 129.588 60.6855 129.876C59.8695 130.164 59.1375 130.632 58.4895 131.28C57.8655 131.904 57.3615 132.72 56.9775 133.728C56.5935 134.736 56.4015 135.96 56.4015 137.4C56.4015 138.552 56.5215 139.632 56.7615 140.64C57.0255 141.624 57.4335 142.476 57.9855 143.196C58.5615 143.916 59.3055 144.492 60.2175 144.924C61.1295 145.332 62.2335 145.536 63.5295 145.536C64.3455 145.536 65.0775 145.488 65.7255 145.392C66.3735 145.296 66.9495 145.188 67.4535 145.068C67.9575 144.924 68.4015 144.768 68.7855 144.6C69.1695 144.432 69.5175 144.276 69.8295 144.132L71.3775 148.632C70.5855 149.112 69.4695 149.544 68.0295 149.928C66.5895 150.312 64.9215 150.504 63.0255 150.504ZM91.9234 140.496C91.9234 141.984 91.7074 143.352 91.2754 144.6C90.8434 145.824 90.2194 146.88 89.4034 147.768C88.5874 148.632 87.6034 149.304 86.4514 149.784C85.3234 150.264 84.0514 150.504 82.6354 150.504C81.2434 150.504 79.9714 150.264 78.8194 149.784C77.6914 149.304 76.7194 148.632 75.9034 147.768C75.0874 146.88 74.4514 145.824 73.9954 144.6C73.5394 143.352 73.3114 141.984 73.3114 140.496C73.3114 139.008 73.5394 137.652 73.9954 136.428C74.4754 135.204 75.1234 134.16 75.9394 133.296C76.7794 132.432 77.7634 131.76 78.8914 131.28C80.0434 130.8 81.2914 130.56 82.6354 130.56C84.0034 130.56 85.2514 130.8 86.3794 131.28C87.5314 131.76 88.5154 132.432 89.3314 133.296C90.1474 134.16 90.7834 135.204 91.2394 136.428C91.6954 137.652 91.9234 139.008 91.9234 140.496ZM86.4514 140.496C86.4514 138.84 86.1154 137.544 85.4434 136.608C84.7954 135.648 83.8594 135.168 82.6354 135.168C81.4114 135.168 80.4634 135.648 79.7914 136.608C79.1194 137.544 78.7834 138.84 78.7834 140.496C78.7834 142.152 79.1194 143.472 79.7914 144.456C80.4634 145.416 81.4114 145.896 82.6354 145.896C83.8594 145.896 84.7954 145.416 85.4434 144.456C86.1154 143.472 86.4514 142.152 86.4514 140.496ZM106.483 139.956C106.483 138.228 106.255 137.004 105.799 136.284C105.367 135.564 104.611 135.204 103.531 135.204C103.195 135.204 102.847 135.228 102.487 135.276C102.127 135.3 101.779 135.336 101.443 135.384V150H96.0786V131.712C96.5346 131.592 97.0626 131.472 97.6626 131.352C98.2866 131.208 98.9346 131.088 99.6066 130.992C100.303 130.872 101.011 130.788 101.731 130.74C102.451 130.668 103.159 130.632 103.855 130.632C105.223 130.632 106.327 130.812 107.167 131.172C108.031 131.508 108.739 131.916 109.291 132.396C110.059 131.844 110.935 131.412 111.919 131.1C112.927 130.788 113.851 130.632 114.691 130.632C116.203 130.632 117.439 130.848 118.399 131.28C119.383 131.688 120.163 132.276 120.739 133.044C121.315 133.812 121.711 134.724 121.927 135.78C122.143 136.836 122.251 138.012 122.251 139.308V150H116.887V139.956C116.887 138.228 116.659 137.004 116.203 136.284C115.771 135.564 115.015 135.204 113.935 135.204C113.647 135.204 113.239 135.276 112.711 135.42C112.207 135.564 111.787 135.744 111.451 135.96C111.619 136.512 111.727 137.1 111.775 137.724C111.823 138.324 111.847 138.972 111.847 139.668V150H106.483V139.956ZM137.526 139.956C137.526 138.228 137.298 137.004 136.842 136.284C136.41 135.564 135.654 135.204 134.574 135.204C134.238 135.204 133.89 135.228 133.53 135.276C133.17 135.3 132.822 135.336 132.486 135.384V150H127.122V131.712C127.578 131.592 128.106 131.472 128.706 131.352C129.33 131.208 129.978 131.088 130.65 130.992C131.346 130.872 132.054 130.788 132.774 130.74C133.494 130.668 134.202 130.632 134.898 130.632C136.266 130.632 137.37 130.812 138.21 131.172C139.074 131.508 139.782 131.916 140.334 132.396C141.102 131.844 141.978 131.412 142.962 131.1C143.97 130.788 144.894 130.632 145.734 130.632C147.246 130.632 148.482 130.848 149.442 131.28C150.426 131.688 151.206 132.276 151.782 133.044C152.358 133.812 152.754 134.724 152.97 135.78C153.186 136.836 153.294 138.012 153.294 139.308V150H147.93V139.956C147.93 138.228 147.702 137.004 147.246 136.284C146.814 135.564 146.058 135.204 144.978 135.204C144.69 135.204 144.282 135.276 143.754 135.42C143.25 135.564 142.83 135.744 142.494 135.96C142.662 136.512 142.77 137.1 142.818 137.724C142.866 138.324 142.89 138.972 142.89 139.668V150H137.526V139.956ZM157.265 140.676C157.265 138.996 157.517 137.532 158.021 136.284C158.549 135.012 159.233 133.956 160.073 133.116C160.913 132.276 161.873 131.64 162.953 131.208C164.057 130.776 165.185 130.56 166.337 130.56C169.025 130.56 171.149 131.388 172.709 133.044C174.269 134.676 175.049 137.088 175.049 140.28C175.049 140.592 175.037 140.94 175.013 141.324C174.989 141.684 174.965 142.008 174.941 142.296H162.773C162.893 143.4 163.409 144.276 164.321 144.924C165.233 145.572 166.457 145.896 167.993 145.896C168.977 145.896 169.937 145.812 170.873 145.644C171.833 145.452 172.613 145.224 173.213 144.96L173.933 149.316C173.645 149.46 173.261 149.604 172.781 149.748C172.301 149.892 171.761 150.012 171.161 150.108C170.585 150.228 169.961 150.324 169.289 150.396C168.617 150.468 167.945 150.504 167.273 150.504C165.569 150.504 164.081 150.252 162.809 149.748C161.561 149.244 160.517 148.56 159.677 147.696C158.861 146.808 158.249 145.764 157.841 144.564C157.457 143.364 157.265 142.068 157.265 140.676ZM169.865 138.624C169.841 138.168 169.757 137.724 169.613 137.292C169.493 136.86 169.289 136.476 169.001 136.14C168.737 135.804 168.389 135.528 167.957 135.312C167.549 135.096 167.033 134.988 166.409 134.988C165.809 134.988 165.293 135.096 164.861 135.312C164.429 135.504 164.069 135.768 163.781 136.104C163.493 136.44 163.265 136.836 163.097 137.292C162.953 137.724 162.845 138.168 162.773 138.624H169.865ZM190.6 135.816C190.12 135.696 189.556 135.576 188.908 135.456C188.26 135.312 187.564 135.24 186.82 135.24C186.484 135.24 186.076 135.276 185.596 135.348C185.14 135.396 184.792 135.456 184.552 135.528V150H179.188V132.072C180.148 131.736 181.276 131.424 182.572 131.136C183.892 130.824 185.356 130.668 186.964 130.668C187.252 130.668 187.6 130.692 188.008 130.74C188.416 130.764 188.824 130.812 189.232 130.884C189.64 130.932 190.048 131.004 190.456 131.1C190.864 131.172 191.212 131.268 191.5 131.388L190.6 135.816ZM193.124 140.532C193.124 139.164 193.34 137.88 193.772 136.68C194.228 135.456 194.876 134.4 195.716 133.512C196.556 132.6 197.576 131.88 198.776 131.352C199.976 130.824 201.344 130.56 202.88 130.56C203.888 130.56 204.812 130.656 205.652 130.848C206.492 131.016 207.308 131.268 208.1 131.604L206.984 135.888C206.48 135.696 205.928 135.528 205.328 135.384C204.728 135.24 204.056 135.168 203.312 135.168C201.728 135.168 200.54 135.66 199.748 136.644C198.98 137.628 198.596 138.924 198.596 140.532C198.596 142.236 198.956 143.556 199.676 144.492C200.42 145.428 201.704 145.896 203.528 145.896C204.176 145.896 204.872 145.836 205.616 145.716C206.36 145.596 207.044 145.404 207.668 145.14L208.424 149.532C207.8 149.796 207.02 150.024 206.084 150.216C205.148 150.408 204.116 150.504 202.988 150.504C201.26 150.504 199.772 150.252 198.524 149.748C197.276 149.22 196.244 148.512 195.428 147.624C194.636 146.736 194.048 145.692 193.664 144.492C193.304 143.268 193.124 141.948 193.124 140.532ZM210.21 140.676C210.21 138.996 210.462 137.532 210.966 136.284C211.494 135.012 212.178 133.956 213.018 133.116C213.858 132.276 214.818 131.64 215.898 131.208C217.002 130.776 218.13 130.56 219.282 130.56C221.97 130.56 224.094 131.388 225.654 133.044C227.214 134.676 227.994 137.088 227.994 140.28C227.994 140.592 227.982 140.94 227.958 141.324C227.934 141.684 227.91 142.008 227.886 142.296H215.718C215.838 143.4 216.354 144.276 217.266 144.924C218.178 145.572 219.402 145.896 220.938 145.896C221.922 145.896 222.882 145.812 223.818 145.644C224.778 145.452 225.558 145.224 226.158 144.96L226.878 149.316C226.59 149.46 226.206 149.604 225.726 149.748C225.246 149.892 224.706 150.012 224.106 150.108C223.53 150.228 222.906 150.324 222.234 150.396C221.562 150.468 220.89 150.504 220.218 150.504C218.514 150.504 217.026 150.252 215.754 149.748C214.506 149.244 213.462 148.56 212.622 147.696C211.806 146.808 211.194 145.764 210.786 144.564C210.402 143.364 210.21 142.068 210.21 140.676ZM222.81 138.624C222.786 138.168 222.702 137.724 222.558 137.292C222.438 136.86 222.234 136.476 221.946 136.14C221.682 135.804 221.334 135.528 220.902 135.312C220.494 135.096 219.978 134.988 219.354 134.988C218.754 134.988 218.238 135.096 217.806 135.312C217.374 135.504 217.014 135.768 216.726 136.104C216.438 136.44 216.21 136.836 216.042 137.292C215.898 137.724 215.79 138.168 215.718 138.624H222.81ZM23.684 186.716C24.476 186.716 25.124 186.656 25.628 186.536C26.156 186.392 26.576 186.212 26.888 185.996C27.2 185.756 27.416 185.48 27.536 185.168C27.656 184.856 27.716 184.508 27.716 184.124C27.716 183.308 27.332 182.636 26.564 182.108C25.796 181.556 24.476 180.968 22.604 180.344C21.788 180.056 20.972 179.732 20.156 179.372C19.34 178.988 18.608 178.52 17.96 177.968C17.312 177.392 16.784 176.708 16.376 175.916C15.968 175.1 15.764 174.116 15.764 172.964C15.764 171.812 15.98 170.78 16.412 169.868C16.844 168.932 17.456 168.14 18.248 167.492C19.04 166.844 20 166.352 21.128 166.016C22.256 165.656 23.528 165.476 24.944 165.476C26.624 165.476 28.076 165.656 29.3 166.016C30.524 166.376 31.532 166.772 32.324 167.204L30.704 171.632C30.008 171.272 29.228 170.96 28.364 170.696C27.524 170.408 26.504 170.264 25.304 170.264C23.96 170.264 22.988 170.456 22.388 170.84C21.812 171.2 21.524 171.764 21.524 172.532C21.524 172.988 21.632 173.372 21.848 173.684C22.064 173.996 22.364 174.284 22.748 174.548C23.156 174.788 23.612 175.016 24.116 175.232C24.644 175.424 25.22 175.628 25.844 175.844C27.14 176.324 28.268 176.804 29.228 177.284C30.188 177.74 30.98 178.28 31.604 178.904C32.252 179.528 32.732 180.26 33.044 181.1C33.356 181.94 33.512 182.96 33.512 184.16C33.512 186.488 32.696 188.3 31.064 189.596C29.432 190.868 26.972 191.504 23.684 191.504C22.58 191.504 21.584 191.432 20.696 191.288C19.808 191.168 19.016 191.012 18.32 190.82C17.648 190.628 17.06 190.424 16.556 190.208C16.076 189.992 15.668 189.788 15.332 189.596L16.916 185.132C17.66 185.54 18.572 185.912 19.652 186.248C20.756 186.56 22.1 186.716 23.684 186.716ZM37.2931 167.348L42.6571 166.484V172.064H49.1011V176.528H42.6571V183.188C42.6571 184.316 42.8491 185.216 43.2331 185.888C43.6411 186.56 44.4451 186.896 45.6451 186.896C46.2211 186.896 46.8091 186.848 47.4091 186.752C48.0331 186.632 48.5971 186.476 49.1011 186.284L49.8571 190.46C49.2091 190.724 48.4891 190.952 47.6971 191.144C46.9051 191.336 45.9331 191.432 44.7811 191.432C43.3171 191.432 42.1051 191.24 41.1451 190.856C40.1851 190.448 39.4171 189.896 38.8411 189.2C38.2651 188.48 37.8571 187.616 37.6171 186.608C37.4011 185.6 37.2931 184.484 37.2931 183.26V167.348ZM70.4781 181.496C70.4781 182.984 70.2621 184.352 69.8301 185.6C69.3981 186.824 68.7741 187.88 67.9581 188.768C67.1421 189.632 66.1581 190.304 65.0061 190.784C63.8781 191.264 62.6061 191.504 61.1901 191.504C59.7981 191.504 58.5261 191.264 57.3741 190.784C56.2461 190.304 55.2741 189.632 54.4581 188.768C53.6421 187.88 53.0061 186.824 52.5501 185.6C52.0941 184.352 51.8661 182.984 51.8661 181.496C51.8661 180.008 52.0941 178.652 52.5501 177.428C53.0301 176.204 53.6781 175.16 54.4941 174.296C55.3341 173.432 56.3181 172.76 57.4461 172.28C58.5981 171.8 59.8461 171.56 61.1901 171.56C62.5581 171.56 63.8061 171.8 64.9341 172.28C66.0861 172.76 67.0701 173.432 67.8861 174.296C68.7021 175.16 69.3381 176.204 69.7941 177.428C70.2501 178.652 70.4781 180.008 70.4781 181.496ZM65.0061 181.496C65.0061 179.84 64.6701 178.544 63.9981 177.608C63.3501 176.648 62.4141 176.168 61.1901 176.168C59.9661 176.168 59.0181 176.648 58.3461 177.608C57.6741 178.544 57.3381 179.84 57.3381 181.496C57.3381 183.152 57.6741 184.472 58.3461 185.456C59.0181 186.416 59.9661 186.896 61.1901 186.896C62.4141 186.896 63.3501 186.416 63.9981 185.456C64.6701 184.472 65.0061 183.152 65.0061 181.496ZM86.0453 176.816C85.5653 176.696 85.0013 176.576 84.3533 176.456C83.7053 176.312 83.0093 176.24 82.2653 176.24C81.9293 176.24 81.5213 176.276 81.0413 176.348C80.5853 176.396 80.2373 176.456 79.9973 176.528V191H74.6333V173.072C75.5933 172.736 76.7213 172.424 78.0173 172.136C79.3373 171.824 80.8013 171.668 82.4093 171.668C82.6973 171.668 83.0453 171.692 83.4533 171.74C83.8613 171.764 84.2693 171.812 84.6773 171.884C85.0853 171.932 85.4933 172.004 85.9013 172.1C86.3093 172.172 86.6573 172.268 86.9453 172.388L86.0453 176.816ZM88.5692 181.676C88.5692 179.996 88.8212 178.532 89.3252 177.284C89.8532 176.012 90.5372 174.956 91.3772 174.116C92.2172 173.276 93.1772 172.64 94.2572 172.208C95.3612 171.776 96.4892 171.56 97.6412 171.56C100.329 171.56 102.453 172.388 104.013 174.044C105.573 175.676 106.353 178.088 106.353 181.28C106.353 181.592 106.341 181.94 106.317 182.324C106.293 182.684 106.269 183.008 106.245 183.296H94.0772C94.1972 184.4 94.7132 185.276 95.6252 185.924C96.5372 186.572 97.7612 186.896 99.2972 186.896C100.281 186.896 101.241 186.812 102.177 186.644C103.137 186.452 103.917 186.224 104.517 185.96L105.237 190.316C104.949 190.46 104.565 190.604 104.085 190.748C103.605 190.892 103.065 191.012 102.465 191.108C101.889 191.228 101.265 191.324 100.593 191.396C99.9212 191.468 99.2492 191.504 98.5772 191.504C96.8732 191.504 95.3852 191.252 94.1132 190.748C92.8652 190.244 91.8212 189.56 90.9812 188.696C90.1652 187.808 89.5532 186.764 89.1452 185.564C88.7612 184.364 88.5692 183.068 88.5692 181.676ZM101.169 179.624C101.145 179.168 101.061 178.724 100.917 178.292C100.797 177.86 100.593 177.476 100.305 177.14C100.041 176.804 99.6932 176.528 99.2612 176.312C98.8532 176.096 98.3372 175.988 97.7132 175.988C97.1132 175.988 96.5972 176.096 96.1652 176.312C95.7332 176.504 95.3732 176.768 95.0852 177.104C94.7972 177.44 94.5692 177.836 94.4012 178.292C94.2572 178.724 94.1492 179.168 94.0772 179.624H101.169ZM130.661 180.128C130.181 181.952 129.665 183.764 129.113 185.564C128.585 187.364 128.021 189.176 127.421 191H123.245C122.813 189.992 122.345 188.792 121.841 187.4C121.337 186.008 120.809 184.496 120.257 182.864C119.729 181.208 119.177 179.468 118.601 177.644C118.049 175.796 117.509 173.936 116.981 172.064H122.633C122.825 172.928 123.029 173.876 123.245 174.908C123.485 175.916 123.725 176.96 123.965 178.04C124.229 179.12 124.493 180.212 124.757 181.316C125.045 182.396 125.333 183.44 125.621 184.448C125.933 183.392 126.233 182.312 126.521 181.208C126.833 180.104 127.121 179.024 127.385 177.968C127.673 176.888 127.937 175.856 128.177 174.872C128.441 173.864 128.669 172.928 128.861 172.064H132.749C132.941 172.928 133.157 173.864 133.397 174.872C133.637 175.856 133.889 176.888 134.153 177.968C134.417 179.024 134.693 180.104 134.981 181.208C135.269 182.312 135.569 183.392 135.881 184.448C136.169 183.44 136.457 182.396 136.745 181.316C137.033 180.212 137.297 179.12 137.537 178.04C137.801 176.96 138.041 175.916 138.257 174.908C138.497 173.876 138.713 172.928 138.905 172.064H144.485C143.957 173.936 143.405 175.796 142.829 177.644C142.277 179.468 141.725 181.208 141.173 182.864C140.645 184.496 140.117 186.008 139.589 187.4C139.085 188.792 138.617 189.992 138.185 191H134.009C133.409 189.176 132.821 187.364 132.245 185.564C131.669 183.764 131.141 181.952 130.661 180.128ZM152.736 191H147.372V172.064H152.736V191ZM153.24 166.592C153.24 167.576 152.916 168.356 152.268 168.932C151.644 169.484 150.9 169.76 150.036 169.76C149.172 169.76 148.416 169.484 147.768 168.932C147.144 168.356 146.832 167.576 146.832 166.592C146.832 165.608 147.144 164.84 147.768 164.288C148.416 163.712 149.172 163.424 150.036 163.424C150.9 163.424 151.644 163.712 152.268 164.288C152.916 164.84 153.24 165.608 153.24 166.592ZM157.598 167.348L162.962 166.484V172.064H169.406V176.528H162.962V183.188C162.962 184.316 163.154 185.216 163.538 185.888C163.946 186.56 164.75 186.896 165.95 186.896C166.526 186.896 167.114 186.848 167.714 186.752C168.338 186.632 168.902 186.476 169.406 186.284L170.162 190.46C169.514 190.724 168.794 190.952 168.002 191.144C167.21 191.336 166.238 191.432 165.086 191.432C163.622 191.432 162.41 191.24 161.45 190.856C160.49 190.448 159.722 189.896 159.146 189.2C158.57 188.48 158.162 187.616 157.922 186.608C157.706 185.6 157.598 184.484 157.598 183.26V167.348ZM173.774 191V163.928L179.138 163.064V172.136C179.498 172.016 179.954 171.908 180.506 171.812C181.082 171.692 181.634 171.632 182.162 171.632C183.698 171.632 184.97 171.848 185.978 172.28C187.01 172.688 187.826 173.276 188.426 174.044C189.05 174.812 189.482 175.724 189.722 176.78C189.986 177.836 190.118 179.012 190.118 180.308V191H184.754V180.956C184.754 179.228 184.526 178.004 184.07 177.284C183.638 176.564 182.822 176.204 181.622 176.204C181.142 176.204 180.686 176.252 180.254 176.348C179.846 176.42 179.474 176.504 179.138 176.6V191H173.774ZM24.368 206.764C28.088 206.764 30.944 207.424 32.936 208.744C34.928 210.04 35.924 212.176 35.924 215.152C35.924 218.152 34.916 220.324 32.9 221.668C30.884 222.988 28.004 223.648 24.26 223.648H22.496V232H16.88V207.412C18.104 207.172 19.4 207.004 20.768 206.908C22.136 206.812 23.336 206.764 24.368 206.764ZM24.728 211.552C24.32 211.552 23.912 211.564 23.504 211.588C23.12 211.612 22.784 211.636 22.496 211.66V218.86H24.26C26.204 218.86 27.668 218.596 28.652 218.068C29.636 217.54 30.128 216.556 30.128 215.116C30.128 214.42 29.996 213.844 29.732 213.388C29.492 212.932 29.132 212.572 28.652 212.308C28.196 212.02 27.632 211.828 26.96 211.732C26.288 211.612 25.544 211.552 24.728 211.552ZM46.2208 228.256C46.7488 228.256 47.2528 228.244 47.7328 228.22C48.2128 228.196 48.5968 228.16 48.8848 228.112V224.044C48.6688 223.996 48.3448 223.948 47.9128 223.9C47.4808 223.852 47.0848 223.828 46.7248 223.828C46.2208 223.828 45.7408 223.864 45.2848 223.936C44.8528 223.984 44.4688 224.092 44.1328 224.26C43.7968 224.428 43.5328 224.656 43.3408 224.944C43.1488 225.232 43.0528 225.592 43.0528 226.024C43.0528 226.864 43.3288 227.452 43.8808 227.788C44.4568 228.1 45.2368 228.256 46.2208 228.256ZM45.7888 212.56C47.3728 212.56 48.6928 212.74 49.7488 213.1C50.8048 213.46 51.6448 213.976 52.2688 214.648C52.9168 215.32 53.3728 216.136 53.6368 217.096C53.9008 218.056 54.0328 219.124 54.0328 220.3V231.46C53.2648 231.628 52.1968 231.82 50.8288 232.036C49.4608 232.276 47.8048 232.396 45.8608 232.396C44.6368 232.396 43.5208 232.288 42.5128 232.072C41.5288 231.856 40.6768 231.508 39.9568 231.028C39.2368 230.524 38.6848 229.876 38.3008 229.084C37.9168 228.292 37.7248 227.32 37.7248 226.168C37.7248 225.064 37.9408 224.128 38.3728 223.36C38.8288 222.592 39.4288 221.98 40.1728 221.524C40.9168 221.068 41.7688 220.744 42.7288 220.552C43.6888 220.336 44.6848 220.228 45.7168 220.228C46.4128 220.228 47.0248 220.264 47.5528 220.336C48.1048 220.384 48.5488 220.456 48.8848 220.552V220.048C48.8848 219.136 48.6088 218.404 48.0568 217.852C47.5048 217.3 46.5448 217.024 45.1768 217.024C44.2648 217.024 43.3648 217.096 42.4768 217.24C41.5888 217.36 40.8208 217.54 40.1728 217.78L39.4888 213.46C39.8008 213.364 40.1848 213.268 40.6408 213.172C41.1208 213.052 41.6368 212.956 42.1888 212.884C42.7408 212.788 43.3168 212.716 43.9168 212.668C44.5408 212.596 45.1648 212.56 45.7888 212.56ZM75.2383 213.064C74.1583 216.712 73.0303 220.132 71.8543 223.324C70.6783 226.516 69.3943 229.612 68.0023 232.612C67.4983 233.692 66.9943 234.604 66.4902 235.348C65.9863 236.116 65.4343 236.74 64.8343 237.22C64.2343 237.724 63.5503 238.084 62.7823 238.3C62.0383 238.54 61.1623 238.66 60.1543 238.66C59.3143 238.66 58.5343 238.576 57.8143 238.408C57.1183 238.264 56.5423 238.096 56.0863 237.904L57.0223 233.62C57.5743 233.812 58.0663 233.944 58.4983 234.016C58.9303 234.088 59.3863 234.124 59.8663 234.124C60.8263 234.124 61.5583 233.86 62.0623 233.332C62.5903 232.828 63.0343 232.12 63.3943 231.208C62.1703 228.808 60.9463 226.12 59.7223 223.144C58.4983 220.144 57.3463 216.784 56.2663 213.064H61.9543C62.1943 214 62.4703 215.02 62.7823 216.124C63.1183 217.204 63.4663 218.308 63.8263 219.436C64.1863 220.54 64.5463 221.62 64.9062 222.676C65.2903 223.732 65.6503 224.692 65.9863 225.556C66.2983 224.692 66.6223 223.732 66.9583 222.676C67.2943 221.62 67.6183 220.54 67.9303 219.436C68.2663 218.308 68.5783 217.204 68.8663 216.124C69.1783 215.02 69.4543 214 69.6943 213.064H75.2383ZM84.9982 228.256C85.5262 228.256 86.0302 228.244 86.5102 228.22C86.9902 228.196 87.3742 228.16 87.6622 228.112V224.044C87.4462 223.996 87.1222 223.948 86.6902 223.9C86.2582 223.852 85.8622 223.828 85.5022 223.828C84.9982 223.828 84.5182 223.864 84.0622 223.936C83.6302 223.984 83.2462 224.092 82.9102 224.26C82.5742 224.428 82.3102 224.656 82.1182 224.944C81.9262 225.232 81.8302 225.592 81.8302 226.024C81.8302 226.864 82.1062 227.452 82.6582 227.788C83.2342 228.1 84.0142 228.256 84.9982 228.256ZM84.5662 212.56C86.1502 212.56 87.4702 212.74 88.5262 213.1C89.5822 213.46 90.4222 213.976 91.0462 214.648C91.6942 215.32 92.1502 216.136 92.4142 217.096C92.6782 218.056 92.8102 219.124 92.8102 220.3V231.46C92.0422 231.628 90.9742 231.82 89.6062 232.036C88.2382 232.276 86.5822 232.396 84.6382 232.396C83.4142 232.396 82.2982 232.288 81.2902 232.072C80.3062 231.856 79.4542 231.508 78.7342 231.028C78.0142 230.524 77.4622 229.876 77.0782 229.084C76.6942 228.292 76.5022 227.32 76.5022 226.168C76.5022 225.064 76.7182 224.128 77.1502 223.36C77.6062 222.592 78.2062 221.98 78.9502 221.524C79.6942 221.068 80.5462 220.744 81.5062 220.552C82.4662 220.336 83.4622 220.228 84.4942 220.228C85.1902 220.228 85.8022 220.264 86.3302 220.336C86.8822 220.384 87.3262 220.456 87.6622 220.552V220.048C87.6622 219.136 87.3862 218.404 86.8342 217.852C86.2822 217.3 85.3222 217.024 83.9542 217.024C83.0422 217.024 82.1422 217.096 81.2542 217.24C80.3662 217.36 79.5982 217.54 78.9502 217.78L78.2662 213.46C78.5782 213.364 78.9622 213.268 79.4182 213.172C79.8982 213.052 80.4142 212.956 80.9662 212.884C81.5182 212.788 82.0942 212.716 82.6942 212.668C83.3182 212.596 83.9422 212.56 84.5662 212.56ZM109.793 222.676C109.793 221.02 109.421 219.7 108.677 218.716C107.933 217.708 106.829 217.204 105.365 217.204C104.885 217.204 104.441 217.228 104.033 217.276C103.625 217.3 103.289 217.336 103.025 217.384V227.068C103.361 227.284 103.793 227.464 104.321 227.608C104.873 227.752 105.425 227.824 105.977 227.824C108.521 227.824 109.793 226.108 109.793 222.676ZM115.265 222.532C115.265 223.996 115.085 225.328 114.725 226.528C114.365 227.728 113.837 228.76 113.141 229.624C112.445 230.488 111.581 231.16 110.549 231.64C109.517 232.12 108.329 232.36 106.985 232.36C106.241 232.36 105.545 232.288 104.897 232.144C104.249 232 103.625 231.796 103.025 231.532V238.66H97.6606V213.712C98.1406 213.568 98.6926 213.436 99.3166 213.316C99.9406 213.172 100.589 213.052 101.261 212.956C101.957 212.86 102.653 212.788 103.349 212.74C104.069 212.668 104.753 212.632 105.401 212.632C106.961 212.632 108.353 212.872 109.577 213.352C110.801 213.808 111.833 214.468 112.673 215.332C113.513 216.172 114.149 217.204 114.581 218.428C115.037 219.652 115.265 221.02 115.265 222.532ZM126.947 232.36C125.387 232.336 124.115 232.168 123.131 231.856C122.171 231.544 121.403 231.112 120.827 230.56C120.275 229.984 119.891 229.3 119.675 228.508C119.483 227.692 119.387 226.78 119.387 225.772V204.928L124.751 204.064V224.692C124.751 225.172 124.787 225.604 124.859 225.988C124.931 226.372 125.063 226.696 125.255 226.96C125.471 227.224 125.771 227.44 126.155 227.608C126.539 227.776 127.055 227.884 127.703 227.932L126.947 232.36ZM151.954 211.372C149.338 211.372 147.442 212.104 146.266 213.568C145.114 215.008 144.538 216.988 144.538 219.508C144.538 220.732 144.682 221.848 144.97 222.856C145.258 223.84 145.69 224.692 146.266 225.412C146.842 226.132 147.562 226.696 148.426 227.104C149.29 227.488 150.298 227.68 151.45 227.68C152.074 227.68 152.602 227.668 153.034 227.644C153.49 227.62 153.886 227.572 154.222 227.5V218.824H159.838V231.172C159.166 231.436 158.086 231.712 156.598 232C155.11 232.312 153.274 232.468 151.09 232.468C149.218 232.468 147.514 232.18 145.978 231.604C144.466 231.028 143.17 230.188 142.09 229.084C141.01 227.98 140.17 226.624 139.57 225.016C138.994 223.408 138.706 221.572 138.706 219.508C138.706 217.42 139.03 215.572 139.678 213.964C140.326 212.356 141.214 211 142.342 209.896C143.47 208.768 144.79 207.916 146.302 207.34C147.838 206.764 149.47 206.476 151.198 206.476C152.374 206.476 153.43 206.56 154.366 206.728C155.326 206.872 156.142 207.052 156.814 207.268C157.51 207.46 158.074 207.664 158.506 207.88C158.962 208.096 159.286 208.264 159.478 208.384L157.858 212.884C157.09 212.476 156.202 212.128 155.194 211.84C154.21 211.528 153.13 211.372 151.954 211.372ZM171.94 228.256C172.468 228.256 172.972 228.244 173.452 228.22C173.932 228.196 174.316 228.16 174.604 228.112V224.044C174.388 223.996 174.064 223.948 173.632 223.9C173.2 223.852 172.804 223.828 172.444 223.828C171.94 223.828 171.46 223.864 171.004 223.936C170.572 223.984 170.188 224.092 169.852 224.26C169.516 224.428 169.252 224.656 169.06 224.944C168.868 225.232 168.772 225.592 168.772 226.024C168.772 226.864 169.048 227.452 169.6 227.788C170.176 228.1 170.956 228.256 171.94 228.256ZM171.508 212.56C173.092 212.56 174.412 212.74 175.468 213.1C176.524 213.46 177.364 213.976 177.988 214.648C178.636 215.32 179.092 216.136 179.356 217.096C179.62 218.056 179.752 219.124 179.752 220.3V231.46C178.984 231.628 177.916 231.82 176.548 232.036C175.18 232.276 173.524 232.396 171.58 232.396C170.356 232.396 169.24 232.288 168.232 232.072C167.248 231.856 166.396 231.508 165.676 231.028C164.956 230.524 164.404 229.876 164.02 229.084C163.636 228.292 163.444 227.32 163.444 226.168C163.444 225.064 163.66 224.128 164.092 223.36C164.548 222.592 165.148 221.98 165.892 221.524C166.636 221.068 167.488 220.744 168.448 220.552C169.408 220.336 170.404 220.228 171.436 220.228C172.132 220.228 172.744 220.264 173.272 220.336C173.824 220.384 174.268 220.456 174.604 220.552V220.048C174.604 219.136 174.328 218.404 173.776 217.852C173.224 217.3 172.264 217.024 170.896 217.024C169.984 217.024 169.084 217.096 168.196 217.24C167.308 217.36 166.54 217.54 165.892 217.78L165.208 213.46C165.52 213.364 165.904 213.268 166.36 213.172C166.84 213.052 167.356 212.956 167.908 212.884C168.46 212.788 169.036 212.716 169.636 212.668C170.26 212.596 170.884 212.56 171.508 212.56ZM184.422 208.348L189.786 207.484V213.064H196.23V217.528H189.786V224.188C189.786 225.316 189.978 226.216 190.362 226.888C190.77 227.56 191.574 227.896 192.774 227.896C193.35 227.896 193.938 227.848 194.538 227.752C195.162 227.632 195.726 227.476 196.23 227.284L196.986 231.46C196.338 231.724 195.618 231.952 194.826 232.144C194.034 232.336 193.062 232.432 191.91 232.432C190.446 232.432 189.234 232.24 188.274 231.856C187.314 231.448 186.546 230.896 185.97 230.2C185.394 229.48 184.986 228.616 184.746 227.608C184.53 226.6 184.422 225.484 184.422 224.26V208.348ZM198.995 222.676C198.995 220.996 199.247 219.532 199.751 218.284C200.279 217.012 200.963 215.956 201.803 215.116C202.643 214.276 203.603 213.64 204.683 213.208C205.787 212.776 206.915 212.56 208.067 212.56C210.755 212.56 212.879 213.388 214.439 215.044C215.999 216.676 216.779 219.088 216.779 222.28C216.779 222.592 216.767 222.94 216.743 223.324C216.719 223.684 216.695 224.008 216.671 224.296H204.503C204.623 225.4 205.139 226.276 206.051 226.924C206.963 227.572 208.187 227.896 209.723 227.896C210.707 227.896 211.667 227.812 212.603 227.644C213.563 227.452 214.343 227.224 214.943 226.96L215.663 231.316C215.375 231.46 214.991 231.604 214.511 231.748C214.031 231.892 213.491 232.012 212.891 232.108C212.315 232.228 211.691 232.324 211.019 232.396C210.347 232.468 209.675 232.504 209.003 232.504C207.299 232.504 205.811 232.252 204.539 231.748C203.291 231.244 202.247 230.56 201.407 229.696C200.591 228.808 199.979 227.764 199.571 226.564C199.187 225.364 198.995 224.068 198.995 222.676ZM211.595 220.624C211.571 220.168 211.487 219.724 211.343 219.292C211.223 218.86 211.019 218.476 210.731 218.14C210.467 217.804 210.119 217.528 209.687 217.312C209.279 217.096 208.763 216.988 208.139 216.988C207.539 216.988 207.023 217.096 206.591 217.312C206.159 217.504 205.799 217.768 205.511 218.104C205.223 218.44 204.995 218.836 204.827 219.292C204.683 219.724 204.575 220.168 204.503 220.624H211.595ZM232.438 221.128C231.958 222.952 231.442 224.764 230.89 226.564C230.362 228.364 229.798 230.176 229.198 232H225.022C224.59 230.992 224.122 229.792 223.618 228.4C223.114 227.008 222.586 225.496 222.034 223.864C221.506 222.208 220.954 220.468 220.378 218.644C219.826 216.796 219.286 214.936 218.758 213.064H224.41C224.602 213.928 224.806 214.876 225.022 215.908C225.262 216.916 225.502 217.96 225.742 219.04C226.006 220.12 226.27 221.212 226.534 222.316C226.822 223.396 227.11 224.44 227.398 225.448C227.71 224.392 228.01 223.312 228.298 222.208C228.61 221.104 228.898 220.024 229.162 218.968C229.45 217.888 229.714 216.856 229.954 215.872C230.218 214.864 230.446 213.928 230.638 213.064H234.526C234.718 213.928 234.934 214.864 235.174 215.872C235.414 216.856 235.666 217.888 235.93 218.968C236.194 220.024 236.47 221.104 236.758 222.208C237.046 223.312 237.346 224.392 237.658 225.448C237.946 224.44 238.234 223.396 238.522 222.316C238.81 221.212 239.074 220.12 239.314 219.04C239.578 217.96 239.818 216.916 240.034 215.908C240.274 214.876 240.49 213.928 240.682 213.064H246.262C245.734 214.936 245.182 216.796 244.606 218.644C244.054 220.468 243.502 222.208 242.95 223.864C242.422 225.496 241.894 227.008 241.366 228.4C240.862 229.792 240.394 230.992 239.962 232H235.786C235.186 230.176 234.598 228.364 234.022 226.564C233.446 224.764 232.918 222.952 232.438 221.128ZM256.033 228.256C256.561 228.256 257.065 228.244 257.545 228.22C258.025 228.196 258.409 228.16 258.697 228.112V224.044C258.481 223.996 258.157 223.948 257.725 223.9C257.293 223.852 256.897 223.828 256.537 223.828C256.033 223.828 255.553 223.864 255.097 223.936C254.665 223.984 254.281 224.092 253.945 224.26C253.609 224.428 253.345 224.656 253.153 224.944C252.961 225.232 252.865 225.592 252.865 226.024C252.865 226.864 253.141 227.452 253.693 227.788C254.269 228.1 255.049 228.256 256.033 228.256ZM255.601 212.56C257.185 212.56 258.505 212.74 259.561 213.1C260.617 213.46 261.457 213.976 262.081 214.648C262.729 215.32 263.185 216.136 263.449 217.096C263.713 218.056 263.845 219.124 263.845 220.3V231.46C263.077 231.628 262.009 231.82 260.641 232.036C259.273 232.276 257.617 232.396 255.673 232.396C254.449 232.396 253.333 232.288 252.325 232.072C251.341 231.856 250.489 231.508 249.769 231.028C249.049 230.524 248.497 229.876 248.113 229.084C247.729 228.292 247.537 227.32 247.537 226.168C247.537 225.064 247.753 224.128 248.185 223.36C248.641 222.592 249.241 221.98 249.985 221.524C250.729 221.068 251.581 220.744 252.541 220.552C253.501 220.336 254.497 220.228 255.529 220.228C256.225 220.228 256.837 220.264 257.365 220.336C257.917 220.384 258.361 220.456 258.697 220.552V220.048C258.697 219.136 258.421 218.404 257.869 217.852C257.317 217.3 256.357 217.024 254.989 217.024C254.077 217.024 253.177 217.096 252.289 217.24C251.401 217.36 250.633 217.54 249.985 217.78L249.301 213.46C249.613 213.364 249.997 213.268 250.453 213.172C250.933 213.052 251.449 212.956 252.001 212.884C252.553 212.788 253.129 212.716 253.729 212.668C254.353 212.596 254.977 212.56 255.601 212.56ZM285.051 213.064C283.971 216.712 282.843 220.132 281.667 223.324C280.491 226.516 279.207 229.612 277.815 232.612C277.311 233.692 276.807 234.604 276.303 235.348C275.799 236.116 275.247 236.74 274.647 237.22C274.047 237.724 273.363 238.084 272.595 238.3C271.851 238.54 270.975 238.66 269.967 238.66C269.127 238.66 268.347 238.576 267.627 238.408C266.931 238.264 266.355 238.096 265.899 237.904L266.835 233.62C267.387 233.812 267.879 233.944 268.311 234.016C268.743 234.088 269.199 234.124 269.679 234.124C270.639 234.124 271.371 233.86 271.875 233.332C272.403 232.828 272.847 232.12 273.207 231.208C271.983 228.808 270.759 226.12 269.535 223.144C268.311 220.144 267.159 216.784 266.079 213.064H271.767C272.007 214 272.283 215.02 272.595 216.124C272.931 217.204 273.279 218.308 273.639 219.436C273.999 220.54 274.359 221.62 274.719 222.676C275.103 223.732 275.463 224.692 275.799 225.556C276.111 224.692 276.435 223.732 276.771 222.676C277.107 221.62 277.431 220.54 277.743 219.436C278.079 218.308 278.391 217.204 278.679 216.124C278.991 215.02 279.267 214 279.507 213.064H285.051Z" fill="white"/>
<defs>
<linearGradient id="paint0_linear" x1="150" y1="0" x2="150" y2="300" gradientUnits="userSpaceOnUse">
<stop stop-color="#0C1992"/>
<stop offset="1" stop-color="#0C1992" stop-opacity="0"/>
</linearGradient>
</defs>
</svg>
