<svg width="300" height="300" viewBox="0 0 300 300" fill="none" xmlns="http://www.w3.org/2000/svg">
<rect width="300" height="300" fill="url(#paint0_linear)"/>
<path d="M29.504 67.052C29.936 67.844 30.428 68.828 30.98 70.004C31.556 71.156 32.144 72.416 32.744 73.784C33.368 75.128 33.98 76.508 34.58 77.924C35.18 79.34 35.744 80.672 36.272 81.92C36.8 80.672 37.364 79.34 37.964 77.924C38.564 76.508 39.164 75.128 39.764 73.784C40.388 72.416 40.976 71.156 41.528 70.004C42.104 68.828 42.608 67.844 43.04 67.052H48.152C48.392 68.708 48.608 70.568 48.8 72.632C49.016 74.672 49.196 76.808 49.34 79.04C49.508 81.248 49.652 83.468 49.772 85.7C49.916 87.932 50.036 90.032 50.132 92H44.66C44.588 89.576 44.492 86.936 44.372 84.08C44.252 81.224 44.072 78.344 43.832 75.44C43.4 76.448 42.92 77.564 42.392 78.788C41.864 80.012 41.336 81.236 40.808 82.46C40.304 83.684 39.812 84.86 39.332 85.988C38.852 87.092 38.444 88.04 38.108 88.832H34.184C33.848 88.04 33.44 87.092 32.96 85.988C32.48 84.86 31.976 83.684 31.448 82.46C30.944 81.236 30.428 80.012 29.9 78.788C29.372 77.564 28.892 76.448 28.46 75.44C28.22 78.344 28.04 81.224 27.92 84.08C27.8 86.936 27.704 89.576 27.632 92H22.16C22.256 90.032 22.364 87.932 22.484 85.7C22.628 83.468 22.772 81.248 22.916 79.04C23.084 76.808 23.264 74.672 23.456 72.632C23.672 70.568 23.9 68.708 24.14 67.052H29.504ZM55.1886 92V67.052H72.0366V71.768H60.8046V76.664H70.7766V81.272H60.8046V87.284H72.8646V92H55.1886ZM84.3286 66.764C88.0726 66.764 90.9406 67.436 92.9326 68.78C94.9246 70.1 95.9206 72.164 95.9206 74.972C95.9206 76.724 95.5126 78.152 94.6966 79.256C93.9046 80.336 92.7526 81.188 91.2406 81.812C91.7446 82.436 92.2726 83.156 92.8246 83.972C93.3766 84.764 93.9166 85.604 94.4446 86.492C94.9966 87.356 95.5246 88.268 96.0286 89.228C96.5326 90.164 97.0006 91.088 97.4326 92H91.1326C90.6766 91.184 90.2086 90.356 89.7286 89.516C89.2726 88.676 88.7926 87.86 88.2886 87.068C87.8086 86.276 87.3286 85.532 86.8486 84.836C86.3686 84.116 85.8886 83.468 85.4086 82.892H82.6366V92H77.0206V67.412C78.2446 67.172 79.5046 67.004 80.8006 66.908C82.1206 66.812 83.2966 66.764 84.3286 66.764ZM84.6526 71.552C84.2446 71.552 83.8726 71.564 83.5366 71.588C83.2246 71.612 82.9246 71.636 82.6366 71.66V78.428H84.2206C86.3326 78.428 87.8446 78.164 88.7566 77.636C89.6686 77.108 90.1246 76.208 90.1246 74.936C90.1246 73.712 89.6566 72.848 88.7206 72.344C87.8086 71.816 86.4526 71.552 84.6526 71.552ZM117.772 92C116.164 89.144 114.424 86.324 112.552 83.54C110.68 80.756 108.688 78.128 106.576 75.656V92H101.032V67.052H105.604C106.396 67.844 107.272 68.816 108.232 69.968C109.192 71.12 110.164 72.356 111.148 73.676C112.156 74.972 113.152 76.328 114.136 77.744C115.12 79.136 116.044 80.48 116.908 81.776V67.052H122.488V92H117.772ZM143.696 87.716C144.488 87.716 145.136 87.656 145.64 87.536C146.168 87.392 146.588 87.212 146.9 86.996C147.212 86.756 147.428 86.48 147.548 86.168C147.668 85.856 147.728 85.508 147.728 85.124C147.728 84.308 147.344 83.636 146.576 83.108C145.808 82.556 144.488 81.968 142.616 81.344C141.8 81.056 140.984 80.732 140.168 80.372C139.352 79.988 138.62 79.52 137.972 78.968C137.324 78.392 136.796 77.708 136.388 76.916C135.98 76.1 135.776 75.116 135.776 73.964C135.776 72.812 135.992 71.78 136.424 70.868C136.856 69.932 137.468 69.14 138.26 68.492C139.052 67.844 140.012 67.352 141.14 67.016C142.268 66.656 143.54 66.476 144.956 66.476C146.636 66.476 148.088 66.656 149.312 67.016C150.536 67.376 151.544 67.772 152.336 68.204L150.716 72.632C150.02 72.272 149.24 71.96 148.376 71.696C147.536 71.408 146.516 71.264 145.316 71.264C143.972 71.264 143 71.456 142.4 71.84C141.824 72.2 141.536 72.764 141.536 73.532C141.536 73.988 141.644 74.372 141.86 74.684C142.076 74.996 142.376 75.284 142.76 75.548C143.168 75.788 143.624 76.016 144.128 76.232C144.656 76.424 145.232 76.628 145.856 76.844C147.152 77.324 148.28 77.804 149.24 78.284C150.2 78.74 150.992 79.28 151.616 79.904C152.264 80.528 152.744 81.26 153.056 82.1C153.368 82.94 153.524 83.96 153.524 85.16C153.524 87.488 152.708 89.3 151.076 90.596C149.444 91.868 146.984 92.504 143.696 92.504C142.592 92.504 141.596 92.432 140.708 92.288C139.82 92.168 139.028 92.012 138.332 91.82C137.66 91.628 137.072 91.424 136.568 91.208C136.088 90.992 135.68 90.788 135.344 90.596L136.928 86.132C137.672 86.54 138.584 86.912 139.664 87.248C140.768 87.56 142.112 87.716 143.696 87.716ZM157.305 68.348L162.669 67.484V73.064H169.113V77.528H162.669V84.188C162.669 85.316 162.861 86.216 163.245 86.888C163.653 87.56 164.457 87.896 165.657 87.896C166.233 87.896 166.821 87.848 167.421 87.752C168.045 87.632 168.609 87.476 169.113 87.284L169.869 91.46C169.221 91.724 168.501 91.952 167.709 92.144C166.917 92.336 165.945 92.432 164.793 92.432C163.329 92.432 162.117 92.24 161.157 91.856C160.197 91.448 159.429 90.896 158.853 90.2C158.277 89.48 157.869 88.616 157.629 87.608C157.413 86.6 157.305 85.484 157.305 84.26V68.348ZM180.014 88.256C180.542 88.256 181.046 88.244 181.526 88.22C182.006 88.196 182.39 88.16 182.678 88.112V84.044C182.462 83.996 182.138 83.948 181.706 83.9C181.274 83.852 180.878 83.828 180.518 83.828C180.014 83.828 179.534 83.864 179.078 83.936C178.646 83.984 178.262 84.092 177.926 84.26C177.59 84.428 177.326 84.656 177.134 84.944C176.942 85.232 176.846 85.592 176.846 86.024C176.846 86.864 177.122 87.452 177.674 87.788C178.25 88.1 179.03 88.256 180.014 88.256ZM179.582 72.56C181.166 72.56 182.486 72.74 183.542 73.1C184.598 73.46 185.438 73.976 186.062 74.648C186.71 75.32 187.166 76.136 187.43 77.096C187.694 78.056 187.826 79.124 187.826 80.3V91.46C187.058 91.628 185.99 91.82 184.622 92.036C183.254 92.276 181.598 92.396 179.654 92.396C178.43 92.396 177.314 92.288 176.306 92.072C175.322 91.856 174.47 91.508 173.75 91.028C173.03 90.524 172.478 89.876 172.094 89.084C171.71 88.292 171.518 87.32 171.518 86.168C171.518 85.064 171.734 84.128 172.166 83.36C172.622 82.592 173.222 81.98 173.966 81.524C174.71 81.068 175.562 80.744 176.522 80.552C177.482 80.336 178.478 80.228 179.51 80.228C180.206 80.228 180.818 80.264 181.346 80.336C181.898 80.384 182.342 80.456 182.678 80.552V80.048C182.678 79.136 182.402 78.404 181.85 77.852C181.298 77.3 180.338 77.024 178.97 77.024C178.058 77.024 177.158 77.096 176.27 77.24C175.382 77.36 174.614 77.54 173.966 77.78L173.282 73.46C173.594 73.364 173.978 73.268 174.434 73.172C174.914 73.052 175.43 72.956 175.982 72.884C176.534 72.788 177.11 72.716 177.71 72.668C178.334 72.596 178.958 72.56 179.582 72.56ZM191.776 82.532C191.776 81.164 191.992 79.88 192.424 78.68C192.88 77.456 193.528 76.4 194.368 75.512C195.208 74.6 196.228 73.88 197.428 73.352C198.628 72.824 199.996 72.56 201.532 72.56C202.54 72.56 203.464 72.656 204.304 72.848C205.144 73.016 205.96 73.268 206.752 73.604L205.636 77.888C205.132 77.696 204.58 77.528 203.98 77.384C203.38 77.24 202.708 77.168 201.964 77.168C200.38 77.168 199.192 77.66 198.4 78.644C197.632 79.628 197.248 80.924 197.248 82.532C197.248 84.236 197.608 85.556 198.328 86.492C199.072 87.428 200.356 87.896 202.18 87.896C202.828 87.896 203.524 87.836 204.268 87.716C205.012 87.596 205.696 87.404 206.32 87.14L207.076 91.532C206.452 91.796 205.672 92.024 204.736 92.216C203.8 92.408 202.768 92.504 201.64 92.504C199.912 92.504 198.424 92.252 197.176 91.748C195.928 91.22 194.896 90.512 194.08 89.624C193.288 88.736 192.7 87.692 192.316 86.492C191.956 85.268 191.776 83.948 191.776 82.532ZM216.04 79.904C216.568 79.328 217.108 78.728 217.66 78.104C218.236 77.48 218.788 76.868 219.316 76.268C219.844 75.644 220.336 75.056 220.792 74.504C221.272 73.952 221.68 73.472 222.016 73.064H228.388C227.116 74.528 225.868 75.932 224.644 77.276C223.444 78.596 222.124 79.964 220.684 81.38C221.404 82.028 222.148 82.808 222.916 83.72C223.684 84.608 224.428 85.532 225.148 86.492C225.868 87.452 226.528 88.412 227.128 89.372C227.728 90.332 228.232 91.208 228.64 92H222.484C222.1 91.376 221.656 90.692 221.152 89.948C220.672 89.18 220.156 88.424 219.604 87.68C219.052 86.912 218.464 86.18 217.84 85.484C217.24 84.788 216.64 84.2 216.04 83.72V92H210.676V64.928L216.04 64.064V79.904ZM22.88 133V108.052H39.728V112.768H28.496V117.664H38.468V122.272H28.496V128.284H40.556V133H22.88ZM42.732 119.824H53.172V124.684H42.732V119.824ZM69.0255 133.504C64.9695 133.504 61.8735 132.376 59.7375 130.12C57.6255 127.864 56.5695 124.66 56.5695 120.508C56.5695 118.444 56.8935 116.608 57.5415 115C58.1895 113.368 59.0775 112 60.2055 110.896C61.3335 109.768 62.6775 108.916 64.2375 108.34C65.7975 107.764 67.4895 107.476 69.3135 107.476C70.3695 107.476 71.3295 107.56 72.1935 107.728C73.0575 107.872 73.8135 108.052 74.4615 108.268C75.1095 108.46 75.6495 108.664 76.0815 108.88C76.5135 109.096 76.8255 109.264 77.0175 109.384L75.3975 113.92C74.6295 113.512 73.7295 113.164 72.6975 112.876C71.6895 112.588 70.5375 112.444 69.2415 112.444C68.3775 112.444 67.5255 112.588 66.6855 112.876C65.8695 113.164 65.1375 113.632 64.4895 114.28C63.8655 114.904 63.3615 115.72 62.9775 116.728C62.5935 117.736 62.4015 118.96 62.4015 120.4C62.4015 121.552 62.5215 122.632 62.7615 123.64C63.0255 124.624 63.4335 125.476 63.9855 126.196C64.5615 126.916 65.3055 127.492 66.2175 127.924C67.1295 128.332 68.2335 128.536 69.5295 128.536C70.3455 128.536 71.0775 128.488 71.7255 128.392C72.3735 128.296 72.9495 128.188 73.4535 128.068C73.9575 127.924 74.4015 127.768 74.7855 127.6C75.1695 127.432 75.5175 127.276 75.8295 127.132L77.3775 131.632C76.5855 132.112 75.4695 132.544 74.0295 132.928C72.5895 133.312 70.9215 133.504 69.0255 133.504ZM97.9234 123.496C97.9234 124.984 97.7074 126.352 97.2754 127.6C96.8434 128.824 96.2194 129.88 95.4034 130.768C94.5874 131.632 93.6034 132.304 92.4514 132.784C91.3234 133.264 90.0514 133.504 88.6354 133.504C87.2434 133.504 85.9714 133.264 84.8194 132.784C83.6914 132.304 82.7194 131.632 81.9034 130.768C81.0874 129.88 80.4514 128.824 79.9954 127.6C79.5394 126.352 79.3114 124.984 79.3114 123.496C79.3114 122.008 79.5394 120.652 79.9954 119.428C80.4754 118.204 81.1234 117.16 81.9394 116.296C82.7794 115.432 83.7634 114.76 84.8914 114.28C86.0434 113.8 87.2914 113.56 88.6354 113.56C90.0034 113.56 91.2514 113.8 92.3794 114.28C93.5314 114.76 94.5154 115.432 95.3314 116.296C96.1474 117.16 96.7834 118.204 97.2394 119.428C97.6954 120.652 97.9234 122.008 97.9234 123.496ZM92.4514 123.496C92.4514 121.84 92.1154 120.544 91.4434 119.608C90.7954 118.648 89.8594 118.168 88.6354 118.168C87.4114 118.168 86.4634 118.648 85.7914 119.608C85.1194 120.544 84.7834 121.84 84.7834 123.496C84.7834 125.152 85.1194 126.472 85.7914 127.456C86.4634 128.416 87.4114 128.896 88.6354 128.896C89.8594 128.896 90.7954 128.416 91.4434 127.456C92.1154 126.472 92.4514 125.152 92.4514 123.496ZM112.483 122.956C112.483 121.228 112.255 120.004 111.799 119.284C111.367 118.564 110.611 118.204 109.531 118.204C109.195 118.204 108.847 118.228 108.487 118.276C108.127 118.3 107.779 118.336 107.443 118.384V133H102.079V114.712C102.535 114.592 103.063 114.472 103.663 114.352C104.287 114.208 104.935 114.088 105.607 113.992C106.303 113.872 107.011 113.788 107.731 113.74C108.451 113.668 109.159 113.632 109.855 113.632C111.223 113.632 112.327 113.812 113.167 114.172C114.031 114.508 114.739 114.916 115.291 115.396C116.059 114.844 116.935 114.412 117.919 114.1C118.927 113.788 119.851 113.632 120.691 113.632C122.203 113.632 123.439 113.848 124.399 114.28C125.383 114.688 126.163 115.276 126.739 116.044C127.315 116.812 127.711 117.724 127.927 118.78C128.143 119.836 128.251 121.012 128.251 122.308V133H122.887V122.956C122.887 121.228 122.659 120.004 122.203 119.284C121.771 118.564 121.015 118.204 119.935 118.204C119.647 118.204 119.239 118.276 118.711 118.42C118.207 118.564 117.787 118.744 117.451 118.96C117.619 119.512 117.727 120.1 117.775 120.724C117.823 121.324 117.847 121.972 117.847 122.668V133H112.483V122.956ZM143.526 122.956C143.526 121.228 143.298 120.004 142.842 119.284C142.41 118.564 141.654 118.204 140.574 118.204C140.238 118.204 139.89 118.228 139.53 118.276C139.17 118.3 138.822 118.336 138.486 118.384V133H133.122V114.712C133.578 114.592 134.106 114.472 134.706 114.352C135.33 114.208 135.978 114.088 136.65 113.992C137.346 113.872 138.054 113.788 138.774 113.74C139.494 113.668 140.202 113.632 140.898 113.632C142.266 113.632 143.37 113.812 144.21 114.172C145.074 114.508 145.782 114.916 146.334 115.396C147.102 114.844 147.978 114.412 148.962 114.1C149.97 113.788 150.894 113.632 151.734 113.632C153.246 113.632 154.482 113.848 155.442 114.28C156.426 114.688 157.206 115.276 157.782 116.044C158.358 116.812 158.754 117.724 158.97 118.78C159.186 119.836 159.294 121.012 159.294 122.308V133H153.93V122.956C153.93 121.228 153.702 120.004 153.246 119.284C152.814 118.564 152.058 118.204 150.978 118.204C150.69 118.204 150.282 118.276 149.754 118.42C149.25 118.564 148.83 118.744 148.494 118.96C148.662 119.512 148.77 120.1 148.818 120.724C148.866 121.324 148.89 121.972 148.89 122.668V133H143.526V122.956ZM163.265 123.676C163.265 121.996 163.517 120.532 164.021 119.284C164.549 118.012 165.233 116.956 166.073 116.116C166.913 115.276 167.873 114.64 168.953 114.208C170.057 113.776 171.185 113.56 172.337 113.56C175.025 113.56 177.149 114.388 178.709 116.044C180.269 117.676 181.049 120.088 181.049 123.28C181.049 123.592 181.037 123.94 181.013 124.324C180.989 124.684 180.965 125.008 180.941 125.296H168.773C168.893 126.4 169.409 127.276 170.321 127.924C171.233 128.572 172.457 128.896 173.993 128.896C174.977 128.896 175.937 128.812 176.873 128.644C177.833 128.452 178.613 128.224 179.213 127.96L179.933 132.316C179.645 132.46 179.261 132.604 178.781 132.748C178.301 132.892 177.761 133.012 177.161 133.108C176.585 133.228 175.961 133.324 175.289 133.396C174.617 133.468 173.945 133.504 173.273 133.504C171.569 133.504 170.081 133.252 168.809 132.748C167.561 132.244 166.517 131.56 165.677 130.696C164.861 129.808 164.249 128.764 163.841 127.564C163.457 126.364 163.265 125.068 163.265 123.676ZM175.865 121.624C175.841 121.168 175.757 120.724 175.613 120.292C175.493 119.86 175.289 119.476 175.001 119.14C174.737 118.804 174.389 118.528 173.957 118.312C173.549 118.096 173.033 117.988 172.409 117.988C171.809 117.988 171.293 118.096 170.861 118.312C170.429 118.504 170.069 118.768 169.781 119.104C169.493 119.44 169.265 119.836 169.097 120.292C168.953 120.724 168.845 121.168 168.773 121.624H175.865ZM196.6 118.816C196.12 118.696 195.556 118.576 194.908 118.456C194.26 118.312 193.564 118.24 192.82 118.24C192.484 118.24 192.076 118.276 191.596 118.348C191.14 118.396 190.792 118.456 190.552 118.528V133H185.188V115.072C186.148 114.736 187.276 114.424 188.572 114.136C189.892 113.824 191.356 113.668 192.964 113.668C193.252 113.668 193.6 113.692 194.008 113.74C194.416 113.764 194.824 113.812 195.232 113.884C195.64 113.932 196.048 114.004 196.456 114.1C196.864 114.172 197.212 114.268 197.5 114.388L196.6 118.816ZM199.124 123.532C199.124 122.164 199.34 120.88 199.772 119.68C200.228 118.456 200.876 117.4 201.716 116.512C202.556 115.6 203.576 114.88 204.776 114.352C205.976 113.824 207.344 113.56 208.88 113.56C209.888 113.56 210.812 113.656 211.652 113.848C212.492 114.016 213.308 114.268 214.1 114.604L212.984 118.888C212.48 118.696 211.928 118.528 211.328 118.384C210.728 118.24 210.056 118.168 209.312 118.168C207.728 118.168 206.54 118.66 205.748 119.644C204.98 120.628 204.596 121.924 204.596 123.532C204.596 125.236 204.956 126.556 205.676 127.492C206.42 128.428 207.704 128.896 209.528 128.896C210.176 128.896 210.872 128.836 211.616 128.716C212.36 128.596 213.044 128.404 213.668 128.14L214.424 132.532C213.8 132.796 213.02 133.024 212.084 133.216C211.148 133.408 210.116 133.504 208.988 133.504C207.26 133.504 205.772 133.252 204.524 132.748C203.276 132.22 202.244 131.512 201.428 130.624C200.636 129.736 200.048 128.692 199.664 127.492C199.304 126.268 199.124 124.948 199.124 123.532ZM216.21 123.676C216.21 121.996 216.462 120.532 216.966 119.284C217.494 118.012 218.178 116.956 219.018 116.116C219.858 115.276 220.818 114.64 221.898 114.208C223.002 113.776 224.13 113.56 225.282 113.56C227.97 113.56 230.094 114.388 231.654 116.044C233.214 117.676 233.994 120.088 233.994 123.28C233.994 123.592 233.982 123.94 233.958 124.324C233.934 124.684 233.91 125.008 233.886 125.296H221.718C221.838 126.4 222.354 127.276 223.266 127.924C224.178 128.572 225.402 128.896 226.938 128.896C227.922 128.896 228.882 128.812 229.818 128.644C230.778 128.452 231.558 128.224 232.158 127.96L232.878 132.316C232.59 132.46 232.206 132.604 231.726 132.748C231.246 132.892 230.706 133.012 230.106 133.108C229.53 133.228 228.906 133.324 228.234 133.396C227.562 133.468 226.89 133.504 226.218 133.504C224.514 133.504 223.026 133.252 221.754 132.748C220.506 132.244 219.462 131.56 218.622 130.696C217.806 129.808 217.194 128.764 216.786 127.564C216.402 126.364 216.21 125.068 216.21 123.676ZM228.81 121.624C228.786 121.168 228.702 120.724 228.558 120.292C228.438 119.86 228.234 119.476 227.946 119.14C227.682 118.804 227.334 118.528 226.902 118.312C226.494 118.096 225.978 117.988 225.354 117.988C224.754 117.988 224.238 118.096 223.806 118.312C223.374 118.504 223.014 118.768 222.726 119.104C222.438 119.44 222.21 119.836 222.042 120.292C221.898 120.724 221.79 121.168 221.718 121.624H228.81ZM27.956 170.148C28.94 170.148 29.636 170.052 30.044 169.86C30.452 169.668 30.656 169.296 30.656 168.744C30.656 168.312 30.392 167.94 29.864 167.628C29.336 167.292 28.532 166.92 27.452 166.512C26.612 166.2 25.844 165.876 25.148 165.54C24.476 165.204 23.9 164.808 23.42 164.352C22.94 163.872 22.568 163.308 22.304 162.66C22.04 162.012 21.908 161.232 21.908 160.32C21.908 158.544 22.568 157.14 23.888 156.108C25.208 155.076 27.02 154.56 29.324 154.56C30.476 154.56 31.58 154.668 32.636 154.884C33.692 155.076 34.532 155.292 35.156 155.532L34.22 159.708C33.596 159.492 32.912 159.3 32.168 159.132C31.448 158.964 30.632 158.88 29.72 158.88C28.04 158.88 27.2 159.348 27.2 160.284C27.2 160.5 27.236 160.692 27.308 160.86C27.38 161.028 27.524 161.196 27.74 161.364C27.956 161.508 28.244 161.676 28.604 161.868C28.988 162.036 29.468 162.228 30.044 162.444C31.22 162.876 32.192 163.308 32.96 163.74C33.728 164.148 34.328 164.604 34.76 165.108C35.216 165.588 35.528 166.128 35.696 166.728C35.888 167.328 35.984 168.024 35.984 168.816C35.984 170.688 35.276 172.104 33.86 173.064C32.468 174.024 30.488 174.504 27.92 174.504C26.24 174.504 24.836 174.36 23.708 174.072C22.604 173.784 21.836 173.544 21.404 173.352L22.304 168.996C23.216 169.356 24.152 169.644 25.112 169.86C26.072 170.052 27.02 170.148 27.956 170.148ZM39.8127 150.348L45.1767 149.484V155.064H51.6207V159.528H45.1767V166.188C45.1767 167.316 45.3687 168.216 45.7527 168.888C46.1607 169.56 46.9647 169.896 48.1647 169.896C48.7407 169.896 49.3287 169.848 49.9287 169.752C50.5527 169.632 51.1167 169.476 51.6207 169.284L52.3767 173.46C51.7287 173.724 51.0087 173.952 50.2167 174.144C49.4247 174.336 48.4527 174.432 47.3007 174.432C45.8367 174.432 44.6247 174.24 43.6647 173.856C42.7047 173.448 41.9367 172.896 41.3607 172.2C40.7847 171.48 40.3767 170.616 40.1367 169.608C39.9207 168.6 39.8127 167.484 39.8127 166.26V150.348ZM72.9976 164.496C72.9976 165.984 72.7816 167.352 72.3496 168.6C71.9176 169.824 71.2936 170.88 70.4776 171.768C69.6616 172.632 68.6776 173.304 67.5256 173.784C66.3976 174.264 65.1256 174.504 63.7096 174.504C62.3176 174.504 61.0456 174.264 59.8936 173.784C58.7656 173.304 57.7936 172.632 56.9776 171.768C56.1616 170.88 55.5256 169.824 55.0696 168.6C54.6136 167.352 54.3856 165.984 54.3856 164.496C54.3856 163.008 54.6136 161.652 55.0696 160.428C55.5496 159.204 56.1976 158.16 57.0136 157.296C57.8536 156.432 58.8376 155.76 59.9656 155.28C61.1176 154.8 62.3656 154.56 63.7096 154.56C65.0776 154.56 66.3256 154.8 67.4536 155.28C68.6056 155.76 69.5896 156.432 70.4056 157.296C71.2216 158.16 71.8576 159.204 72.3136 160.428C72.7696 161.652 72.9976 163.008 72.9976 164.496ZM67.5256 164.496C67.5256 162.84 67.1896 161.544 66.5176 160.608C65.8696 159.648 64.9336 159.168 63.7096 159.168C62.4856 159.168 61.5376 159.648 60.8656 160.608C60.1936 161.544 59.8576 162.84 59.8576 164.496C59.8576 166.152 60.1936 167.472 60.8656 168.456C61.5376 169.416 62.4856 169.896 63.7096 169.896C64.9336 169.896 65.8696 169.416 66.5176 168.456C67.1896 167.472 67.5256 166.152 67.5256 164.496ZM88.5648 159.816C88.0848 159.696 87.5208 159.576 86.8728 159.456C86.2248 159.312 85.5288 159.24 84.7848 159.24C84.4488 159.24 84.0408 159.276 83.5608 159.348C83.1048 159.396 82.7568 159.456 82.5168 159.528V174H77.1528V156.072C78.1128 155.736 79.2408 155.424 80.5368 155.136C81.8568 154.824 83.3208 154.668 84.9288 154.668C85.2168 154.668 85.5648 154.692 85.9728 154.74C86.3808 154.764 86.7888 154.812 87.1968 154.884C87.6048 154.932 88.0128 155.004 88.4208 155.1C88.8288 155.172 89.1768 155.268 89.4648 155.388L88.5648 159.816ZM91.0888 164.676C91.0888 162.996 91.3408 161.532 91.8447 160.284C92.3728 159.012 93.0568 157.956 93.8968 157.116C94.7368 156.276 95.6968 155.64 96.7768 155.208C97.8808 154.776 99.0088 154.56 100.161 154.56C102.849 154.56 104.973 155.388 106.533 157.044C108.093 158.676 108.873 161.088 108.873 164.28C108.873 164.592 108.861 164.94 108.837 165.324C108.813 165.684 108.789 166.008 108.765 166.296H96.5968C96.7168 167.4 97.2328 168.276 98.1448 168.924C99.0568 169.572 100.281 169.896 101.817 169.896C102.801 169.896 103.761 169.812 104.697 169.644C105.657 169.452 106.437 169.224 107.037 168.96L107.757 173.316C107.469 173.46 107.085 173.604 106.605 173.748C106.125 173.892 105.585 174.012 104.985 174.108C104.409 174.228 103.785 174.324 103.113 174.396C102.441 174.468 101.769 174.504 101.097 174.504C99.3928 174.504 97.9048 174.252 96.6328 173.748C95.3848 173.244 94.3408 172.56 93.5008 171.696C92.6848 170.808 92.0728 169.764 91.6648 168.564C91.2808 167.364 91.0888 166.068 91.0888 164.676ZM103.689 162.624C103.665 162.168 103.581 161.724 103.437 161.292C103.317 160.86 103.113 160.476 102.825 160.14C102.561 159.804 102.213 159.528 101.781 159.312C101.373 159.096 100.857 158.988 100.233 158.988C99.6328 158.988 99.1168 159.096 98.6848 159.312C98.2528 159.504 97.8928 159.768 97.6048 160.104C97.3168 160.44 97.0888 160.836 96.9208 161.292C96.7768 161.724 96.6688 162.168 96.5968 162.624H103.689ZM133.181 163.128C132.701 164.952 132.185 166.764 131.633 168.564C131.105 170.364 130.541 172.176 129.941 174H125.765C125.333 172.992 124.865 171.792 124.361 170.4C123.857 169.008 123.329 167.496 122.777 165.864C122.249 164.208 121.697 162.468 121.121 160.644C120.569 158.796 120.029 156.936 119.501 155.064H125.153C125.345 155.928 125.549 156.876 125.765 157.908C126.005 158.916 126.245 159.96 126.485 161.04C126.749 162.12 127.013 163.212 127.277 164.316C127.565 165.396 127.853 166.44 128.141 167.448C128.453 166.392 128.753 165.312 129.041 164.208C129.353 163.104 129.641 162.024 129.905 160.968C130.193 159.888 130.457 158.856 130.697 157.872C130.961 156.864 131.189 155.928 131.381 155.064H135.269C135.461 155.928 135.677 156.864 135.917 157.872C136.157 158.856 136.409 159.888 136.673 160.968C136.937 162.024 137.213 163.104 137.501 164.208C137.789 165.312 138.089 166.392 138.401 167.448C138.689 166.44 138.977 165.396 139.265 164.316C139.553 163.212 139.817 162.12 140.057 161.04C140.321 159.96 140.561 158.916 140.777 157.908C141.017 156.876 141.233 155.928 141.425 155.064H147.005C146.477 156.936 145.925 158.796 145.349 160.644C144.797 162.468 144.245 164.208 143.693 165.864C143.165 167.496 142.637 169.008 142.109 170.4C141.605 171.792 141.137 172.992 140.705 174H136.529C135.929 172.176 135.341 170.364 134.765 168.564C134.189 166.764 133.661 164.952 133.181 163.128ZM155.255 174H149.891V155.064H155.255V174ZM155.759 149.592C155.759 150.576 155.435 151.356 154.787 151.932C154.163 152.484 153.419 152.76 152.555 152.76C151.691 152.76 150.935 152.484 150.287 151.932C149.663 151.356 149.351 150.576 149.351 149.592C149.351 148.608 149.663 147.84 150.287 147.288C150.935 146.712 151.691 146.424 152.555 146.424C153.419 146.424 154.163 146.712 154.787 147.288C155.435 147.84 155.759 148.608 155.759 149.592ZM160.117 150.348L165.481 149.484V155.064H171.925V159.528H165.481V166.188C165.481 167.316 165.673 168.216 166.057 168.888C166.465 169.56 167.269 169.896 168.469 169.896C169.045 169.896 169.633 169.848 170.233 169.752C170.857 169.632 171.421 169.476 171.925 169.284L172.681 173.46C172.033 173.724 171.313 173.952 170.521 174.144C169.729 174.336 168.757 174.432 167.605 174.432C166.141 174.432 164.929 174.24 163.969 173.856C163.009 173.448 162.241 172.896 161.665 172.2C161.089 171.48 160.681 170.616 160.441 169.608C160.225 168.6 160.117 167.484 160.117 166.26V150.348ZM176.293 174V146.928L181.657 146.064V155.136C182.017 155.016 182.473 154.908 183.025 154.812C183.601 154.692 184.153 154.632 184.681 154.632C186.217 154.632 187.489 154.848 188.497 155.28C189.529 155.688 190.345 156.276 190.945 157.044C191.569 157.812 192.001 158.724 192.241 159.78C192.505 160.836 192.637 162.012 192.637 163.308V174H187.273V163.956C187.273 162.228 187.045 161.004 186.589 160.284C186.157 159.564 185.341 159.204 184.141 159.204C183.661 159.204 183.205 159.252 182.773 159.348C182.365 159.42 181.993 159.504 181.657 159.6V174H176.293ZM29.684 210.716C30.476 210.716 31.124 210.656 31.628 210.536C32.156 210.392 32.576 210.212 32.888 209.996C33.2 209.756 33.416 209.48 33.536 209.168C33.656 208.856 33.716 208.508 33.716 208.124C33.716 207.308 33.332 206.636 32.564 206.108C31.796 205.556 30.476 204.968 28.604 204.344C27.788 204.056 26.972 203.732 26.156 203.372C25.34 202.988 24.608 202.52 23.96 201.968C23.312 201.392 22.784 200.708 22.376 199.916C21.968 199.1 21.764 198.116 21.764 196.964C21.764 195.812 21.98 194.78 22.412 193.868C22.844 192.932 23.456 192.14 24.248 191.492C25.04 190.844 26 190.352 27.128 190.016C28.256 189.656 29.528 189.476 30.944 189.476C32.624 189.476 34.076 189.656 35.3 190.016C36.524 190.376 37.532 190.772 38.324 191.204L36.704 195.632C36.008 195.272 35.228 194.96 34.364 194.696C33.524 194.408 32.504 194.264 31.304 194.264C29.96 194.264 28.988 194.456 28.388 194.84C27.812 195.2 27.524 195.764 27.524 196.532C27.524 196.988 27.632 197.372 27.848 197.684C28.064 197.996 28.364 198.284 28.748 198.548C29.156 198.788 29.612 199.016 30.116 199.232C30.644 199.424 31.22 199.628 31.844 199.844C33.14 200.324 34.268 200.804 35.228 201.284C36.188 201.74 36.98 202.28 37.604 202.904C38.252 203.528 38.732 204.26 39.044 205.1C39.356 205.94 39.512 206.96 39.512 208.16C39.512 210.488 38.696 212.3 37.064 213.596C35.432 214.868 32.972 215.504 29.684 215.504C28.58 215.504 27.584 215.432 26.696 215.288C25.808 215.168 25.016 215.012 24.32 214.82C23.648 214.628 23.06 214.424 22.556 214.208C22.076 213.992 21.668 213.788 21.332 213.596L22.916 209.132C23.66 209.54 24.572 209.912 25.652 210.248C26.756 210.56 28.1 210.716 29.684 210.716ZM43.2931 191.348L48.6571 190.484V196.064H55.1011V200.528H48.6571V207.188C48.6571 208.316 48.8491 209.216 49.2331 209.888C49.6411 210.56 50.4451 210.896 51.6451 210.896C52.2211 210.896 52.8091 210.848 53.4091 210.752C54.0331 210.632 54.5971 210.476 55.1011 210.284L55.8571 214.46C55.2091 214.724 54.4891 214.952 53.6971 215.144C52.9051 215.336 51.9331 215.432 50.7811 215.432C49.3171 215.432 48.1051 215.24 47.1451 214.856C46.1851 214.448 45.4171 213.896 44.8411 213.2C44.2651 212.48 43.8571 211.616 43.6171 210.608C43.4011 209.6 43.2931 208.484 43.2931 207.26V191.348ZM70.8812 200.816C70.4012 200.696 69.8372 200.576 69.1892 200.456C68.5412 200.312 67.8452 200.24 67.1012 200.24C66.7652 200.24 66.3572 200.276 65.8772 200.348C65.4212 200.396 65.0732 200.456 64.8332 200.528V215H59.4692V197.072C60.4292 196.736 61.5572 196.424 62.8532 196.136C64.1732 195.824 65.6372 195.668 67.2452 195.668C67.5332 195.668 67.8812 195.692 68.2892 195.74C68.6972 195.764 69.1052 195.812 69.5132 195.884C69.9212 195.932 70.3292 196.004 70.7372 196.1C71.1452 196.172 71.4932 196.268 71.7812 196.388L70.8812 200.816ZM80.0207 215H74.6567V196.064H80.0207V215ZM80.5247 190.592C80.5247 191.576 80.2007 192.356 79.5527 192.932C78.9287 193.484 78.1847 193.76 77.3207 193.76C76.4567 193.76 75.7007 193.484 75.0527 192.932C74.4287 192.356 74.1167 191.576 74.1167 190.592C74.1167 189.608 74.4287 188.84 75.0527 188.288C75.7007 187.712 76.4567 187.424 77.3207 187.424C78.1847 187.424 78.9287 187.712 79.5527 188.288C80.2007 188.84 80.5247 189.608 80.5247 190.592ZM97.195 205.676C97.195 204.02 96.823 202.7 96.079 201.716C95.335 200.708 94.231 200.204 92.767 200.204C92.287 200.204 91.843 200.228 91.435 200.276C91.027 200.3 90.691 200.336 90.427 200.384V210.068C90.763 210.284 91.195 210.464 91.723 210.608C92.275 210.752 92.827 210.824 93.379 210.824C95.923 210.824 97.195 209.108 97.195 205.676ZM102.667 205.532C102.667 206.996 102.487 208.328 102.127 209.528C101.767 210.728 101.239 211.76 100.543 212.624C99.847 213.488 98.983 214.16 97.951 214.64C96.919 215.12 95.731 215.36 94.387 215.36C93.643 215.36 92.947 215.288 92.299 215.144C91.651 215 91.027 214.796 90.427 214.532V221.66H85.063V196.712C85.543 196.568 86.095 196.436 86.719 196.316C87.343 196.172 87.991 196.052 88.663 195.956C89.359 195.86 90.055 195.788 90.751 195.74C91.471 195.668 92.155 195.632 92.803 195.632C94.363 195.632 95.755 195.872 96.979 196.352C98.203 196.808 99.235 197.468 100.075 198.332C100.915 199.172 101.551 200.204 101.983 201.428C102.439 202.652 102.667 204.02 102.667 205.532ZM105.89 205.676C105.89 203.996 106.142 202.532 106.646 201.284C107.174 200.012 107.858 198.956 108.698 198.116C109.538 197.276 110.498 196.64 111.578 196.208C112.682 195.776 113.81 195.56 114.962 195.56C117.65 195.56 119.774 196.388 121.334 198.044C122.894 199.676 123.674 202.088 123.674 205.28C123.674 205.592 123.662 205.94 123.638 206.324C123.614 206.684 123.59 207.008 123.566 207.296H111.398C111.518 208.4 112.034 209.276 112.946 209.924C113.858 210.572 115.082 210.896 116.618 210.896C117.602 210.896 118.562 210.812 119.498 210.644C120.458 210.452 121.238 210.224 121.838 209.96L122.558 214.316C122.27 214.46 121.886 214.604 121.406 214.748C120.926 214.892 120.386 215.012 119.786 215.108C119.21 215.228 118.586 215.324 117.914 215.396C117.242 215.468 116.57 215.504 115.898 215.504C114.194 215.504 112.706 215.252 111.434 214.748C110.186 214.244 109.142 213.56 108.302 212.696C107.486 211.808 106.874 210.764 106.466 209.564C106.082 208.364 105.89 207.068 105.89 205.676ZM118.49 203.624C118.466 203.168 118.382 202.724 118.238 202.292C118.118 201.86 117.914 201.476 117.626 201.14C117.362 200.804 117.014 200.528 116.582 200.312C116.174 200.096 115.658 199.988 115.034 199.988C114.434 199.988 113.918 200.096 113.486 200.312C113.054 200.504 112.694 200.768 112.406 201.104C112.118 201.44 111.89 201.836 111.722 202.292C111.578 202.724 111.47 203.168 111.398 203.624H118.49ZM148.989 194.372C146.373 194.372 144.477 195.104 143.301 196.568C142.149 198.008 141.573 199.988 141.573 202.508C141.573 203.732 141.717 204.848 142.005 205.856C142.293 206.84 142.725 207.692 143.301 208.412C143.877 209.132 144.597 209.696 145.461 210.104C146.325 210.488 147.333 210.68 148.485 210.68C149.109 210.68 149.637 210.668 150.069 210.644C150.525 210.62 150.921 210.572 151.257 210.5V201.824H156.873V214.172C156.201 214.436 155.121 214.712 153.633 215C152.145 215.312 150.309 215.468 148.125 215.468C146.253 215.468 144.549 215.18 143.013 214.604C141.501 214.028 140.205 213.188 139.125 212.084C138.045 210.98 137.205 209.624 136.605 208.016C136.029 206.408 135.741 204.572 135.741 202.508C135.741 200.42 136.065 198.572 136.713 196.964C137.361 195.356 138.249 194 139.377 192.896C140.505 191.768 141.825 190.916 143.337 190.34C144.873 189.764 146.505 189.476 148.233 189.476C149.409 189.476 150.465 189.56 151.401 189.728C152.361 189.872 153.177 190.052 153.849 190.268C154.545 190.46 155.109 190.664 155.541 190.88C155.997 191.096 156.321 191.264 156.513 191.384L154.893 195.884C154.125 195.476 153.237 195.128 152.229 194.84C151.245 194.528 150.165 194.372 148.989 194.372ZM168.975 211.256C169.503 211.256 170.007 211.244 170.487 211.22C170.967 211.196 171.351 211.16 171.639 211.112V207.044C171.423 206.996 171.099 206.948 170.667 206.9C170.235 206.852 169.839 206.828 169.479 206.828C168.975 206.828 168.495 206.864 168.039 206.936C167.607 206.984 167.223 207.092 166.887 207.26C166.551 207.428 166.287 207.656 166.095 207.944C165.903 208.232 165.807 208.592 165.807 209.024C165.807 209.864 166.083 210.452 166.635 210.788C167.211 211.1 167.991 211.256 168.975 211.256ZM168.543 195.56C170.127 195.56 171.447 195.74 172.503 196.1C173.559 196.46 174.399 196.976 175.023 197.648C175.671 198.32 176.127 199.136 176.391 200.096C176.655 201.056 176.787 202.124 176.787 203.3V214.46C176.019 214.628 174.951 214.82 173.583 215.036C172.215 215.276 170.559 215.396 168.615 215.396C167.391 215.396 166.275 215.288 165.267 215.072C164.283 214.856 163.431 214.508 162.711 214.028C161.991 213.524 161.439 212.876 161.055 212.084C160.671 211.292 160.479 210.32 160.479 209.168C160.479 208.064 160.695 207.128 161.127 206.36C161.583 205.592 162.183 204.98 162.927 204.524C163.671 204.068 164.523 203.744 165.483 203.552C166.443 203.336 167.439 203.228 168.471 203.228C169.167 203.228 169.779 203.264 170.307 203.336C170.859 203.384 171.303 203.456 171.639 203.552V203.048C171.639 202.136 171.363 201.404 170.811 200.852C170.259 200.3 169.299 200.024 167.931 200.024C167.019 200.024 166.119 200.096 165.231 200.24C164.343 200.36 163.575 200.54 162.927 200.78L162.243 196.46C162.555 196.364 162.939 196.268 163.395 196.172C163.875 196.052 164.391 195.956 164.943 195.884C165.495 195.788 166.071 195.716 166.671 195.668C167.295 195.596 167.919 195.56 168.543 195.56ZM181.457 191.348L186.821 190.484V196.064H193.265V200.528H186.821V207.188C186.821 208.316 187.013 209.216 187.397 209.888C187.805 210.56 188.609 210.896 189.809 210.896C190.385 210.896 190.973 210.848 191.573 210.752C192.197 210.632 192.761 210.476 193.265 210.284L194.021 214.46C193.373 214.724 192.653 214.952 191.861 215.144C191.069 215.336 190.097 215.432 188.945 215.432C187.481 215.432 186.269 215.24 185.309 214.856C184.349 214.448 183.581 213.896 183.005 213.2C182.429 212.48 182.021 211.616 181.781 210.608C181.565 209.6 181.457 208.484 181.457 207.26V191.348ZM196.03 205.676C196.03 203.996 196.282 202.532 196.786 201.284C197.314 200.012 197.998 198.956 198.838 198.116C199.678 197.276 200.638 196.64 201.718 196.208C202.822 195.776 203.95 195.56 205.102 195.56C207.79 195.56 209.914 196.388 211.474 198.044C213.034 199.676 213.814 202.088 213.814 205.28C213.814 205.592 213.802 205.94 213.778 206.324C213.754 206.684 213.73 207.008 213.706 207.296H201.538C201.658 208.4 202.174 209.276 203.086 209.924C203.998 210.572 205.222 210.896 206.758 210.896C207.742 210.896 208.702 210.812 209.638 210.644C210.598 210.452 211.378 210.224 211.978 209.96L212.698 214.316C212.41 214.46 212.026 214.604 211.546 214.748C211.066 214.892 210.526 215.012 209.926 215.108C209.35 215.228 208.726 215.324 208.054 215.396C207.382 215.468 206.71 215.504 206.038 215.504C204.334 215.504 202.846 215.252 201.574 214.748C200.326 214.244 199.282 213.56 198.442 212.696C197.626 211.808 197.014 210.764 196.606 209.564C196.222 208.364 196.03 207.068 196.03 205.676ZM208.63 203.624C208.606 203.168 208.522 202.724 208.378 202.292C208.258 201.86 208.054 201.476 207.766 201.14C207.502 200.804 207.154 200.528 206.722 200.312C206.314 200.096 205.798 199.988 205.174 199.988C204.574 199.988 204.058 200.096 203.626 200.312C203.194 200.504 202.834 200.768 202.546 201.104C202.258 201.44 202.03 201.836 201.862 202.292C201.718 202.724 201.61 203.168 201.538 203.624H208.63ZM229.474 204.128C228.994 205.952 228.478 207.764 227.926 209.564C227.398 211.364 226.834 213.176 226.234 215H222.058C221.626 213.992 221.158 212.792 220.654 211.4C220.15 210.008 219.622 208.496 219.07 206.864C218.542 205.208 217.99 203.468 217.414 201.644C216.862 199.796 216.322 197.936 215.794 196.064H221.446C221.638 196.928 221.842 197.876 222.058 198.908C222.298 199.916 222.538 200.96 222.778 202.04C223.042 203.12 223.306 204.212 223.57 205.316C223.858 206.396 224.146 207.44 224.434 208.448C224.746 207.392 225.046 206.312 225.334 205.208C225.646 204.104 225.934 203.024 226.198 201.968C226.486 200.888 226.75 199.856 226.99 198.872C227.254 197.864 227.482 196.928 227.674 196.064H231.562C231.754 196.928 231.97 197.864 232.21 198.872C232.45 199.856 232.702 200.888 232.966 201.968C233.23 203.024 233.506 204.104 233.794 205.208C234.082 206.312 234.382 207.392 234.694 208.448C234.982 207.44 235.27 206.396 235.558 205.316C235.846 204.212 236.11 203.12 236.35 202.04C236.614 200.96 236.854 199.916 237.07 198.908C237.31 197.876 237.526 196.928 237.718 196.064H243.298C242.77 197.936 242.218 199.796 241.642 201.644C241.09 203.468 240.538 205.208 239.986 206.864C239.458 208.496 238.93 210.008 238.402 211.4C237.898 212.792 237.43 213.992 236.998 215H232.822C232.222 213.176 231.634 211.364 231.058 209.564C230.482 207.764 229.954 205.952 229.474 204.128ZM253.069 211.256C253.597 211.256 254.101 211.244 254.581 211.22C255.061 211.196 255.445 211.16 255.733 211.112V207.044C255.517 206.996 255.193 206.948 254.761 206.9C254.329 206.852 253.933 206.828 253.573 206.828C253.069 206.828 252.589 206.864 252.133 206.936C251.701 206.984 251.317 207.092 250.981 207.26C250.645 207.428 250.381 207.656 250.189 207.944C249.997 208.232 249.901 208.592 249.901 209.024C249.901 209.864 250.177 210.452 250.729 210.788C251.305 211.1 252.085 211.256 253.069 211.256ZM252.637 195.56C254.221 195.56 255.541 195.74 256.597 196.1C257.653 196.46 258.493 196.976 259.117 197.648C259.765 198.32 260.221 199.136 260.485 200.096C260.749 201.056 260.881 202.124 260.881 203.3V214.46C260.113 214.628 259.045 214.82 257.677 215.036C256.309 215.276 254.653 215.396 252.709 215.396C251.485 215.396 250.369 215.288 249.361 215.072C248.377 214.856 247.525 214.508 246.805 214.028C246.085 213.524 245.533 212.876 245.149 212.084C244.765 211.292 244.573 210.32 244.573 209.168C244.573 208.064 244.789 207.128 245.221 206.36C245.677 205.592 246.277 204.98 247.021 204.524C247.765 204.068 248.617 203.744 249.577 203.552C250.537 203.336 251.533 203.228 252.564 203.228C253.261 203.228 253.873 203.264 254.401 203.336C254.953 203.384 255.397 203.456 255.733 203.552V203.048C255.733 202.136 255.457 201.404 254.905 200.852C254.353 200.3 253.393 200.024 252.025 200.024C251.113 200.024 250.213 200.096 249.325 200.24C248.437 200.36 247.669 200.54 247.021 200.78L246.337 196.46C246.649 196.364 247.033 196.268 247.489 196.172C247.969 196.052 248.485 195.956 249.037 195.884C249.589 195.788 250.165 195.716 250.765 195.668C251.389 195.596 252.013 195.56 252.637 195.56ZM282.086 196.064C281.006 199.712 279.878 203.132 278.702 206.324C277.526 209.516 276.242 212.612 274.85 215.612C274.346 216.692 273.842 217.604 273.338 218.348C272.834 219.116 272.282 219.74 271.682 220.22C271.082 220.724 270.398 221.084 269.63 221.3C268.886 221.54 268.01 221.66 267.002 221.66C266.162 221.66 265.382 221.576 264.662 221.408C263.966 221.264 263.39 221.096 262.934 220.904L263.87 216.62C264.422 216.812 264.914 216.944 265.346 217.016C265.778 217.088 266.234 217.124 266.714 217.124C267.674 217.124 268.406 216.86 268.91 216.332C269.438 215.828 269.882 215.12 270.242 214.208C269.018 211.808 267.794 209.12 266.57 206.144C265.346 203.144 264.194 199.784 263.114 196.064H268.802C269.042 197 269.318 198.02 269.63 199.124C269.966 200.204 270.314 201.308 270.674 202.436C271.034 203.54 271.394 204.62 271.754 205.676C272.138 206.732 272.498 207.692 272.834 208.556C273.146 207.692 273.47 206.732 273.806 205.676C274.142 204.62 274.466 203.54 274.778 202.436C275.114 201.308 275.426 200.204 275.714 199.124C276.026 198.02 276.302 197 276.542 196.064H282.086Z" fill="#1A1D34"/>
<defs>
<linearGradient id="paint0_linear" x1="150" y1="0" x2="255" y2="205" gradientUnits="userSpaceOnUse">
<stop offset="0.0208333" stop-color="#0C1992" stop-opacity="0.94"/>
<stop offset="0.625" stop-color="#FAFF00"/>
<stop offset="0.822917" stop-color="#052288" stop-opacity="0.33"/>
<stop offset="0.9375" stop-color="#091D8E" stop-opacity="0.129725"/>
<stop offset="0.9997" stop-color="#020541" stop-opacity="0.0208334"/>
<stop offset="0.9998" stop-color="#0C1992" stop-opacity="0.0208333"/>
</linearGradient>
</defs>
</svg>
