<svg width="300" height="300" viewBox="0 0 300 300" fill="none" xmlns="http://www.w3.org/2000/svg">
<rect width="300" height="300" fill="url(#paint0_linear)"/>
<path d="M35.684 104.716C36.476 104.716 37.124 104.656 37.628 104.536C38.156 104.392 38.576 104.212 38.888 103.996C39.2 103.756 39.416 103.48 39.536 103.168C39.656 102.856 39.716 102.508 39.716 102.124C39.716 101.308 39.332 100.636 38.564 100.108C37.796 99.556 36.476 98.968 34.604 98.344C33.788 98.056 32.972 97.732 32.156 97.372C31.34 96.988 30.608 96.52 29.96 95.968C29.312 95.392 28.784 94.708 28.376 93.916C27.968 93.1 27.764 92.116 27.764 90.964C27.764 89.812 27.98 88.78 28.412 87.868C28.844 86.932 29.456 86.14 30.248 85.492C31.04 84.844 32 84.352 33.128 84.016C34.256 83.656 35.528 83.476 36.944 83.476C38.624 83.476 40.076 83.656 41.3 84.016C42.524 84.376 43.532 84.772 44.324 85.204L42.704 89.632C42.008 89.272 41.228 88.96 40.364 88.696C39.524 88.408 38.504 88.264 37.304 88.264C35.96 88.264 34.988 88.456 34.388 88.84C33.812 89.2 33.524 89.764 33.524 90.532C33.524 90.988 33.632 91.372 33.848 91.684C34.064 91.996 34.364 92.284 34.748 92.548C35.156 92.788 35.612 93.016 36.116 93.232C36.644 93.424 37.22 93.628 37.844 93.844C39.14 94.324 40.268 94.804 41.228 95.284C42.188 95.74 42.98 96.28 43.604 96.904C44.252 97.528 44.732 98.26 45.044 99.1C45.356 99.94 45.512 100.96 45.512 102.16C45.512 104.488 44.696 106.3 43.064 107.596C41.432 108.868 38.972 109.504 35.684 109.504C34.58 109.504 33.584 109.432 32.696 109.288C31.808 109.168 31.016 109.012 30.32 108.82C29.648 108.628 29.06 108.424 28.556 108.208C28.076 107.992 27.668 107.788 27.332 107.596L28.916 103.132C29.66 103.54 30.572 103.912 31.652 104.248C32.756 104.56 34.1 104.716 35.684 104.716ZM67.1851 99.496C67.1851 100.984 66.9691 102.352 66.5371 103.6C66.1051 104.824 65.4811 105.88 64.6651 106.768C63.8491 107.632 62.8651 108.304 61.7131 108.784C60.5851 109.264 59.3131 109.504 57.8971 109.504C56.5051 109.504 55.2331 109.264 54.0811 108.784C52.9531 108.304 51.9811 107.632 51.1651 106.768C50.3491 105.88 49.7131 104.824 49.2571 103.6C48.8011 102.352 48.5731 100.984 48.5731 99.496C48.5731 98.008 48.8011 96.652 49.2571 95.428C49.7371 94.204 50.3851 93.16 51.2011 92.296C52.0411 91.432 53.0251 90.76 54.1531 90.28C55.3051 89.8 56.5531 89.56 57.8971 89.56C59.2651 89.56 60.5131 89.8 61.6411 90.28C62.7931 90.76 63.7771 91.432 64.5931 92.296C65.4091 93.16 66.0451 94.204 66.5011 95.428C66.9571 96.652 67.1851 98.008 67.1851 99.496ZM61.7131 99.496C61.7131 97.84 61.3771 96.544 60.7051 95.608C60.0571 94.648 59.1211 94.168 57.8971 94.168C56.6731 94.168 55.7251 94.648 55.0531 95.608C54.3811 96.544 54.0451 97.84 54.0451 99.496C54.0451 101.152 54.3811 102.472 55.0531 103.456C55.7251 104.416 56.6731 104.896 57.8971 104.896C59.1211 104.896 60.0571 104.416 60.7051 103.456C61.3771 102.472 61.7131 101.152 61.7131 99.496ZM70.4403 99.532C70.4403 98.164 70.6563 96.88 71.0883 95.68C71.5443 94.456 72.1923 93.4 73.0323 92.512C73.8723 91.6 74.8923 90.88 76.0923 90.352C77.2923 89.824 78.6603 89.56 80.1963 89.56C81.2043 89.56 82.1283 89.656 82.9683 89.848C83.8083 90.016 84.6243 90.268 85.4163 90.604L84.3003 94.888C83.7963 94.696 83.2443 94.528 82.6443 94.384C82.0443 94.24 81.3723 94.168 80.6283 94.168C79.0443 94.168 77.8563 94.66 77.0643 95.644C76.2963 96.628 75.9123 97.924 75.9123 99.532C75.9123 101.236 76.2723 102.556 76.9923 103.492C77.7363 104.428 79.0203 104.896 80.8443 104.896C81.4923 104.896 82.1883 104.836 82.9323 104.716C83.6763 104.596 84.3603 104.404 84.9843 104.14L85.7403 108.532C85.1163 108.796 84.3363 109.024 83.4003 109.216C82.4643 109.408 81.4323 109.504 80.3043 109.504C78.5763 109.504 77.0883 109.252 75.8403 108.748C74.5923 108.22 73.5603 107.512 72.7443 106.624C71.9523 105.736 71.3643 104.692 70.9803 103.492C70.6203 102.268 70.4403 100.948 70.4403 99.532ZM94.7043 109H89.3403V90.064H94.7043V109ZM95.2083 84.592C95.2083 85.576 94.8843 86.356 94.2363 86.932C93.6123 87.484 92.8683 87.76 92.0043 87.76C91.1403 87.76 90.3843 87.484 89.7363 86.932C89.1123 86.356 88.8003 85.576 88.8003 84.592C88.8003 83.608 89.1123 82.84 89.7363 82.288C90.3843 81.712 91.1403 81.424 92.0043 81.424C92.8683 81.424 93.6123 81.712 94.2363 82.288C94.8843 82.84 95.2083 83.608 95.2083 84.592ZM106.983 105.256C107.511 105.256 108.015 105.244 108.495 105.22C108.975 105.196 109.359 105.16 109.647 105.112V101.044C109.431 100.996 109.107 100.948 108.675 100.9C108.243 100.852 107.847 100.828 107.487 100.828C106.983 100.828 106.503 100.864 106.047 100.936C105.615 100.984 105.231 101.092 104.895 101.26C104.559 101.428 104.295 101.656 104.103 101.944C103.911 102.232 103.815 102.592 103.815 103.024C103.815 103.864 104.091 104.452 104.643 104.788C105.219 105.1 105.999 105.256 106.983 105.256ZM106.551 89.56C108.135 89.56 109.455 89.74 110.511 90.1C111.567 90.46 112.407 90.976 113.031 91.648C113.679 92.32 114.135 93.136 114.399 94.096C114.663 95.056 114.795 96.124 114.795 97.3V108.46C114.027 108.628 112.959 108.82 111.591 109.036C110.223 109.276 108.567 109.396 106.623 109.396C105.399 109.396 104.283 109.288 103.275 109.072C102.291 108.856 101.439 108.508 100.719 108.028C99.9986 107.524 99.4466 106.876 99.0626 106.084C98.6786 105.292 98.4866 104.32 98.4866 103.168C98.4866 102.064 98.7026 101.128 99.1346 100.36C99.5906 99.592 100.191 98.98 100.935 98.524C101.679 98.068 102.531 97.744 103.491 97.552C104.451 97.336 105.447 97.228 106.479 97.228C107.175 97.228 107.787 97.264 108.315 97.336C108.867 97.384 109.311 97.456 109.647 97.552V97.048C109.647 96.136 109.371 95.404 108.819 94.852C108.267 94.3 107.307 94.024 105.939 94.024C105.027 94.024 104.127 94.096 103.239 94.24C102.351 94.36 101.583 94.54 100.935 94.78L100.251 90.46C100.563 90.364 100.947 90.268 101.403 90.172C101.883 90.052 102.399 89.956 102.951 89.884C103.503 89.788 104.079 89.716 104.679 89.668C105.303 89.596 105.927 89.56 106.551 89.56ZM127.205 109.36C125.645 109.336 124.373 109.168 123.389 108.856C122.429 108.544 121.661 108.112 121.085 107.56C120.533 106.984 120.149 106.3 119.933 105.508C119.741 104.692 119.645 103.78 119.645 102.772V81.928L125.009 81.064V101.692C125.009 102.172 125.045 102.604 125.117 102.988C125.189 103.372 125.321 103.696 125.513 103.96C125.729 104.224 126.029 104.44 126.413 104.608C126.797 104.776 127.313 104.884 127.961 104.932L127.205 109.36ZM146.668 84.052C147.1 84.844 147.592 85.828 148.144 87.004C148.72 88.156 149.308 89.416 149.908 90.784C150.532 92.128 151.144 93.508 151.744 94.924C152.344 96.34 152.908 97.672 153.436 98.92C153.964 97.672 154.528 96.34 155.128 94.924C155.728 93.508 156.328 92.128 156.928 90.784C157.552 89.416 158.14 88.156 158.692 87.004C159.268 85.828 159.772 84.844 160.204 84.052H165.316C165.556 85.708 165.772 87.568 165.964 89.632C166.18 91.672 166.36 93.808 166.504 96.04C166.672 98.248 166.816 100.468 166.936 102.7C167.08 104.932 167.2 107.032 167.296 109H161.824C161.752 106.576 161.656 103.936 161.536 101.08C161.416 98.224 161.236 95.344 160.996 92.44C160.564 93.448 160.084 94.564 159.556 95.788C159.028 97.012 158.5 98.236 157.972 99.46C157.468 100.684 156.976 101.86 156.496 102.988C156.016 104.092 155.608 105.04 155.272 105.832H151.348C151.012 105.04 150.604 104.092 150.124 102.988C149.644 101.86 149.14 100.684 148.612 99.46C148.108 98.236 147.592 97.012 147.064 95.788C146.536 94.564 146.056 93.448 145.624 92.44C145.384 95.344 145.204 98.224 145.084 101.08C144.964 103.936 144.868 106.576 144.796 109H139.324C139.42 107.032 139.528 104.932 139.648 102.7C139.792 100.468 139.936 98.248 140.08 96.04C140.248 93.808 140.428 91.672 140.62 89.632C140.836 87.568 141.064 85.708 141.304 84.052H146.668ZM171.093 99.676C171.093 97.996 171.345 96.532 171.849 95.284C172.377 94.012 173.061 92.956 173.901 92.116C174.741 91.276 175.701 90.64 176.781 90.208C177.885 89.776 179.013 89.56 180.165 89.56C182.853 89.56 184.977 90.388 186.537 92.044C188.097 93.676 188.877 96.088 188.877 99.28C188.877 99.592 188.865 99.94 188.841 100.324C188.817 100.684 188.793 101.008 188.769 101.296H176.601C176.721 102.4 177.237 103.276 178.149 103.924C179.061 104.572 180.285 104.896 181.821 104.896C182.805 104.896 183.765 104.812 184.701 104.644C185.661 104.452 186.441 104.224 187.041 103.96L187.761 108.316C187.473 108.46 187.089 108.604 186.609 108.748C186.129 108.892 185.589 109.012 184.989 109.108C184.413 109.228 183.789 109.324 183.117 109.396C182.445 109.468 181.773 109.504 181.101 109.504C179.397 109.504 177.909 109.252 176.637 108.748C175.389 108.244 174.345 107.56 173.505 106.696C172.689 105.808 172.077 104.764 171.669 103.564C171.285 102.364 171.093 101.068 171.093 99.676ZM183.693 97.624C183.669 97.168 183.585 96.724 183.441 96.292C183.321 95.86 183.117 95.476 182.829 95.14C182.565 94.804 182.217 94.528 181.785 94.312C181.377 94.096 180.861 93.988 180.237 93.988C179.637 93.988 179.121 94.096 178.689 94.312C178.257 94.504 177.897 94.768 177.609 95.104C177.321 95.44 177.093 95.836 176.925 96.292C176.781 96.724 176.673 97.168 176.601 97.624H183.693ZM197.588 99.388C197.588 101.044 197.96 102.376 198.704 103.384C199.448 104.392 200.552 104.896 202.016 104.896C202.496 104.896 202.94 104.884 203.348 104.86C203.756 104.812 204.092 104.764 204.356 104.716V94.96C204.02 94.744 203.576 94.564 203.024 94.42C202.496 94.276 201.956 94.204 201.404 94.204C198.86 94.204 197.588 95.932 197.588 99.388ZM209.72 108.388C209.24 108.532 208.688 108.676 208.064 108.82C207.44 108.94 206.78 109.048 206.084 109.144C205.412 109.24 204.716 109.312 203.996 109.36C203.3 109.432 202.628 109.468 201.98 109.468C200.42 109.468 199.028 109.24 197.804 108.784C196.58 108.328 195.548 107.68 194.708 106.84C193.868 105.976 193.22 104.944 192.764 103.744C192.332 102.52 192.116 101.152 192.116 99.64C192.116 98.104 192.308 96.724 192.692 95.5C193.076 94.252 193.628 93.196 194.348 92.332C195.068 91.468 195.944 90.808 196.976 90.352C198.032 89.896 199.232 89.668 200.576 89.668C201.32 89.668 201.98 89.74 202.556 89.884C203.156 90.028 203.756 90.232 204.356 90.496V81.928L209.72 81.064V108.388ZM220.107 109H214.743V90.064H220.107V109ZM220.611 84.592C220.611 85.576 220.287 86.356 219.639 86.932C219.015 87.484 218.271 87.76 217.407 87.76C216.543 87.76 215.787 87.484 215.139 86.932C214.515 86.356 214.203 85.576 214.203 84.592C214.203 83.608 214.515 82.84 215.139 82.288C215.787 81.712 216.543 81.424 217.407 81.424C218.271 81.424 219.015 81.712 219.639 82.288C220.287 82.84 220.611 83.608 220.611 84.592ZM232.385 105.256C232.913 105.256 233.417 105.244 233.897 105.22C234.377 105.196 234.761 105.16 235.049 105.112V101.044C234.833 100.996 234.509 100.948 234.077 100.9C233.645 100.852 233.249 100.828 232.889 100.828C232.385 100.828 231.905 100.864 231.449 100.936C231.017 100.984 230.633 101.092 230.297 101.26C229.961 101.428 229.697 101.656 229.505 101.944C229.313 102.232 229.217 102.592 229.217 103.024C229.217 103.864 229.493 104.452 230.045 104.788C230.621 105.1 231.401 105.256 232.385 105.256ZM231.953 89.56C233.537 89.56 234.857 89.74 235.913 90.1C236.969 90.46 237.809 90.976 238.433 91.648C239.081 92.32 239.537 93.136 239.801 94.096C240.065 95.056 240.197 96.124 240.197 97.3V108.46C239.429 108.628 238.361 108.82 236.993 109.036C235.625 109.276 233.969 109.396 232.025 109.396C230.801 109.396 229.685 109.288 228.677 109.072C227.693 108.856 226.841 108.508 226.121 108.028C225.401 107.524 224.849 106.876 224.465 106.084C224.081 105.292 223.889 104.32 223.889 103.168C223.889 102.064 224.105 101.128 224.537 100.36C224.993 99.592 225.593 98.98 226.337 98.524C227.081 98.068 227.933 97.744 228.893 97.552C229.853 97.336 230.849 97.228 231.881 97.228C232.577 97.228 233.189 97.264 233.717 97.336C234.269 97.384 234.713 97.456 235.049 97.552V97.048C235.049 96.136 234.773 95.404 234.221 94.852C233.669 94.3 232.709 94.024 231.341 94.024C230.429 94.024 229.529 94.096 228.641 94.24C227.753 94.36 226.985 94.54 226.337 94.78L225.653 90.46C225.965 90.364 226.349 90.268 226.805 90.172C227.285 90.052 227.801 89.956 228.353 89.884C228.905 89.788 229.481 89.716 230.081 89.668C230.705 89.596 231.329 89.56 231.953 89.56ZM35.756 146.256C36.284 146.256 36.788 146.244 37.268 146.22C37.748 146.196 38.132 146.16 38.42 146.112V142.044C38.204 141.996 37.88 141.948 37.448 141.9C37.016 141.852 36.62 141.828 36.26 141.828C35.756 141.828 35.276 141.864 34.82 141.936C34.388 141.984 34.004 142.092 33.668 142.26C33.332 142.428 33.068 142.656 32.876 142.944C32.684 143.232 32.588 143.592 32.588 144.024C32.588 144.864 32.864 145.452 33.416 145.788C33.992 146.1 34.772 146.256 35.756 146.256ZM35.324 130.56C36.908 130.56 38.228 130.74 39.284 131.1C40.34 131.46 41.18 131.976 41.804 132.648C42.452 133.32 42.908 134.136 43.172 135.096C43.436 136.056 43.568 137.124 43.568 138.3V149.46C42.8 149.628 41.732 149.82 40.364 150.036C38.996 150.276 37.34 150.396 35.396 150.396C34.172 150.396 33.056 150.288 32.048 150.072C31.064 149.856 30.212 149.508 29.492 149.028C28.772 148.524 28.22 147.876 27.836 147.084C27.452 146.292 27.26 145.32 27.26 144.168C27.26 143.064 27.476 142.128 27.908 141.36C28.364 140.592 28.964 139.98 29.708 139.524C30.452 139.068 31.304 138.744 32.264 138.552C33.224 138.336 34.22 138.228 35.252 138.228C35.948 138.228 36.56 138.264 37.088 138.336C37.64 138.384 38.084 138.456 38.42 138.552V138.048C38.42 137.136 38.144 136.404 37.592 135.852C37.04 135.3 36.08 135.024 34.712 135.024C33.8 135.024 32.9 135.096 32.012 135.24C31.124 135.36 30.356 135.54 29.708 135.78L29.024 131.46C29.336 131.364 29.72 131.268 30.176 131.172C30.656 131.052 31.172 130.956 31.724 130.884C32.276 130.788 32.852 130.716 33.452 130.668C34.076 130.596 34.7 130.56 35.324 130.56ZM60.5504 140.676C60.5504 139.02 60.1784 137.7 59.4344 136.716C58.6904 135.708 57.5864 135.204 56.1224 135.204C55.6424 135.204 55.1984 135.228 54.7904 135.276C54.3824 135.3 54.0464 135.336 53.7824 135.384V145.068C54.1184 145.284 54.5504 145.464 55.0784 145.608C55.6304 145.752 56.1824 145.824 56.7344 145.824C59.2784 145.824 60.5504 144.108 60.5504 140.676ZM66.0224 140.532C66.0224 141.996 65.8424 143.328 65.4824 144.528C65.1224 145.728 64.5944 146.76 63.8984 147.624C63.2024 148.488 62.3384 149.16 61.3064 149.64C60.2744 150.12 59.0864 150.36 57.7424 150.36C56.9984 150.36 56.3024 150.288 55.6544 150.144C55.0064 150 54.3824 149.796 53.7824 149.532V156.66H48.4184V131.712C48.8984 131.568 49.4504 131.436 50.0744 131.316C50.6984 131.172 51.3464 131.052 52.0184 130.956C52.7144 130.86 53.4104 130.788 54.1064 130.74C54.8264 130.668 55.5104 130.632 56.1584 130.632C57.7184 130.632 59.1104 130.872 60.3344 131.352C61.5584 131.808 62.5904 132.468 63.4304 133.332C64.2704 134.172 64.9064 135.204 65.3384 136.428C65.7944 137.652 66.0224 139.02 66.0224 140.532ZM82.277 140.676C82.277 139.02 81.905 137.7 81.161 136.716C80.417 135.708 79.313 135.204 77.849 135.204C77.369 135.204 76.925 135.228 76.517 135.276C76.109 135.3 75.773 135.336 75.509 135.384V145.068C75.845 145.284 76.277 145.464 76.805 145.608C77.357 145.752 77.909 145.824 78.461 145.824C81.005 145.824 82.277 144.108 82.277 140.676ZM87.749 140.532C87.749 141.996 87.569 143.328 87.209 144.528C86.849 145.728 86.321 146.76 85.625 147.624C84.929 148.488 84.065 149.16 83.033 149.64C82.001 150.12 80.813 150.36 79.469 150.36C78.725 150.36 78.029 150.288 77.381 150.144C76.733 150 76.109 149.796 75.509 149.532V156.66H70.145V131.712C70.625 131.568 71.177 131.436 71.801 131.316C72.425 131.172 73.073 131.052 73.745 130.956C74.441 130.86 75.137 130.788 75.833 130.74C76.553 130.668 77.237 130.632 77.885 130.632C79.445 130.632 80.837 130.872 82.061 131.352C83.285 131.808 84.317 132.468 85.157 133.332C85.997 134.172 86.633 135.204 87.065 136.428C87.521 137.652 87.749 139.02 87.749 140.532ZM109.196 150.324C107.828 150.324 106.46 150.276 105.092 150.18C103.748 150.108 102.344 149.916 100.88 149.604V125.412C102.032 125.196 103.292 125.04 104.66 124.944C106.028 124.824 107.3 124.764 108.476 124.764C110.06 124.764 111.512 124.884 112.832 125.124C114.176 125.34 115.328 125.724 116.288 126.276C117.248 126.828 117.992 127.56 118.52 128.472C119.072 129.36 119.348 130.464 119.348 131.784C119.348 133.776 118.388 135.348 116.468 136.5C118.052 137.1 119.132 137.916 119.708 138.948C120.284 139.98 120.572 141.144 120.572 142.44C120.572 145.056 119.612 147.024 117.692 148.344C115.796 149.664 112.964 150.324 109.196 150.324ZM106.352 139.128V145.572C106.76 145.62 107.204 145.656 107.684 145.68C108.164 145.704 108.692 145.716 109.268 145.716C110.948 145.716 112.304 145.476 113.336 144.996C114.368 144.516 114.884 143.628 114.884 142.332C114.884 141.18 114.452 140.364 113.588 139.884C112.724 139.38 111.488 139.128 109.88 139.128H106.352ZM106.352 134.844H109.088C110.816 134.844 112.052 134.628 112.796 134.196C113.54 133.74 113.912 133.02 113.912 132.036C113.912 131.028 113.528 130.32 112.76 129.912C111.992 129.504 110.864 129.3 109.376 129.3C108.896 129.3 108.38 129.312 107.828 129.336C107.276 129.336 106.784 129.36 106.352 129.408V134.844ZM140.872 149.352C139.96 149.616 138.784 149.856 137.344 150.072C135.904 150.312 134.392 150.432 132.808 150.432C131.2 150.432 129.856 150.216 128.776 149.784C127.72 149.352 126.88 148.752 126.256 147.984C125.632 147.192 125.188 146.256 124.924 145.176C124.66 144.096 124.528 142.908 124.528 141.612V131.064H129.892V140.964C129.892 142.692 130.12 143.94 130.576 144.708C131.032 145.476 131.884 145.86 133.132 145.86C133.516 145.86 133.924 145.848 134.356 145.824C134.788 145.776 135.172 145.728 135.508 145.68V131.064H140.872V149.352ZM151.271 150H145.907V131.064H151.271V150ZM151.775 125.592C151.775 126.576 151.451 127.356 150.803 127.932C150.179 128.484 149.435 128.76 148.571 128.76C147.707 128.76 146.951 128.484 146.303 127.932C145.679 127.356 145.367 126.576 145.367 125.592C145.367 124.608 145.679 123.84 146.303 123.288C146.951 122.712 147.707 122.424 148.571 122.424C149.435 122.424 150.179 122.712 150.803 123.288C151.451 123.84 151.775 124.608 151.775 125.592ZM163.873 150.36C162.313 150.336 161.041 150.168 160.057 149.856C159.097 149.544 158.329 149.112 157.753 148.56C157.201 147.984 156.817 147.3 156.601 146.508C156.409 145.692 156.313 144.78 156.313 143.772V122.928L161.677 122.064V142.692C161.677 143.172 161.713 143.604 161.785 143.988C161.857 144.372 161.989 144.696 162.181 144.96C162.397 145.224 162.697 145.44 163.081 145.608C163.465 145.776 163.981 145.884 164.629 145.932L163.873 150.36ZM172.276 140.388C172.276 142.044 172.648 143.376 173.392 144.384C174.136 145.392 175.24 145.896 176.704 145.896C177.184 145.896 177.628 145.884 178.036 145.86C178.444 145.812 178.78 145.764 179.044 145.716V135.96C178.708 135.744 178.264 135.564 177.712 135.42C177.184 135.276 176.644 135.204 176.092 135.204C173.548 135.204 172.276 136.932 172.276 140.388ZM184.408 149.388C183.928 149.532 183.376 149.676 182.752 149.82C182.128 149.94 181.468 150.048 180.772 150.144C180.1 150.24 179.404 150.312 178.684 150.36C177.988 150.432 177.316 150.468 176.668 150.468C175.108 150.468 173.716 150.24 172.492 149.784C171.268 149.328 170.236 148.68 169.396 147.84C168.556 146.976 167.908 145.944 167.452 144.744C167.02 143.52 166.804 142.152 166.804 140.64C166.804 139.104 166.996 137.724 167.38 136.5C167.764 135.252 168.316 134.196 169.036 133.332C169.756 132.468 170.632 131.808 171.664 131.352C172.72 130.896 173.92 130.668 175.264 130.668C176.008 130.668 176.668 130.74 177.244 130.884C177.844 131.028 178.444 131.232 179.044 131.496V122.928L184.408 122.064V149.388ZM38.636 191.504C36.884 191.504 35.372 191.264 34.1 190.784C32.828 190.28 31.772 189.596 30.932 188.732C30.116 187.844 29.504 186.8 29.096 185.6C28.712 184.376 28.52 183.032 28.52 181.568V166.052H34.136V181.1C34.136 182.108 34.244 182.972 34.46 183.692C34.7 184.388 35.012 184.964 35.396 185.42C35.804 185.852 36.284 186.164 36.836 186.356C37.412 186.548 38.036 186.644 38.708 186.644C40.076 186.644 41.18 186.224 42.02 185.384C42.884 184.544 43.316 183.116 43.316 181.1V166.052H48.932V181.568C48.932 183.032 48.728 184.376 48.32 185.6C47.912 186.824 47.288 187.88 46.448 188.768C45.608 189.632 44.54 190.304 43.244 190.784C41.948 191.264 40.412 191.504 38.636 191.504ZM59.4091 187.148C60.3931 187.148 61.0891 187.052 61.4971 186.86C61.9051 186.668 62.1091 186.296 62.1091 185.744C62.1091 185.312 61.8451 184.94 61.3171 184.628C60.7891 184.292 59.9851 183.92 58.9051 183.512C58.0651 183.2 57.2971 182.876 56.6011 182.54C55.9291 182.204 55.3531 181.808 54.8731 181.352C54.3931 180.872 54.0211 180.308 53.7571 179.66C53.4931 179.012 53.3611 178.232 53.3611 177.32C53.3611 175.544 54.0211 174.14 55.3411 173.108C56.6611 172.076 58.4731 171.56 60.7771 171.56C61.9291 171.56 63.0331 171.668 64.0891 171.884C65.1451 172.076 65.9851 172.292 66.6091 172.532L65.6731 176.708C65.0491 176.492 64.3651 176.3 63.6211 176.132C62.9011 175.964 62.0851 175.88 61.1731 175.88C59.4931 175.88 58.6531 176.348 58.6531 177.284C58.6531 177.5 58.6891 177.692 58.7611 177.86C58.8331 178.028 58.9771 178.196 59.1931 178.364C59.4091 178.508 59.6971 178.676 60.0571 178.868C60.4411 179.036 60.9211 179.228 61.4971 179.444C62.6731 179.876 63.6451 180.308 64.4131 180.74C65.1811 181.148 65.7811 181.604 66.2131 182.108C66.6691 182.588 66.9811 183.128 67.1491 183.728C67.3411 184.328 67.4371 185.024 67.4371 185.816C67.4371 187.688 66.7291 189.104 65.3131 190.064C63.9211 191.024 61.9411 191.504 59.3731 191.504C57.6931 191.504 56.2891 191.36 55.1611 191.072C54.0571 190.784 53.2891 190.544 52.8571 190.352L53.7571 185.996C54.6691 186.356 55.6051 186.644 56.5651 186.86C57.5251 187.052 58.4731 187.148 59.4091 187.148ZM76.8098 191H71.4458V172.064H76.8098V191ZM77.3138 166.592C77.3138 167.576 76.9898 168.356 76.3418 168.932C75.7178 169.484 74.9738 169.76 74.1098 169.76C73.2458 169.76 72.4898 169.484 71.8418 168.932C71.2178 168.356 70.9058 167.576 70.9058 166.592C70.9058 165.608 71.2178 164.84 71.8418 164.288C72.4898 163.712 73.2458 163.424 74.1098 163.424C74.9738 163.424 75.7178 163.712 76.3418 164.288C76.9898 164.84 77.3138 165.608 77.3138 166.592ZM81.852 172.712C82.764 172.448 83.94 172.208 85.38 171.992C86.82 171.752 88.332 171.632 89.916 171.632C91.524 171.632 92.856 171.848 93.912 172.28C94.992 172.688 95.844 173.276 96.468 174.044C97.092 174.812 97.536 175.724 97.8 176.78C98.064 177.836 98.196 179.012 98.196 180.308V191H92.832V180.956C92.832 179.228 92.604 178.004 92.148 177.284C91.692 176.564 90.84 176.204 89.592 176.204C89.208 176.204 88.8 176.228 88.368 176.276C87.936 176.3 87.552 176.336 87.216 176.384V191H81.852V172.712ZM107.623 180.92C107.623 183.92 108.835 185.42 111.259 185.42C111.811 185.42 112.327 185.348 112.807 185.204C113.287 185.06 113.695 184.892 114.031 184.7V176.132C113.767 176.084 113.455 176.048 113.095 176.024C112.735 175.976 112.315 175.952 111.835 175.952C110.419 175.952 109.363 176.42 108.667 177.356C107.971 178.292 107.623 179.48 107.623 180.92ZM119.395 188.624C119.395 191.72 118.603 194.012 117.019 195.5C115.459 197.012 113.035 197.768 109.747 197.768C108.595 197.768 107.443 197.66 106.291 197.444C105.139 197.252 104.071 196.988 103.087 196.652L104.023 192.152C104.863 192.488 105.739 192.752 106.651 192.944C107.587 193.136 108.643 193.232 109.819 193.232C111.355 193.232 112.435 192.896 113.059 192.224C113.707 191.552 114.031 190.688 114.031 189.632V188.948C113.455 189.212 112.855 189.416 112.231 189.56C111.631 189.68 110.971 189.74 110.251 189.74C107.635 189.74 105.631 188.972 104.239 187.436C102.847 185.876 102.151 183.704 102.151 180.92C102.151 179.528 102.367 178.268 102.799 177.14C103.231 175.988 103.855 175.004 104.671 174.188C105.511 173.372 106.531 172.748 107.731 172.316C108.931 171.86 110.287 171.632 111.799 171.632C112.447 171.632 113.107 171.668 113.779 171.74C114.475 171.788 115.159 171.86 115.831 171.956C116.503 172.052 117.139 172.172 117.739 172.316C118.363 172.436 118.915 172.568 119.395 172.712V188.624ZM140.743 165.764C144.487 165.764 147.355 166.436 149.347 167.78C151.339 169.1 152.335 171.164 152.335 173.972C152.335 175.724 151.927 177.152 151.111 178.256C150.319 179.336 149.167 180.188 147.655 180.812C148.159 181.436 148.687 182.156 149.239 182.972C149.791 183.764 150.331 184.604 150.859 185.492C151.411 186.356 151.939 187.268 152.443 188.228C152.947 189.164 153.415 190.088 153.847 191H147.547C147.091 190.184 146.623 189.356 146.143 188.516C145.687 187.676 145.207 186.86 144.703 186.068C144.223 185.276 143.743 184.532 143.263 183.836C142.783 183.116 142.303 182.468 141.823 181.892H139.051V191H133.435V166.412C134.659 166.172 135.919 166.004 137.215 165.908C138.535 165.812 139.711 165.764 140.743 165.764ZM141.067 170.552C140.659 170.552 140.287 170.564 139.951 170.588C139.639 170.612 139.339 170.636 139.051 170.66V177.428H140.635C142.747 177.428 144.259 177.164 145.171 176.636C146.083 176.108 146.539 175.208 146.539 173.936C146.539 172.712 146.071 171.848 145.135 171.344C144.223 170.816 142.867 170.552 141.067 170.552ZM155.272 181.676C155.272 179.996 155.524 178.532 156.028 177.284C156.556 176.012 157.24 174.956 158.08 174.116C158.92 173.276 159.88 172.64 160.96 172.208C162.064 171.776 163.192 171.56 164.344 171.56C167.032 171.56 169.156 172.388 170.716 174.044C172.276 175.676 173.056 178.088 173.056 181.28C173.056 181.592 173.044 181.94 173.02 182.324C172.996 182.684 172.972 183.008 172.948 183.296H160.78C160.9 184.4 161.416 185.276 162.328 185.924C163.24 186.572 164.464 186.896 166 186.896C166.984 186.896 167.944 186.812 168.88 186.644C169.84 186.452 170.62 186.224 171.22 185.96L171.94 190.316C171.652 190.46 171.268 190.604 170.788 190.748C170.308 190.892 169.768 191.012 169.168 191.108C168.592 191.228 167.968 191.324 167.296 191.396C166.624 191.468 165.952 191.504 165.28 191.504C163.576 191.504 162.088 191.252 160.816 190.748C159.568 190.244 158.524 189.56 157.684 188.696C156.868 187.808 156.256 186.764 155.848 185.564C155.464 184.364 155.272 183.068 155.272 181.676ZM167.872 179.624C167.848 179.168 167.764 178.724 167.62 178.292C167.5 177.86 167.296 177.476 167.008 177.14C166.744 176.804 166.396 176.528 165.964 176.312C165.556 176.096 165.04 175.988 164.416 175.988C163.816 175.988 163.3 176.096 162.868 176.312C162.436 176.504 162.076 176.768 161.788 177.104C161.5 177.44 161.272 177.836 161.104 178.292C160.96 178.724 160.852 179.168 160.78 179.624H167.872ZM184.432 187.256C184.96 187.256 185.464 187.244 185.944 187.22C186.424 187.196 186.808 187.16 187.096 187.112V183.044C186.88 182.996 186.556 182.948 186.124 182.9C185.692 182.852 185.296 182.828 184.936 182.828C184.432 182.828 183.952 182.864 183.496 182.936C183.064 182.984 182.68 183.092 182.344 183.26C182.008 183.428 181.744 183.656 181.552 183.944C181.36 184.232 181.264 184.592 181.264 185.024C181.264 185.864 181.54 186.452 182.092 186.788C182.668 187.1 183.448 187.256 184.432 187.256ZM184 171.56C185.584 171.56 186.904 171.74 187.96 172.1C189.016 172.46 189.856 172.976 190.48 173.648C191.128 174.32 191.584 175.136 191.848 176.096C192.112 177.056 192.244 178.124 192.244 179.3V190.46C191.476 190.628 190.408 190.82 189.04 191.036C187.672 191.276 186.016 191.396 184.072 191.396C182.848 191.396 181.732 191.288 180.724 191.072C179.74 190.856 178.888 190.508 178.168 190.028C177.448 189.524 176.896 188.876 176.512 188.084C176.128 187.292 175.936 186.32 175.936 185.168C175.936 184.064 176.152 183.128 176.584 182.36C177.04 181.592 177.64 180.98 178.384 180.524C179.128 180.068 179.98 179.744 180.94 179.552C181.9 179.336 182.896 179.228 183.928 179.228C184.624 179.228 185.236 179.264 185.764 179.336C186.316 179.384 186.76 179.456 187.096 179.552V179.048C187.096 178.136 186.82 177.404 186.268 176.852C185.716 176.3 184.756 176.024 183.388 176.024C182.476 176.024 181.576 176.096 180.688 176.24C179.8 176.36 179.032 176.54 178.384 176.78L177.7 172.46C178.012 172.364 178.396 172.268 178.852 172.172C179.332 172.052 179.848 171.956 180.4 171.884C180.952 171.788 181.528 171.716 182.128 171.668C182.752 171.596 183.376 171.56 184 171.56ZM196.194 181.532C196.194 180.164 196.41 178.88 196.842 177.68C197.298 176.456 197.946 175.4 198.786 174.512C199.626 173.6 200.646 172.88 201.846 172.352C203.046 171.824 204.414 171.56 205.95 171.56C206.958 171.56 207.882 171.656 208.722 171.848C209.562 172.016 210.378 172.268 211.17 172.604L210.054 176.888C209.55 176.696 208.998 176.528 208.398 176.384C207.798 176.24 207.126 176.168 206.382 176.168C204.798 176.168 203.61 176.66 202.818 177.644C202.05 178.628 201.666 179.924 201.666 181.532C201.666 183.236 202.026 184.556 202.746 185.492C203.49 186.428 204.774 186.896 206.598 186.896C207.246 186.896 207.942 186.836 208.686 186.716C209.43 186.596 210.114 186.404 210.738 186.14L211.494 190.532C210.87 190.796 210.09 191.024 209.154 191.216C208.218 191.408 207.186 191.504 206.058 191.504C204.33 191.504 202.842 191.252 201.594 190.748C200.346 190.22 199.314 189.512 198.498 188.624C197.706 187.736 197.118 186.692 196.734 185.492C196.374 184.268 196.194 182.948 196.194 181.532ZM214.914 167.348L220.278 166.484V172.064H226.722V176.528H220.278V183.188C220.278 184.316 220.47 185.216 220.854 185.888C221.262 186.56 222.066 186.896 223.266 186.896C223.842 186.896 224.43 186.848 225.03 186.752C225.654 186.632 226.218 186.476 226.722 186.284L227.478 190.46C226.83 190.724 226.11 190.952 225.318 191.144C224.526 191.336 223.554 191.432 222.402 191.432C220.938 191.432 219.726 191.24 218.766 190.856C217.806 190.448 217.038 189.896 216.462 189.2C215.886 188.48 215.478 187.616 215.238 186.608C215.022 185.6 214.914 184.484 214.914 183.26V167.348ZM238.479 184.376C238.479 183.464 238.611 182.636 238.875 181.892C239.139 181.124 239.487 180.44 239.919 179.84C240.375 179.216 240.891 178.676 241.467 178.22C242.067 177.74 242.691 177.32 243.339 176.96C242.763 176.264 242.247 175.52 241.791 174.728C241.335 173.912 241.107 173.024 241.107 172.064C241.107 169.952 241.743 168.332 243.015 167.204C244.287 166.052 246.039 165.476 248.271 165.476C249.399 165.476 250.383 165.632 251.223 165.944C252.063 166.232 252.759 166.64 253.311 167.168C253.887 167.672 254.319 168.272 254.607 168.968C254.895 169.64 255.039 170.372 255.039 171.164C255.039 172.628 254.619 173.936 253.779 175.088C252.963 176.216 251.919 177.164 250.647 177.932L254.679 181.964C254.895 181.484 255.099 180.884 255.291 180.164C255.507 179.42 255.639 178.772 255.687 178.22L260.151 178.796C260.103 179.252 260.019 179.756 259.899 180.308C259.779 180.836 259.623 181.376 259.431 181.928C259.263 182.48 259.059 183.032 258.819 183.584C258.603 184.136 258.363 184.64 258.099 185.096C258.867 185.96 259.611 186.908 260.331 187.94C261.075 188.948 261.711 189.968 262.239 191H256.731C256.539 190.688 256.275 190.304 255.939 189.848C255.603 189.368 255.267 188.96 254.931 188.624C253.971 189.392 252.855 190.04 251.583 190.568C250.311 191.072 248.883 191.324 247.299 191.324C245.619 191.324 244.215 191.12 243.087 190.712C241.959 190.28 241.047 189.74 240.351 189.092C239.679 188.42 239.199 187.676 238.911 186.86C238.623 186.02 238.479 185.192 238.479 184.376ZM243.483 183.836C243.483 184.196 243.555 184.568 243.699 184.952C243.843 185.336 244.071 185.696 244.383 186.032C244.719 186.344 245.139 186.608 245.643 186.824C246.147 187.016 246.759 187.112 247.479 187.112C248.487 187.112 249.363 186.98 250.107 186.716C250.875 186.452 251.511 186.104 252.015 185.672L246.255 179.876C245.919 180.044 245.583 180.248 245.247 180.488C244.935 180.728 244.647 181.016 244.383 181.352C244.119 181.664 243.903 182.024 243.735 182.432C243.567 182.84 243.483 183.308 243.483 183.836ZM250.467 171.416C250.467 170.864 250.287 170.372 249.927 169.94C249.567 169.508 248.967 169.292 248.127 169.292C247.359 169.292 246.759 169.532 246.327 170.012C245.919 170.468 245.715 171.068 245.715 171.812C245.715 172.436 245.895 173.048 246.255 173.648C246.615 174.224 247.083 174.776 247.659 175.304C248.427 174.872 249.087 174.356 249.639 173.756C250.191 173.156 250.467 172.376 250.467 171.416ZM28.88 232V207.052H45.584V211.768H34.496V216.988H44.36V221.704H34.496V232H28.88ZM54.5559 232H49.1919V213.064H54.5559V232ZM55.0599 207.592C55.0599 208.576 54.7359 209.356 54.0879 209.932C53.4639 210.484 52.7199 210.76 51.8559 210.76C50.9919 210.76 50.2359 210.484 49.5879 209.932C48.9639 209.356 48.6519 208.576 48.6519 207.592C48.6519 206.608 48.9639 205.84 49.5879 205.288C50.2359 204.712 50.9919 204.424 51.8559 204.424C52.7199 204.424 53.4639 204.712 54.0879 205.288C54.7359 205.84 55.0599 206.608 55.0599 207.592ZM71.0101 217.816C70.5301 217.696 69.9661 217.576 69.3181 217.456C68.6701 217.312 67.9741 217.24 67.2301 217.24C66.8941 217.24 66.4861 217.276 66.0061 217.348C65.5501 217.396 65.2021 217.456 64.9621 217.528V232H59.5981V214.072C60.5581 213.736 61.6861 213.424 62.9821 213.136C64.3021 212.824 65.7661 212.668 67.3741 212.668C67.6621 212.668 68.0101 212.692 68.4181 212.74C68.8261 212.764 69.2341 212.812 69.6421 212.884C70.0501 212.932 70.4581 213.004 70.8661 213.1C71.2741 213.172 71.6221 213.268 71.9101 213.388L71.0101 217.816ZM73.5341 222.676C73.5341 220.996 73.7861 219.532 74.2901 218.284C74.8181 217.012 75.5021 215.956 76.3421 215.116C77.1821 214.276 78.1421 213.64 79.2221 213.208C80.3261 212.776 81.4541 212.56 82.6061 212.56C85.2941 212.56 87.4181 213.388 88.9781 215.044C90.5381 216.676 91.3181 219.088 91.3181 222.28C91.3181 222.592 91.3061 222.94 91.2821 223.324C91.2581 223.684 91.2341 224.008 91.2101 224.296H79.0421C79.1621 225.4 79.6781 226.276 80.5901 226.924C81.5021 227.572 82.7261 227.896 84.2621 227.896C85.2461 227.896 86.2061 227.812 87.1421 227.644C88.1021 227.452 88.8821 227.224 89.4821 226.96L90.2021 231.316C89.9141 231.46 89.5301 231.604 89.0501 231.748C88.5701 231.892 88.0301 232.012 87.4301 232.108C86.8541 232.228 86.2301 232.324 85.5581 232.396C84.8861 232.468 84.2141 232.504 83.5421 232.504C81.8381 232.504 80.3501 232.252 79.0781 231.748C77.8301 231.244 76.7861 230.56 75.9461 229.696C75.1301 228.808 74.5181 227.764 74.1101 226.564C73.7261 225.364 73.5341 224.068 73.5341 222.676ZM86.1341 220.624C86.1101 220.168 86.0261 219.724 85.8821 219.292C85.7621 218.86 85.5581 218.476 85.2701 218.14C85.0061 217.804 84.6581 217.528 84.2261 217.312C83.8181 217.096 83.3021 216.988 82.6781 216.988C82.0781 216.988 81.5621 217.096 81.1301 217.312C80.6981 217.504 80.3381 217.768 80.0501 218.104C79.7621 218.44 79.5341 218.836 79.3661 219.292C79.2221 219.724 79.1141 220.168 79.0421 220.624H86.1341ZM107.59 222.388C107.59 218.932 106.318 217.204 103.774 217.204C103.222 217.204 102.67 217.276 102.118 217.42C101.59 217.564 101.158 217.744 100.822 217.96V227.716C101.086 227.764 101.422 227.812 101.83 227.86C102.238 227.884 102.682 227.896 103.162 227.896C104.626 227.896 105.73 227.392 106.474 226.384C107.218 225.376 107.59 224.044 107.59 222.388ZM113.062 222.532C113.062 224.044 112.834 225.412 112.378 226.636C111.946 227.86 111.31 228.904 110.47 229.768C109.63 230.632 108.598 231.304 107.374 231.784C106.15 232.24 104.758 232.468 103.198 232.468C102.55 232.468 101.866 232.432 101.146 232.36C100.45 232.312 99.7535 232.24 99.0575 232.144C98.3855 232.048 97.7375 231.94 97.1135 231.82C96.4895 231.676 95.9375 231.532 95.4575 231.388V204.928L100.822 204.064V213.496C101.422 213.232 102.046 213.028 102.694 212.884C103.342 212.74 104.038 212.668 104.782 212.668C106.126 212.668 107.314 212.908 108.346 213.388C109.378 213.844 110.242 214.504 110.938 215.368C111.634 216.232 112.162 217.276 112.522 218.5C112.882 219.7 113.062 221.044 113.062 222.532ZM124.42 228.256C124.948 228.256 125.452 228.244 125.932 228.22C126.412 228.196 126.796 228.16 127.084 228.112V224.044C126.868 223.996 126.544 223.948 126.112 223.9C125.68 223.852 125.284 223.828 124.924 223.828C124.42 223.828 123.94 223.864 123.484 223.936C123.052 223.984 122.668 224.092 122.332 224.26C121.996 224.428 121.732 224.656 121.54 224.944C121.348 225.232 121.252 225.592 121.252 226.024C121.252 226.864 121.528 227.452 122.08 227.788C122.656 228.1 123.436 228.256 124.42 228.256ZM123.988 212.56C125.572 212.56 126.892 212.74 127.948 213.1C129.004 213.46 129.844 213.976 130.468 214.648C131.116 215.32 131.572 216.136 131.836 217.096C132.1 218.056 132.232 219.124 132.232 220.3V231.46C131.464 231.628 130.396 231.82 129.028 232.036C127.66 232.276 126.004 232.396 124.06 232.396C122.836 232.396 121.72 232.288 120.712 232.072C119.728 231.856 118.876 231.508 118.156 231.028C117.436 230.524 116.884 229.876 116.5 229.084C116.116 228.292 115.924 227.32 115.924 226.168C115.924 225.064 116.14 224.128 116.572 223.36C117.028 222.592 117.628 221.98 118.372 221.524C119.116 221.068 119.968 220.744 120.928 220.552C121.888 220.336 122.884 220.228 123.916 220.228C124.612 220.228 125.224 220.264 125.752 220.336C126.304 220.384 126.748 220.456 127.084 220.552V220.048C127.084 219.136 126.808 218.404 126.256 217.852C125.704 217.3 124.744 217.024 123.376 217.024C122.464 217.024 121.564 217.096 120.676 217.24C119.788 217.36 119.02 217.54 118.372 217.78L117.688 213.46C118 213.364 118.384 213.268 118.84 213.172C119.32 213.052 119.836 212.956 120.388 212.884C120.94 212.788 121.516 212.716 122.116 212.668C122.74 212.596 123.364 212.56 123.988 212.56ZM142.519 228.148C143.503 228.148 144.199 228.052 144.607 227.86C145.015 227.668 145.219 227.296 145.219 226.744C145.219 226.312 144.955 225.94 144.427 225.628C143.899 225.292 143.095 224.92 142.015 224.512C141.175 224.2 140.407 223.876 139.711 223.54C139.039 223.204 138.463 222.808 137.983 222.352C137.503 221.872 137.131 221.308 136.867 220.66C136.603 220.012 136.471 219.232 136.471 218.32C136.471 216.544 137.131 215.14 138.451 214.108C139.771 213.076 141.583 212.56 143.887 212.56C145.039 212.56 146.143 212.668 147.199 212.884C148.255 213.076 149.095 213.292 149.719 213.532L148.783 217.708C148.159 217.492 147.475 217.3 146.731 217.132C146.011 216.964 145.195 216.88 144.283 216.88C142.603 216.88 141.763 217.348 141.763 218.284C141.763 218.5 141.799 218.692 141.871 218.86C141.943 219.028 142.087 219.196 142.303 219.364C142.519 219.508 142.807 219.676 143.167 219.868C143.551 220.036 144.031 220.228 144.607 220.444C145.783 220.876 146.755 221.308 147.523 221.74C148.291 222.148 148.891 222.604 149.323 223.108C149.779 223.588 150.091 224.128 150.259 224.728C150.451 225.328 150.547 226.024 150.547 226.816C150.547 228.688 149.839 230.104 148.423 231.064C147.031 232.024 145.051 232.504 142.483 232.504C140.803 232.504 139.399 232.36 138.271 232.072C137.167 231.784 136.399 231.544 135.967 231.352L136.867 226.996C137.779 227.356 138.715 227.644 139.675 227.86C140.635 228.052 141.583 228.148 142.519 228.148ZM153.655 222.676C153.655 220.996 153.907 219.532 154.411 218.284C154.939 217.012 155.623 215.956 156.463 215.116C157.303 214.276 158.263 213.64 159.343 213.208C160.447 212.776 161.575 212.56 162.727 212.56C165.415 212.56 167.539 213.388 169.099 215.044C170.659 216.676 171.439 219.088 171.439 222.28C171.439 222.592 171.427 222.94 171.403 223.324C171.379 223.684 171.355 224.008 171.331 224.296H159.163C159.283 225.4 159.799 226.276 160.711 226.924C161.623 227.572 162.847 227.896 164.383 227.896C165.367 227.896 166.327 227.812 167.263 227.644C168.223 227.452 169.003 227.224 169.603 226.96L170.323 231.316C170.035 231.46 169.651 231.604 169.171 231.748C168.691 231.892 168.151 232.012 167.551 232.108C166.975 232.228 166.351 232.324 165.679 232.396C165.007 232.468 164.335 232.504 163.663 232.504C161.959 232.504 160.471 232.252 159.199 231.748C157.951 231.244 156.907 230.56 156.067 229.696C155.251 228.808 154.639 227.764 154.231 226.564C153.847 225.364 153.655 224.068 153.655 222.676ZM166.255 220.624C166.231 220.168 166.147 219.724 166.003 219.292C165.883 218.86 165.679 218.476 165.391 218.14C165.127 217.804 164.779 217.528 164.347 217.312C163.939 217.096 163.423 216.988 162.799 216.988C162.199 216.988 161.683 217.096 161.251 217.312C160.819 217.504 160.459 217.768 160.171 218.104C159.883 218.44 159.655 218.836 159.487 219.292C159.343 219.724 159.235 220.168 159.163 220.624H166.255Z" fill="#FAFF00"/>
<defs>
<linearGradient id="paint0_linear" x1="5.99999" y1="300" x2="300" y2="-5" gradientUnits="userSpaceOnUse">
<stop offset="0.436223" stop-color="#E20958"/>
<stop offset="0.9998" stop-color="#0A1ED1" stop-opacity="0.104167"/>
<stop offset="0.9999" stop-color="#00C537" stop-opacity="0"/>
</linearGradient>
</defs>
</svg>
