<svg width="308" height="308" viewBox="0 0 308 308" fill="none" xmlns="http://www.w3.org/2000/svg">
<g filter="url(#filter0_d)">
<rect x="4" width="300" height="300" fill="url(#paint0_linear)"/>
<rect x="4.5" y="0.5" width="299" height="299" stroke="black"/>
</g>
<path d="M62.188 100.764C65.932 100.764 68.8 101.436 70.792 102.78C72.784 104.1 73.78 106.164 73.78 108.972C73.78 110.724 73.372 112.152 72.556 113.256C71.764 114.336 70.612 115.188 69.1 115.812C69.604 116.436 70.132 117.156 70.684 117.972C71.236 118.764 71.776 119.604 72.304 120.492C72.856 121.356 73.384 122.268 73.888 123.228C74.392 124.164 74.86 125.088 75.292 126H68.992C68.536 125.184 68.068 124.356 67.588 123.516C67.132 122.676 66.652 121.86 66.148 121.068C65.668 120.276 65.188 119.532 64.708 118.836C64.228 118.116 63.748 117.468 63.268 116.892H60.496V126H54.88V101.412C56.104 101.172 57.364 101.004 58.66 100.908C59.98 100.812 61.156 100.764 62.188 100.764ZM62.512 105.552C62.104 105.552 61.732 105.564 61.396 105.588C61.084 105.612 60.784 105.636 60.496 105.66V112.428H62.08C64.192 112.428 65.704 112.164 66.616 111.636C67.528 111.108 67.984 110.208 67.984 108.936C67.984 107.712 67.516 106.848 66.58 106.344C65.668 105.816 64.312 105.552 62.512 105.552ZM76.7177 116.676C76.7177 114.996 76.9697 113.532 77.4737 112.284C78.0017 111.012 78.6857 109.956 79.5257 109.116C80.3657 108.276 81.3257 107.64 82.4057 107.208C83.5097 106.776 84.6377 106.56 85.7897 106.56C88.4777 106.56 90.6017 107.388 92.1617 109.044C93.7217 110.676 94.5017 113.088 94.5017 116.28C94.5017 116.592 94.4897 116.94 94.4657 117.324C94.4417 117.684 94.4177 118.008 94.3937 118.296H82.2257C82.3457 119.4 82.8617 120.276 83.7737 120.924C84.6857 121.572 85.9097 121.896 87.4457 121.896C88.4297 121.896 89.3897 121.812 90.3257 121.644C91.2857 121.452 92.0657 121.224 92.6657 120.96L93.3857 125.316C93.0977 125.46 92.7137 125.604 92.2337 125.748C91.7537 125.892 91.2137 126.012 90.6137 126.108C90.0377 126.228 89.4137 126.324 88.7417 126.396C88.0697 126.468 87.3977 126.504 86.7257 126.504C85.0217 126.504 83.5337 126.252 82.2617 125.748C81.0137 125.244 79.9697 124.56 79.1297 123.696C78.3137 122.808 77.7017 121.764 77.2937 120.564C76.9097 119.364 76.7177 118.068 76.7177 116.676ZM89.3177 114.624C89.2937 114.168 89.2097 113.724 89.0657 113.292C88.9457 112.86 88.7417 112.476 88.4537 112.14C88.1897 111.804 87.8417 111.528 87.4097 111.312C87.0017 111.096 86.4857 110.988 85.8617 110.988C85.2617 110.988 84.7457 111.096 84.3137 111.312C83.8817 111.504 83.5217 111.768 83.2337 112.104C82.9457 112.44 82.7177 112.836 82.5497 113.292C82.4057 113.724 82.2977 114.168 82.2257 114.624H89.3177ZM105.877 122.256C106.405 122.256 106.909 122.244 107.389 122.22C107.869 122.196 108.253 122.16 108.541 122.112V118.044C108.325 117.996 108.001 117.948 107.569 117.9C107.137 117.852 106.741 117.828 106.381 117.828C105.877 117.828 105.397 117.864 104.941 117.936C104.509 117.984 104.125 118.092 103.789 118.26C103.453 118.428 103.189 118.656 102.997 118.944C102.805 119.232 102.709 119.592 102.709 120.024C102.709 120.864 102.985 121.452 103.537 121.788C104.113 122.1 104.893 122.256 105.877 122.256ZM105.445 106.56C107.029 106.56 108.349 106.74 109.405 107.1C110.461 107.46 111.301 107.976 111.925 108.648C112.573 109.32 113.029 110.136 113.293 111.096C113.557 112.056 113.689 113.124 113.689 114.3V125.46C112.921 125.628 111.853 125.82 110.485 126.036C109.117 126.276 107.461 126.396 105.517 126.396C104.293 126.396 103.177 126.288 102.169 126.072C101.185 125.856 100.333 125.508 99.6131 125.028C98.8931 124.524 98.3411 123.876 97.9571 123.084C97.5731 122.292 97.3811 121.32 97.3811 120.168C97.3811 119.064 97.5971 118.128 98.0291 117.36C98.4851 116.592 99.0851 115.98 99.8291 115.524C100.573 115.068 101.425 114.744 102.385 114.552C103.345 114.336 104.341 114.228 105.373 114.228C106.069 114.228 106.681 114.264 107.209 114.336C107.761 114.384 108.205 114.456 108.541 114.552V114.048C108.541 113.136 108.265 112.404 107.713 111.852C107.161 111.3 106.201 111.024 104.833 111.024C103.921 111.024 103.021 111.096 102.133 111.24C101.245 111.36 100.477 111.54 99.8291 111.78L99.1451 107.46C99.4571 107.364 99.8411 107.268 100.297 107.172C100.777 107.052 101.293 106.956 101.845 106.884C102.397 106.788 102.973 106.716 103.573 106.668C104.197 106.596 104.821 106.56 105.445 106.56ZM117.64 116.532C117.64 115.164 117.856 113.88 118.288 112.68C118.744 111.456 119.392 110.4 120.232 109.512C121.072 108.6 122.092 107.88 123.292 107.352C124.492 106.824 125.86 106.56 127.396 106.56C128.404 106.56 129.328 106.656 130.168 106.848C131.008 107.016 131.824 107.268 132.616 107.604L131.5 111.888C130.996 111.696 130.444 111.528 129.844 111.384C129.244 111.24 128.572 111.168 127.828 111.168C126.244 111.168 125.056 111.66 124.264 112.644C123.496 113.628 123.112 114.924 123.112 116.532C123.112 118.236 123.472 119.556 124.192 120.492C124.936 121.428 126.22 121.896 128.044 121.896C128.692 121.896 129.388 121.836 130.132 121.716C130.876 121.596 131.56 121.404 132.184 121.14L132.94 125.532C132.316 125.796 131.536 126.024 130.6 126.216C129.664 126.408 128.632 126.504 127.504 126.504C125.776 126.504 124.288 126.252 123.04 125.748C121.792 125.22 120.76 124.512 119.944 123.624C119.152 122.736 118.564 121.692 118.18 120.492C117.82 119.268 117.64 117.948 117.64 116.532ZM136.36 102.348L141.724 101.484V107.064H148.168V111.528H141.724V118.188C141.724 119.316 141.916 120.216 142.3 120.888C142.708 121.56 143.512 121.896 144.712 121.896C145.288 121.896 145.876 121.848 146.476 121.752C147.1 121.632 147.664 121.476 148.168 121.284L148.924 125.46C148.276 125.724 147.556 125.952 146.764 126.144C145.972 126.336 145 126.432 143.848 126.432C142.384 126.432 141.172 126.24 140.212 125.856C139.252 125.448 138.484 124.896 137.908 124.2C137.332 123.48 136.924 122.616 136.684 121.608C136.468 120.6 136.36 119.484 136.36 118.26V102.348ZM178.212 121.176V126H161.544V101.052H167.16V121.176H178.212ZM196.594 107.064C195.514 110.712 194.386 114.132 193.21 117.324C192.034 120.516 190.75 123.612 189.358 126.612C188.854 127.692 188.35 128.604 187.846 129.348C187.342 130.116 186.79 130.74 186.19 131.22C185.59 131.724 184.906 132.084 184.138 132.3C183.394 132.54 182.518 132.66 181.51 132.66C180.67 132.66 179.89 132.576 179.17 132.408C178.474 132.264 177.898 132.096 177.442 131.904L178.378 127.62C178.93 127.812 179.422 127.944 179.854 128.016C180.286 128.088 180.742 128.124 181.222 128.124C182.182 128.124 182.914 127.86 183.418 127.332C183.946 126.828 184.39 126.12 184.75 125.208C183.526 122.808 182.302 120.12 181.078 117.144C179.854 114.144 178.702 110.784 177.622 107.064H183.31C183.55 108 183.826 109.02 184.138 110.124C184.474 111.204 184.822 112.308 185.182 113.436C185.542 114.54 185.902 115.62 186.262 116.676C186.646 117.732 187.006 118.692 187.342 119.556C187.654 118.692 187.978 117.732 188.314 116.676C188.65 115.62 188.974 114.54 189.286 113.436C189.622 112.308 189.934 111.204 190.222 110.124C190.534 109.02 190.81 108 191.05 107.064H196.594ZM210.881 111.816C210.401 111.696 209.837 111.576 209.189 111.456C208.541 111.312 207.845 111.24 207.101 111.24C206.765 111.24 206.357 111.276 205.877 111.348C205.421 111.396 205.073 111.456 204.833 111.528V126H199.469V108.072C200.429 107.736 201.557 107.424 202.853 107.136C204.173 106.824 205.637 106.668 207.245 106.668C207.533 106.668 207.881 106.692 208.289 106.74C208.697 106.764 209.105 106.812 209.513 106.884C209.921 106.932 210.329 107.004 210.737 107.1C211.145 107.172 211.493 107.268 211.781 107.388L210.881 111.816ZM220.021 126H214.657V107.064H220.021V126ZM220.525 101.592C220.525 102.576 220.201 103.356 219.553 103.932C218.929 104.484 218.185 104.76 217.321 104.76C216.457 104.76 215.701 104.484 215.053 103.932C214.429 103.356 214.117 102.576 214.117 101.592C214.117 100.608 214.429 99.84 215.053 99.288C215.701 98.712 216.457 98.424 217.321 98.424C218.185 98.424 218.929 98.712 219.553 99.288C220.201 99.84 220.525 100.608 220.525 101.592ZM224.163 116.532C224.163 115.164 224.379 113.88 224.811 112.68C225.267 111.456 225.915 110.4 226.755 109.512C227.595 108.6 228.615 107.88 229.815 107.352C231.015 106.824 232.383 106.56 233.919 106.56C234.927 106.56 235.851 106.656 236.691 106.848C237.531 107.016 238.347 107.268 239.139 107.604L238.023 111.888C237.519 111.696 236.967 111.528 236.367 111.384C235.767 111.24 235.095 111.168 234.351 111.168C232.767 111.168 231.579 111.66 230.787 112.644C230.019 113.628 229.635 114.924 229.635 116.532C229.635 118.236 229.995 119.556 230.715 120.492C231.459 121.428 232.743 121.896 234.567 121.896C235.215 121.896 235.911 121.836 236.655 121.716C237.399 121.596 238.083 121.404 238.707 121.14L239.463 125.532C238.839 125.796 238.059 126.024 237.123 126.216C236.187 126.408 235.155 126.504 234.027 126.504C232.299 126.504 230.811 126.252 229.563 125.748C228.315 125.22 227.283 124.512 226.467 123.624C225.675 122.736 225.087 121.692 224.703 120.492C224.343 119.268 224.163 117.948 224.163 116.532ZM248.499 122.148C249.483 122.148 250.179 122.052 250.587 121.86C250.995 121.668 251.199 121.296 251.199 120.744C251.199 120.312 250.935 119.94 250.407 119.628C249.879 119.292 249.075 118.92 247.995 118.512C247.155 118.2 246.387 117.876 245.691 117.54C245.019 117.204 244.443 116.808 243.963 116.352C243.483 115.872 243.111 115.308 242.847 114.66C242.583 114.012 242.451 113.232 242.451 112.32C242.451 110.544 243.111 109.14 244.431 108.108C245.751 107.076 247.563 106.56 249.867 106.56C251.019 106.56 252.123 106.668 253.179 106.884C254.235 107.076 255.075 107.292 255.699 107.532L254.763 111.708C254.139 111.492 253.455 111.3 252.711 111.132C251.991 110.964 251.175 110.88 250.263 110.88C248.583 110.88 247.743 111.348 247.743 112.284C247.743 112.5 247.779 112.692 247.851 112.86C247.923 113.028 248.067 113.196 248.283 113.364C248.499 113.508 248.787 113.676 249.147 113.868C249.531 114.036 250.011 114.228 250.587 114.444C251.763 114.876 252.735 115.308 253.503 115.74C254.271 116.148 254.871 116.604 255.303 117.108C255.759 117.588 256.071 118.128 256.239 118.728C256.431 119.328 256.527 120.024 256.527 120.816C256.527 122.688 255.819 124.104 254.403 125.064C253.011 126.024 251.031 126.504 248.463 126.504C246.783 126.504 245.379 126.36 244.251 126.072C243.147 125.784 242.379 125.544 241.947 125.352L242.847 120.996C243.759 121.356 244.695 121.644 245.655 121.86C246.615 122.052 247.563 122.148 248.499 122.148ZM61.684 162.716C62.476 162.716 63.124 162.656 63.628 162.536C64.156 162.392 64.576 162.212 64.888 161.996C65.2 161.756 65.416 161.48 65.536 161.168C65.656 160.856 65.716 160.508 65.716 160.124C65.716 159.308 65.332 158.636 64.564 158.108C63.796 157.556 62.476 156.968 60.604 156.344C59.788 156.056 58.972 155.732 58.156 155.372C57.34 154.988 56.608 154.52 55.96 153.968C55.312 153.392 54.784 152.708 54.376 151.916C53.968 151.1 53.764 150.116 53.764 148.964C53.764 147.812 53.98 146.78 54.412 145.868C54.844 144.932 55.456 144.14 56.248 143.492C57.04 142.844 58 142.352 59.128 142.016C60.256 141.656 61.528 141.476 62.944 141.476C64.624 141.476 66.076 141.656 67.3 142.016C68.524 142.376 69.532 142.772 70.324 143.204L68.704 147.632C68.008 147.272 67.228 146.96 66.364 146.696C65.524 146.408 64.504 146.264 63.304 146.264C61.96 146.264 60.988 146.456 60.388 146.84C59.812 147.2 59.524 147.764 59.524 148.532C59.524 148.988 59.632 149.372 59.848 149.684C60.064 149.996 60.364 150.284 60.748 150.548C61.156 150.788 61.612 151.016 62.116 151.232C62.644 151.424 63.22 151.628 63.844 151.844C65.14 152.324 66.268 152.804 67.228 153.284C68.188 153.74 68.98 154.28 69.604 154.904C70.252 155.528 70.732 156.26 71.044 157.1C71.356 157.94 71.512 158.96 71.512 160.16C71.512 162.488 70.696 164.3 69.064 165.596C67.432 166.868 64.972 167.504 61.684 167.504C60.58 167.504 59.584 167.432 58.696 167.288C57.808 167.168 57.016 167.012 56.32 166.82C55.648 166.628 55.06 166.424 54.556 166.208C54.076 165.992 53.668 165.788 53.332 165.596L54.916 161.132C55.66 161.54 56.572 161.912 57.652 162.248C58.756 162.56 60.1 162.716 61.684 162.716ZM74.5731 157.676C74.5731 155.996 74.8251 154.532 75.3291 153.284C75.8571 152.012 76.5411 150.956 77.3811 150.116C78.2211 149.276 79.1811 148.64 80.2611 148.208C81.3651 147.776 82.4931 147.56 83.6451 147.56C86.3331 147.56 88.4571 148.388 90.0171 150.044C91.5771 151.676 92.3571 154.088 92.3571 157.28C92.3571 157.592 92.3451 157.94 92.3211 158.324C92.2971 158.684 92.2731 159.008 92.2491 159.296H80.0811C80.2011 160.4 80.7171 161.276 81.6291 161.924C82.5411 162.572 83.7651 162.896 85.3011 162.896C86.2851 162.896 87.2451 162.812 88.1811 162.644C89.1411 162.452 89.9211 162.224 90.5211 161.96L91.2411 166.316C90.9531 166.46 90.5691 166.604 90.0891 166.748C89.6091 166.892 89.0691 167.012 88.4691 167.108C87.8931 167.228 87.2691 167.324 86.5971 167.396C85.9251 167.468 85.2531 167.504 84.5811 167.504C82.8771 167.504 81.3891 167.252 80.1171 166.748C78.8691 166.244 77.8251 165.56 76.9851 164.696C76.1691 163.808 75.5571 162.764 75.1491 161.564C74.7651 160.364 74.5731 159.068 74.5731 157.676ZM87.1731 155.624C87.1491 155.168 87.0651 154.724 86.9211 154.292C86.8011 153.86 86.5971 153.476 86.3091 153.14C86.0451 152.804 85.6971 152.528 85.2651 152.312C84.8571 152.096 84.3411 151.988 83.7171 151.988C83.1171 151.988 82.6011 152.096 82.1691 152.312C81.7371 152.504 81.3771 152.768 81.0891 153.104C80.8011 153.44 80.5731 153.836 80.4051 154.292C80.2611 154.724 80.1531 155.168 80.0811 155.624H87.1731ZM103.733 163.256C104.261 163.256 104.765 163.244 105.245 163.22C105.725 163.196 106.109 163.16 106.397 163.112V159.044C106.181 158.996 105.857 158.948 105.425 158.9C104.993 158.852 104.597 158.828 104.237 158.828C103.733 158.828 103.253 158.864 102.797 158.936C102.365 158.984 101.981 159.092 101.645 159.26C101.309 159.428 101.045 159.656 100.853 159.944C100.661 160.232 100.565 160.592 100.565 161.024C100.565 161.864 100.841 162.452 101.393 162.788C101.969 163.1 102.749 163.256 103.733 163.256ZM103.301 147.56C104.885 147.56 106.205 147.74 107.261 148.1C108.317 148.46 109.157 148.976 109.781 149.648C110.429 150.32 110.885 151.136 111.149 152.096C111.413 153.056 111.545 154.124 111.545 155.3V166.46C110.777 166.628 109.709 166.82 108.341 167.036C106.973 167.276 105.317 167.396 103.373 167.396C102.149 167.396 101.033 167.288 100.025 167.072C99.0406 166.856 98.1886 166.508 97.4686 166.028C96.7486 165.524 96.1966 164.876 95.8126 164.084C95.4286 163.292 95.2366 162.32 95.2366 161.168C95.2366 160.064 95.4526 159.128 95.8846 158.36C96.3406 157.592 96.9406 156.98 97.6846 156.524C98.4286 156.068 99.2806 155.744 100.241 155.552C101.201 155.336 102.197 155.228 103.229 155.228C103.925 155.228 104.537 155.264 105.065 155.336C105.617 155.384 106.061 155.456 106.397 155.552V155.048C106.397 154.136 106.121 153.404 105.569 152.852C105.017 152.3 104.057 152.024 102.689 152.024C101.777 152.024 100.877 152.096 99.9886 152.24C99.1006 152.36 98.3326 152.54 97.6846 152.78L97.0006 148.46C97.3126 148.364 97.6966 148.268 98.1526 148.172C98.6326 148.052 99.1486 147.956 99.7006 147.884C100.253 147.788 100.829 147.716 101.429 147.668C102.053 147.596 102.677 147.56 103.301 147.56ZM115.495 157.532C115.495 156.164 115.711 154.88 116.143 153.68C116.599 152.456 117.247 151.4 118.087 150.512C118.927 149.6 119.947 148.88 121.147 148.352C122.347 147.824 123.715 147.56 125.251 147.56C126.259 147.56 127.183 147.656 128.023 147.848C128.863 148.016 129.679 148.268 130.471 148.604L129.355 152.888C128.851 152.696 128.299 152.528 127.699 152.384C127.099 152.24 126.427 152.168 125.683 152.168C124.099 152.168 122.911 152.66 122.119 153.644C121.351 154.628 120.967 155.924 120.967 157.532C120.967 159.236 121.327 160.556 122.047 161.492C122.791 162.428 124.075 162.896 125.899 162.896C126.547 162.896 127.243 162.836 127.987 162.716C128.731 162.596 129.415 162.404 130.039 162.14L130.795 166.532C130.171 166.796 129.391 167.024 128.455 167.216C127.519 167.408 126.487 167.504 125.359 167.504C123.631 167.504 122.143 167.252 120.895 166.748C119.647 166.22 118.615 165.512 117.799 164.624C117.007 163.736 116.419 162.692 116.035 161.492C115.675 160.268 115.495 158.948 115.495 157.532ZM134.395 167V139.928L139.759 139.064V148.136C140.119 148.016 140.575 147.908 141.127 147.812C141.703 147.692 142.255 147.632 142.783 147.632C144.319 147.632 145.591 147.848 146.599 148.28C147.631 148.688 148.447 149.276 149.047 150.044C149.671 150.812 150.103 151.724 150.343 152.78C150.607 153.836 150.739 155.012 150.739 156.308V167H145.375V156.956C145.375 155.228 145.147 154.004 144.691 153.284C144.259 152.564 143.443 152.204 142.243 152.204C141.763 152.204 141.307 152.252 140.875 152.348C140.467 152.42 140.095 152.504 139.759 152.6V167H134.395ZM181.307 167C181.043 166.136 180.743 165.248 180.407 164.336C180.095 163.424 179.783 162.512 179.471 161.6H169.751C169.439 162.512 169.115 163.424 168.779 164.336C168.467 165.248 168.179 166.136 167.915 167H162.083C163.019 164.312 163.907 161.828 164.747 159.548C165.587 157.268 166.403 155.12 167.195 153.104C168.011 151.088 168.803 149.18 169.571 147.38C170.363 145.556 171.179 143.78 172.019 142.052H177.383C178.199 143.78 179.003 145.556 179.795 147.38C180.587 149.18 181.379 151.088 182.171 153.104C182.987 155.12 183.815 157.268 184.655 159.548C185.495 161.828 186.383 164.312 187.319 167H181.307ZM174.575 147.704C174.455 148.064 174.275 148.556 174.035 149.18C173.795 149.804 173.519 150.524 173.207 151.34C172.895 152.156 172.547 153.056 172.163 154.04C171.803 155.024 171.431 156.056 171.047 157.136H178.139C177.755 156.056 177.383 155.024 177.023 154.04C176.663 153.056 176.315 152.156 175.979 151.34C175.667 150.524 175.391 149.804 175.151 149.18C174.911 148.556 174.719 148.064 174.575 147.704ZM202.32 157.676C202.32 156.02 201.948 154.7 201.204 153.716C200.46 152.708 199.356 152.204 197.892 152.204C197.412 152.204 196.968 152.228 196.56 152.276C196.152 152.3 195.816 152.336 195.552 152.384V162.068C195.888 162.284 196.32 162.464 196.848 162.608C197.4 162.752 197.952 162.824 198.504 162.824C201.048 162.824 202.32 161.108 202.32 157.676ZM207.792 157.532C207.792 158.996 207.612 160.328 207.252 161.528C206.892 162.728 206.364 163.76 205.668 164.624C204.972 165.488 204.108 166.16 203.076 166.64C202.044 167.12 200.856 167.36 199.512 167.36C198.768 167.36 198.072 167.288 197.424 167.144C196.776 167 196.152 166.796 195.552 166.532V173.66H190.188V148.712C190.668 148.568 191.22 148.436 191.844 148.316C192.468 148.172 193.116 148.052 193.788 147.956C194.484 147.86 195.18 147.788 195.876 147.74C196.596 147.668 197.28 147.632 197.928 147.632C199.488 147.632 200.88 147.872 202.104 148.352C203.328 148.808 204.36 149.468 205.2 150.332C206.04 151.172 206.676 152.204 207.108 153.428C207.564 154.652 207.792 156.02 207.792 157.532ZM224.047 157.676C224.047 156.02 223.675 154.7 222.931 153.716C222.187 152.708 221.083 152.204 219.619 152.204C219.139 152.204 218.695 152.228 218.287 152.276C217.879 152.3 217.543 152.336 217.279 152.384V162.068C217.615 162.284 218.047 162.464 218.575 162.608C219.127 162.752 219.679 162.824 220.231 162.824C222.775 162.824 224.047 161.108 224.047 157.676ZM229.519 157.532C229.519 158.996 229.339 160.328 228.979 161.528C228.619 162.728 228.091 163.76 227.395 164.624C226.699 165.488 225.835 166.16 224.803 166.64C223.771 167.12 222.583 167.36 221.239 167.36C220.495 167.36 219.799 167.288 219.151 167.144C218.503 167 217.879 166.796 217.279 166.532V173.66H211.915V148.712C212.395 148.568 212.947 148.436 213.571 148.316C214.195 148.172 214.843 148.052 215.515 147.956C216.211 147.86 216.907 147.788 217.603 147.74C218.323 147.668 219.007 147.632 219.655 147.632C221.215 147.632 222.607 147.872 223.831 148.352C225.055 148.808 226.087 149.468 226.927 150.332C227.767 151.172 228.403 152.204 228.835 153.428C229.291 154.652 229.519 156.02 229.519 157.532Z" fill="#FFFDFD"/>
<defs>
<filter id="filter0_d" x="0" y="0" width="308" height="308" filterUnits="userSpaceOnUse" color-interpolation-filters="sRGB">
<feFlood flood-opacity="0" result="BackgroundImageFix"/>
<feColorMatrix in="SourceAlpha" type="matrix" values="0 0 0 0 0 0 0 0 0 0 0 0 0 0 0 0 0 0 127 0"/>
<feOffset dy="4"/>
<feGaussianBlur stdDeviation="2"/>
<feColorMatrix type="matrix" values="0 0 0 0 0 0 0 0 0 0 0 0 0 0 0 0 0 0 0.25 0"/>
<feBlend mode="normal" in2="BackgroundImageFix" result="effect1_dropShadow"/>
<feBlend mode="normal" in="SourceGraphic" in2="effect1_dropShadow" result="shape"/>
</filter>
<linearGradient id="paint0_linear" x1="154" y1="0" x2="154" y2="300" gradientUnits="userSpaceOnUse">
<stop stop-color="#0C1992"/>
<stop offset="1" stop-color="#FAFF1C"/>
</linearGradient>
</defs>
</svg>
