<svg width="300" height="300" viewBox="0 0 300 300" fill="none" xmlns="http://www.w3.org/2000/svg">
<rect width="300" height="300" fill="url(#paint0_linear)"/>
<path d="M28.88 92V67.052H45.728V71.768H34.496V76.664H44.468V81.272H34.496V87.284H46.556V92H28.88ZM57.1662 88.256C57.6942 88.256 58.1982 88.244 58.6782 88.22C59.1582 88.196 59.5422 88.16 59.8302 88.112V84.044C59.6142 83.996 59.2902 83.948 58.8582 83.9C58.4262 83.852 58.0302 83.828 57.6702 83.828C57.1662 83.828 56.6862 83.864 56.2302 83.936C55.7982 83.984 55.4142 84.092 55.0782 84.26C54.7422 84.428 54.4782 84.656 54.2862 84.944C54.0942 85.232 53.9982 85.592 53.9982 86.024C53.9982 86.864 54.2742 87.452 54.8262 87.788C55.4022 88.1 56.1822 88.256 57.1662 88.256ZM56.7342 72.56C58.3182 72.56 59.6382 72.74 60.6942 73.1C61.7502 73.46 62.5902 73.976 63.2142 74.648C63.8622 75.32 64.3182 76.136 64.5822 77.096C64.8462 78.056 64.9782 79.124 64.9782 80.3V91.46C64.2102 91.628 63.1422 91.82 61.7742 92.036C60.4062 92.276 58.7502 92.396 56.8062 92.396C55.5822 92.396 54.4662 92.288 53.4582 92.072C52.4742 91.856 51.6222 91.508 50.9022 91.028C50.1822 90.524 49.6302 89.876 49.2462 89.084C48.8622 88.292 48.6702 87.32 48.6702 86.168C48.6702 85.064 48.8862 84.128 49.3182 83.36C49.7742 82.592 50.3742 81.98 51.1182 81.524C51.8622 81.068 52.7142 80.744 53.6742 80.552C54.6342 80.336 55.6302 80.228 56.6622 80.228C57.3582 80.228 57.9702 80.264 58.4982 80.336C59.0502 80.384 59.4942 80.456 59.8302 80.552V80.048C59.8302 79.136 59.5542 78.404 59.0022 77.852C58.4502 77.3 57.4902 77.024 56.1222 77.024C55.2102 77.024 54.3102 77.096 53.4222 77.24C52.5342 77.36 51.7662 77.54 51.1182 77.78L50.4342 73.46C50.7462 73.364 51.1302 73.268 51.5862 73.172C52.0662 73.052 52.5822 72.956 53.1342 72.884C53.6862 72.788 54.2622 72.716 54.8622 72.668C55.4862 72.596 56.1102 72.56 56.7342 72.56ZM81.2406 77.816C80.7606 77.696 80.1966 77.576 79.5486 77.456C78.9006 77.312 78.2046 77.24 77.4606 77.24C77.1246 77.24 76.7166 77.276 76.2366 77.348C75.7806 77.396 75.4326 77.456 75.1926 77.528V92H69.8286V74.072C70.7886 73.736 71.9166 73.424 73.2126 73.136C74.5326 72.824 75.9966 72.668 77.6046 72.668C77.8926 72.668 78.2406 72.692 78.6486 72.74C79.0566 72.764 79.4646 72.812 79.8726 72.884C80.2806 72.932 80.6886 73.004 81.0966 73.1C81.5046 73.172 81.8526 73.268 82.1406 73.388L81.2406 77.816ZM84.8361 68.348L90.2001 67.484V73.064H96.6441V77.528H90.2001V84.188C90.2001 85.316 90.3921 86.216 90.7761 86.888C91.1841 87.56 91.9881 87.896 93.1881 87.896C93.7641 87.896 94.3521 87.848 94.9521 87.752C95.5761 87.632 96.1401 87.476 96.6441 87.284L97.4001 91.46C96.7521 91.724 96.0321 91.952 95.2401 92.144C94.4481 92.336 93.4761 92.432 92.3241 92.432C90.8601 92.432 89.6481 92.24 88.6881 91.856C87.7281 91.448 86.9601 90.896 86.3841 90.2C85.8081 89.48 85.4001 88.616 85.1601 87.608C84.9441 86.6 84.8361 85.484 84.8361 84.26V68.348ZM101.012 92V64.928L106.376 64.064V73.136C106.736 73.016 107.192 72.908 107.744 72.812C108.32 72.692 108.872 72.632 109.4 72.632C110.936 72.632 112.208 72.848 113.216 73.28C114.248 73.688 115.064 74.276 115.664 75.044C116.288 75.812 116.72 76.724 116.96 77.78C117.224 78.836 117.356 80.012 117.356 81.308V92H111.992V81.956C111.992 80.228 111.764 79.004 111.308 78.284C110.876 77.564 110.06 77.204 108.86 77.204C108.38 77.204 107.924 77.252 107.492 77.348C107.084 77.42 106.712 77.504 106.376 77.6V92H101.012ZM126.783 82.676C126.783 86.108 128.055 87.824 130.599 87.824C131.151 87.824 131.691 87.752 132.219 87.608C132.771 87.464 133.215 87.284 133.551 87.068V77.384C133.287 77.336 132.951 77.3 132.543 77.276C132.135 77.228 131.691 77.204 131.211 77.204C129.747 77.204 128.643 77.708 127.899 78.716C127.155 79.7 126.783 81.02 126.783 82.676ZM121.311 82.532C121.311 81.068 121.527 79.736 121.959 78.536C122.415 77.312 123.063 76.268 123.903 75.404C124.743 74.516 125.775 73.832 126.999 73.352C128.223 72.872 129.615 72.632 131.175 72.632C131.823 72.632 132.495 72.668 133.191 72.74C133.911 72.788 134.607 72.86 135.279 72.956C135.975 73.052 136.635 73.172 137.259 73.316C137.883 73.436 138.435 73.568 138.915 73.712V98.66H133.551V91.532C132.951 91.796 132.327 92 131.679 92.144C131.031 92.288 130.335 92.36 129.591 92.36C126.903 92.36 124.851 91.484 123.435 89.732C122.019 87.956 121.311 85.556 121.311 82.532ZM160.102 91.352C159.19 91.616 158.014 91.856 156.574 92.072C155.134 92.312 153.622 92.432 152.038 92.432C150.43 92.432 149.086 92.216 148.006 91.784C146.95 91.352 146.11 90.752 145.486 89.984C144.862 89.192 144.418 88.256 144.154 87.176C143.89 86.096 143.758 84.908 143.758 83.612V73.064H149.122V82.964C149.122 84.692 149.35 85.94 149.806 86.708C150.262 87.476 151.114 87.86 152.362 87.86C152.746 87.86 153.154 87.848 153.586 87.824C154.018 87.776 154.402 87.728 154.738 87.68V73.064H160.102V91.352ZM172.373 88.256C172.901 88.256 173.405 88.244 173.885 88.22C174.365 88.196 174.749 88.16 175.037 88.112V84.044C174.821 83.996 174.497 83.948 174.065 83.9C173.633 83.852 173.237 83.828 172.877 83.828C172.373 83.828 171.893 83.864 171.437 83.936C171.005 83.984 170.621 84.092 170.285 84.26C169.949 84.428 169.685 84.656 169.493 84.944C169.301 85.232 169.205 85.592 169.205 86.024C169.205 86.864 169.481 87.452 170.033 87.788C170.609 88.1 171.389 88.256 172.373 88.256ZM171.941 72.56C173.525 72.56 174.845 72.74 175.901 73.1C176.957 73.46 177.797 73.976 178.421 74.648C179.069 75.32 179.525 76.136 179.789 77.096C180.053 78.056 180.185 79.124 180.185 80.3V91.46C179.417 91.628 178.349 91.82 176.981 92.036C175.613 92.276 173.957 92.396 172.013 92.396C170.789 92.396 169.673 92.288 168.665 92.072C167.681 91.856 166.829 91.508 166.109 91.028C165.389 90.524 164.837 89.876 164.453 89.084C164.069 88.292 163.877 87.32 163.877 86.168C163.877 85.064 164.093 84.128 164.525 83.36C164.981 82.592 165.581 81.98 166.325 81.524C167.069 81.068 167.921 80.744 168.881 80.552C169.841 80.336 170.837 80.228 171.869 80.228C172.565 80.228 173.177 80.264 173.705 80.336C174.257 80.384 174.701 80.456 175.037 80.552V80.048C175.037 79.136 174.761 78.404 174.209 77.852C173.657 77.3 172.697 77.024 171.329 77.024C170.417 77.024 169.517 77.096 168.629 77.24C167.741 77.36 166.973 77.54 166.325 77.78L165.641 73.46C165.953 73.364 166.337 73.268 166.793 73.172C167.273 73.052 167.789 72.956 168.341 72.884C168.893 72.788 169.469 72.716 170.069 72.668C170.693 72.596 171.317 72.56 171.941 72.56ZM184.136 82.532C184.136 81.164 184.352 79.88 184.784 78.68C185.24 77.456 185.888 76.4 186.728 75.512C187.568 74.6 188.588 73.88 189.788 73.352C190.988 72.824 192.356 72.56 193.892 72.56C194.9 72.56 195.824 72.656 196.664 72.848C197.504 73.016 198.32 73.268 199.112 73.604L197.996 77.888C197.492 77.696 196.94 77.528 196.34 77.384C195.74 77.24 195.068 77.168 194.324 77.168C192.74 77.168 191.552 77.66 190.76 78.644C189.992 79.628 189.608 80.924 189.608 82.532C189.608 84.236 189.968 85.556 190.688 86.492C191.432 87.428 192.716 87.896 194.54 87.896C195.188 87.896 195.884 87.836 196.628 87.716C197.372 87.596 198.056 87.404 198.68 87.14L199.436 91.532C198.812 91.796 198.032 92.024 197.096 92.216C196.16 92.408 195.128 92.504 194 92.504C192.272 92.504 190.784 92.252 189.536 91.748C188.288 91.22 187.256 90.512 186.44 89.624C185.648 88.736 185.06 87.692 184.676 86.492C184.316 85.268 184.136 83.948 184.136 82.532ZM208.4 79.904C208.928 79.328 209.468 78.728 210.02 78.104C210.596 77.48 211.148 76.868 211.676 76.268C212.204 75.644 212.696 75.056 213.152 74.504C213.632 73.952 214.04 73.472 214.376 73.064H220.748C219.476 74.528 218.228 75.932 217.004 77.276C215.804 78.596 214.484 79.964 213.044 81.38C213.764 82.028 214.508 82.808 215.276 83.72C216.044 84.608 216.788 85.532 217.508 86.492C218.228 87.452 218.888 88.412 219.488 89.372C220.088 90.332 220.592 91.208 221 92H214.844C214.46 91.376 214.016 90.692 213.512 89.948C213.032 89.18 212.516 88.424 211.964 87.68C211.412 86.912 210.824 86.18 210.2 85.484C209.6 84.788 209 84.2 208.4 83.72V92H203.036V64.928L208.4 64.064V79.904ZM35.504 108.052C35.936 108.844 36.428 109.828 36.98 111.004C37.556 112.156 38.144 113.416 38.744 114.784C39.368 116.128 39.98 117.508 40.58 118.924C41.18 120.34 41.744 121.672 42.272 122.92C42.8 121.672 43.364 120.34 43.964 118.924C44.564 117.508 45.164 116.128 45.764 114.784C46.388 113.416 46.976 112.156 47.528 111.004C48.104 109.828 48.608 108.844 49.04 108.052H54.152C54.392 109.708 54.608 111.568 54.8 113.632C55.016 115.672 55.196 117.808 55.34 120.04C55.508 122.248 55.652 124.468 55.772 126.7C55.916 128.932 56.036 131.032 56.132 133H50.66C50.588 130.576 50.492 127.936 50.372 125.08C50.252 122.224 50.072 119.344 49.832 116.44C49.4 117.448 48.92 118.564 48.392 119.788C47.864 121.012 47.336 122.236 46.808 123.46C46.304 124.684 45.812 125.86 45.332 126.988C44.852 128.092 44.444 129.04 44.108 129.832H40.184C39.848 129.04 39.44 128.092 38.96 126.988C38.48 125.86 37.976 124.684 37.448 123.46C36.944 122.236 36.428 121.012 35.9 119.788C35.372 118.564 34.892 117.448 34.46 116.44C34.22 119.344 34.04 122.224 33.92 125.08C33.8 127.936 33.704 130.576 33.632 133H28.16C28.256 131.032 28.364 128.932 28.484 126.7C28.628 124.468 28.772 122.248 28.916 120.04C29.084 117.808 29.264 115.672 29.456 113.632C29.672 111.568 29.9 109.708 30.14 108.052H35.504ZM68.0646 129.256C68.5926 129.256 69.0966 129.244 69.5766 129.22C70.0566 129.196 70.4406 129.16 70.7286 129.112V125.044C70.5126 124.996 70.1886 124.948 69.7566 124.9C69.3246 124.852 68.9286 124.828 68.5686 124.828C68.0646 124.828 67.5846 124.864 67.1286 124.936C66.6966 124.984 66.3126 125.092 65.9766 125.26C65.6406 125.428 65.3766 125.656 65.1846 125.944C64.9926 126.232 64.8966 126.592 64.8966 127.024C64.8966 127.864 65.1726 128.452 65.7246 128.788C66.3006 129.1 67.0806 129.256 68.0646 129.256ZM67.6326 113.56C69.2166 113.56 70.5366 113.74 71.5926 114.1C72.6486 114.46 73.4886 114.976 74.1126 115.648C74.7606 116.32 75.2166 117.136 75.4806 118.096C75.7446 119.056 75.8766 120.124 75.8766 121.3V132.46C75.1086 132.628 74.0406 132.82 72.6726 133.036C71.3046 133.276 69.6486 133.396 67.7046 133.396C66.4806 133.396 65.3646 133.288 64.3566 133.072C63.3726 132.856 62.5206 132.508 61.8006 132.028C61.0806 131.524 60.5286 130.876 60.1446 130.084C59.7606 129.292 59.5686 128.32 59.5686 127.168C59.5686 126.064 59.7846 125.128 60.2166 124.36C60.6726 123.592 61.2726 122.98 62.0166 122.524C62.7606 122.068 63.6126 121.744 64.5726 121.552C65.5326 121.336 66.5286 121.228 67.5606 121.228C68.2566 121.228 68.8686 121.264 69.3966 121.336C69.9486 121.384 70.3926 121.456 70.7286 121.552V121.048C70.7286 120.136 70.4526 119.404 69.9006 118.852C69.3486 118.3 68.3886 118.024 67.0206 118.024C66.1086 118.024 65.2086 118.096 64.3206 118.24C63.4326 118.36 62.6646 118.54 62.0166 118.78L61.3326 114.46C61.6446 114.364 62.0286 114.268 62.4846 114.172C62.9646 114.052 63.4806 113.956 64.0326 113.884C64.5846 113.788 65.1606 113.716 65.7606 113.668C66.3846 113.596 67.0086 113.56 67.6326 113.56ZM85.299 122.92C85.299 125.92 86.511 127.42 88.935 127.42C89.487 127.42 90.003 127.348 90.483 127.204C90.963 127.06 91.371 126.892 91.707 126.7V118.132C91.443 118.084 91.131 118.048 90.771 118.024C90.411 117.976 89.991 117.952 89.511 117.952C88.095 117.952 87.039 118.42 86.343 119.356C85.647 120.292 85.299 121.48 85.299 122.92ZM97.071 130.624C97.071 133.72 96.279 136.012 94.695 137.5C93.135 139.012 90.711 139.768 87.423 139.768C86.271 139.768 85.119 139.66 83.967 139.444C82.815 139.252 81.747 138.988 80.763 138.652L81.699 134.152C82.539 134.488 83.415 134.752 84.327 134.944C85.263 135.136 86.319 135.232 87.495 135.232C89.031 135.232 90.111 134.896 90.735 134.224C91.383 133.552 91.707 132.688 91.707 131.632V130.948C91.131 131.212 90.531 131.416 89.907 131.56C89.307 131.68 88.647 131.74 87.927 131.74C85.311 131.74 83.307 130.972 81.915 129.436C80.523 127.876 79.827 125.704 79.827 122.92C79.827 121.528 80.043 120.268 80.475 119.14C80.907 117.988 81.531 117.004 82.347 116.188C83.187 115.372 84.207 114.748 85.407 114.316C86.607 113.86 87.963 113.632 89.475 113.632C90.123 113.632 90.783 113.668 91.455 113.74C92.151 113.788 92.835 113.86 93.507 113.956C94.179 114.052 94.815 114.172 95.415 114.316C96.039 114.436 96.591 114.568 97.071 114.712V130.624ZM102.102 114.712C103.014 114.448 104.19 114.208 105.63 113.992C107.07 113.752 108.582 113.632 110.166 113.632C111.774 113.632 113.106 113.848 114.162 114.28C115.242 114.688 116.094 115.276 116.718 116.044C117.342 116.812 117.786 117.724 118.05 118.78C118.314 119.836 118.446 121.012 118.446 122.308V133H113.082V122.956C113.082 121.228 112.854 120.004 112.398 119.284C111.942 118.564 111.09 118.204 109.842 118.204C109.458 118.204 109.05 118.228 108.618 118.276C108.186 118.3 107.802 118.336 107.466 118.384V133H102.102V114.712ZM128.665 133H123.301V114.064H128.665V133ZM129.169 108.592C129.169 109.576 128.845 110.356 128.197 110.932C127.573 111.484 126.829 111.76 125.965 111.76C125.101 111.76 124.345 111.484 123.697 110.932C123.073 110.356 122.761 109.576 122.761 108.592C122.761 107.608 123.073 106.84 123.697 106.288C124.345 105.712 125.101 105.424 125.965 105.424C126.829 105.424 127.573 105.712 128.197 106.288C128.845 106.84 129.169 107.608 129.169 108.592ZM133.528 109.348L138.892 108.484V114.064H145.336V118.528H138.892V125.188C138.892 126.316 139.084 127.216 139.468 127.888C139.876 128.56 140.68 128.896 141.88 128.896C142.456 128.896 143.044 128.848 143.644 128.752C144.268 128.632 144.832 128.476 145.336 128.284L146.092 132.46C145.444 132.724 144.724 132.952 143.932 133.144C143.14 133.336 142.168 133.432 141.016 133.432C139.552 133.432 138.34 133.24 137.38 132.856C136.42 132.448 135.652 131.896 135.076 131.2C134.5 130.48 134.092 129.616 133.852 128.608C133.636 127.6 133.528 126.484 133.528 125.26V109.348ZM165.868 132.352C164.956 132.616 163.78 132.856 162.34 133.072C160.9 133.312 159.388 133.432 157.804 133.432C156.196 133.432 154.852 133.216 153.772 132.784C152.716 132.352 151.876 131.752 151.252 130.984C150.628 130.192 150.184 129.256 149.92 128.176C149.656 127.096 149.524 125.908 149.524 124.612V114.064H154.888V123.964C154.888 125.692 155.116 126.94 155.572 127.708C156.028 128.476 156.88 128.86 158.128 128.86C158.512 128.86 158.92 128.848 159.352 128.824C159.784 128.776 160.168 128.728 160.504 128.68V114.064H165.868V132.352ZM175.475 123.388C175.475 125.044 175.847 126.376 176.591 127.384C177.335 128.392 178.439 128.896 179.903 128.896C180.383 128.896 180.827 128.884 181.235 128.86C181.643 128.812 181.979 128.764 182.243 128.716V118.96C181.907 118.744 181.463 118.564 180.911 118.42C180.383 118.276 179.843 118.204 179.291 118.204C176.747 118.204 175.475 119.932 175.475 123.388ZM187.607 132.388C187.127 132.532 186.575 132.676 185.951 132.82C185.327 132.94 184.667 133.048 183.971 133.144C183.299 133.24 182.603 133.312 181.883 133.36C181.187 133.432 180.515 133.468 179.867 133.468C178.307 133.468 176.915 133.24 175.691 132.784C174.467 132.328 173.435 131.68 172.595 130.84C171.755 129.976 171.107 128.944 170.651 127.744C170.219 126.52 170.003 125.152 170.003 123.64C170.003 122.104 170.195 120.724 170.579 119.5C170.963 118.252 171.515 117.196 172.235 116.332C172.955 115.468 173.831 114.808 174.863 114.352C175.919 113.896 177.119 113.668 178.463 113.668C179.207 113.668 179.867 113.74 180.443 113.884C181.043 114.028 181.643 114.232 182.243 114.496V105.928L187.607 105.064V132.388ZM191.729 123.676C191.729 121.996 191.981 120.532 192.485 119.284C193.013 118.012 193.697 116.956 194.537 116.116C195.377 115.276 196.337 114.64 197.417 114.208C198.521 113.776 199.649 113.56 200.801 113.56C203.489 113.56 205.613 114.388 207.173 116.044C208.733 117.676 209.513 120.088 209.513 123.28C209.513 123.592 209.501 123.94 209.477 124.324C209.453 124.684 209.429 125.008 209.405 125.296H197.237C197.357 126.4 197.873 127.276 198.785 127.924C199.697 128.572 200.921 128.896 202.457 128.896C203.441 128.896 204.401 128.812 205.337 128.644C206.297 128.452 207.077 128.224 207.677 127.96L208.397 132.316C208.109 132.46 207.725 132.604 207.245 132.748C206.765 132.892 206.225 133.012 205.625 133.108C205.049 133.228 204.425 133.324 203.753 133.396C203.081 133.468 202.409 133.504 201.737 133.504C200.033 133.504 198.545 133.252 197.273 132.748C196.025 132.244 194.981 131.56 194.141 130.696C193.325 129.808 192.713 128.764 192.305 127.564C191.921 126.364 191.729 125.068 191.729 123.676ZM204.329 121.624C204.305 121.168 204.221 120.724 204.077 120.292C203.957 119.86 203.753 119.476 203.465 119.14C203.201 118.804 202.853 118.528 202.421 118.312C202.013 118.096 201.497 117.988 200.873 117.988C200.273 117.988 199.757 118.096 199.325 118.312C198.893 118.504 198.533 118.768 198.245 119.104C197.957 119.44 197.729 119.836 197.561 120.292C197.417 120.724 197.309 121.168 197.237 121.624H204.329ZM34.496 169.428C34.76 169.452 35.06 169.476 35.396 169.5C35.756 169.5 36.176 169.5 36.656 169.5C39.464 169.5 41.54 168.792 42.884 167.376C44.252 165.96 44.936 164.004 44.936 161.508C44.936 158.892 44.288 156.912 42.992 155.568C41.696 154.224 39.644 153.552 36.836 153.552C36.452 153.552 36.056 153.564 35.648 153.588C35.24 153.588 34.856 153.612 34.496 153.66V169.428ZM50.732 161.508C50.732 163.668 50.396 165.552 49.724 167.16C49.052 168.768 48.092 170.1 46.844 171.156C45.62 172.212 44.12 173.004 42.344 173.532C40.568 174.06 38.576 174.324 36.368 174.324C35.36 174.324 34.184 174.276 32.84 174.18C31.496 174.108 30.176 173.94 28.88 173.676V149.376C30.176 149.136 31.52 148.98 32.912 148.908C34.328 148.812 35.54 148.764 36.548 148.764C38.684 148.764 40.616 149.004 42.344 149.484C44.096 149.964 45.596 150.72 46.844 151.752C48.092 152.784 49.052 154.104 49.724 155.712C50.396 157.32 50.732 159.252 50.732 161.508ZM62.299 170.256C62.827 170.256 63.331 170.244 63.811 170.22C64.291 170.196 64.675 170.16 64.963 170.112V166.044C64.747 165.996 64.423 165.948 63.991 165.9C63.559 165.852 63.163 165.828 62.803 165.828C62.299 165.828 61.819 165.864 61.363 165.936C60.931 165.984 60.547 166.092 60.211 166.26C59.875 166.428 59.611 166.656 59.419 166.944C59.227 167.232 59.131 167.592 59.131 168.024C59.131 168.864 59.407 169.452 59.959 169.788C60.535 170.1 61.315 170.256 62.299 170.256ZM61.867 154.56C63.451 154.56 64.771 154.74 65.827 155.1C66.883 155.46 67.723 155.976 68.347 156.648C68.995 157.32 69.451 158.136 69.715 159.096C69.979 160.056 70.111 161.124 70.111 162.3V173.46C69.343 173.628 68.275 173.82 66.907 174.036C65.539 174.276 63.883 174.396 61.939 174.396C60.715 174.396 59.599 174.288 58.591 174.072C57.607 173.856 56.755 173.508 56.035 173.028C55.315 172.524 54.763 171.876 54.379 171.084C53.995 170.292 53.803 169.32 53.803 168.168C53.803 167.064 54.019 166.128 54.451 165.36C54.907 164.592 55.507 163.98 56.251 163.524C56.995 163.068 57.847 162.744 58.807 162.552C59.767 162.336 60.763 162.228 61.795 162.228C62.491 162.228 63.103 162.264 63.631 162.336C64.183 162.384 64.627 162.456 64.963 162.552V162.048C64.963 161.136 64.687 160.404 64.135 159.852C63.583 159.3 62.623 159.024 61.255 159.024C60.343 159.024 59.443 159.096 58.555 159.24C57.667 159.36 56.899 159.54 56.251 159.78L55.567 155.46C55.879 155.364 56.263 155.268 56.719 155.172C57.199 155.052 57.715 154.956 58.267 154.884C58.819 154.788 59.395 154.716 59.995 154.668C60.619 154.596 61.243 154.56 61.867 154.56ZM74.7814 150.348L80.1454 149.484V155.064H86.5894V159.528H80.1454V166.188C80.1454 167.316 80.3374 168.216 80.7214 168.888C81.1294 169.56 81.9334 169.896 83.1334 169.896C83.7094 169.896 84.2974 169.848 84.8974 169.752C85.5214 169.632 86.0854 169.476 86.5894 169.284L87.3454 173.46C86.6974 173.724 85.9774 173.952 85.1854 174.144C84.3934 174.336 83.4214 174.432 82.2694 174.432C80.8054 174.432 79.5934 174.24 78.6334 173.856C77.6734 173.448 76.9054 172.896 76.3294 172.2C75.7534 171.48 75.3454 170.616 75.1054 169.608C74.8894 168.6 74.7814 167.484 74.7814 166.26V150.348ZM97.4904 170.256C98.0184 170.256 98.5224 170.244 99.0024 170.22C99.4824 170.196 99.8664 170.16 100.154 170.112V166.044C99.9384 165.996 99.6144 165.948 99.1824 165.9C98.7504 165.852 98.3544 165.828 97.9944 165.828C97.4904 165.828 97.0104 165.864 96.5544 165.936C96.1224 165.984 95.7384 166.092 95.4024 166.26C95.0664 166.428 94.8024 166.656 94.6104 166.944C94.4184 167.232 94.3224 167.592 94.3224 168.024C94.3224 168.864 94.5984 169.452 95.1504 169.788C95.7264 170.1 96.5064 170.256 97.4904 170.256ZM97.0584 154.56C98.6424 154.56 99.9624 154.74 101.018 155.1C102.074 155.46 102.914 155.976 103.538 156.648C104.186 157.32 104.642 158.136 104.906 159.096C105.17 160.056 105.302 161.124 105.302 162.3V173.46C104.534 173.628 103.466 173.82 102.098 174.036C100.73 174.276 99.0744 174.396 97.1304 174.396C95.9064 174.396 94.7904 174.288 93.7824 174.072C92.7984 173.856 91.9464 173.508 91.2264 173.028C90.5064 172.524 89.9544 171.876 89.5704 171.084C89.1864 170.292 88.9944 169.32 88.9944 168.168C88.9944 167.064 89.2104 166.128 89.6424 165.36C90.0984 164.592 90.6984 163.98 91.4424 163.524C92.1864 163.068 93.0384 162.744 93.9984 162.552C94.9584 162.336 95.9544 162.228 96.9864 162.228C97.6824 162.228 98.2944 162.264 98.8224 162.336C99.3744 162.384 99.8184 162.456 100.154 162.552V162.048C100.154 161.136 99.8784 160.404 99.3264 159.852C98.7744 159.3 97.8144 159.024 96.4464 159.024C95.5344 159.024 94.6344 159.096 93.7464 159.24C92.8584 159.36 92.0904 159.54 91.4424 159.78L90.7584 155.46C91.0704 155.364 91.4544 155.268 91.9104 155.172C92.3904 155.052 92.9064 154.956 93.4584 154.884C94.0104 154.788 94.5864 154.716 95.1864 154.668C95.8104 154.596 96.4344 154.56 97.0584 154.56ZM36.296 215C35.312 212.912 34.34 210.74 33.38 208.484C32.42 206.228 31.508 203.996 30.644 201.788C29.78 199.58 28.976 197.468 28.232 195.452C27.512 193.436 26.888 191.636 26.36 190.052H32.552C33.032 191.492 33.548 193.052 34.1 194.732C34.676 196.388 35.252 198.044 35.828 199.7C36.428 201.356 37.004 202.94 37.556 204.452C38.108 205.964 38.624 207.272 39.104 208.376C39.56 207.272 40.064 205.964 40.616 204.452C41.192 202.94 41.768 201.356 42.344 199.7C42.944 198.044 43.52 196.388 44.072 194.732C44.648 193.052 45.176 191.492 45.656 190.052H51.632C51.08 191.636 50.444 193.436 49.724 195.452C49.004 197.468 48.212 199.58 47.348 201.788C46.484 203.996 45.572 206.228 44.612 208.484C43.652 210.74 42.68 212.912 41.696 215H36.296ZM59.8645 215H54.5005V196.064H59.8645V215ZM60.3685 190.592C60.3685 191.576 60.0445 192.356 59.3965 192.932C58.7725 193.484 58.0285 193.76 57.1645 193.76C56.3005 193.76 55.5445 193.484 54.8965 192.932C54.2725 192.356 53.9605 191.576 53.9605 190.592C53.9605 189.608 54.2725 188.84 54.8965 188.288C55.5445 187.712 56.3005 187.424 57.1645 187.424C58.0285 187.424 58.7725 187.712 59.3965 188.288C60.0445 188.84 60.3685 189.608 60.3685 190.592ZM70.3427 211.148C71.3267 211.148 72.0227 211.052 72.4307 210.86C72.8387 210.668 73.0427 210.296 73.0427 209.744C73.0427 209.312 72.7787 208.94 72.2507 208.628C71.7227 208.292 70.9187 207.92 69.8387 207.512C68.9987 207.2 68.2307 206.876 67.5347 206.54C66.8627 206.204 66.2867 205.808 65.8067 205.352C65.3267 204.872 64.9547 204.308 64.6907 203.66C64.4267 203.012 64.2947 202.232 64.2947 201.32C64.2947 199.544 64.9547 198.14 66.2747 197.108C67.5947 196.076 69.4067 195.56 71.7107 195.56C72.8627 195.56 73.9667 195.668 75.0227 195.884C76.0787 196.076 76.9187 196.292 77.5427 196.532L76.6067 200.708C75.9827 200.492 75.2987 200.3 74.5547 200.132C73.8347 199.964 73.0187 199.88 72.1067 199.88C70.4267 199.88 69.5867 200.348 69.5867 201.284C69.5867 201.5 69.6227 201.692 69.6947 201.86C69.7667 202.028 69.9107 202.196 70.1267 202.364C70.3427 202.508 70.6307 202.676 70.9907 202.868C71.3747 203.036 71.8547 203.228 72.4307 203.444C73.6067 203.876 74.5787 204.308 75.3467 204.74C76.1147 205.148 76.7147 205.604 77.1467 206.108C77.6027 206.588 77.9147 207.128 78.0827 207.728C78.2747 208.328 78.3707 209.024 78.3707 209.816C78.3707 211.688 77.6627 213.104 76.2467 214.064C74.8547 215.024 72.8747 215.504 70.3067 215.504C68.6267 215.504 67.2227 215.36 66.0947 215.072C64.9907 214.784 64.2227 214.544 63.7907 214.352L64.6907 209.996C65.6027 210.356 66.5387 210.644 67.4987 210.86C68.4587 211.052 69.4067 211.148 70.3427 211.148ZM98.5434 214.352C97.6314 214.616 96.4554 214.856 95.0154 215.072C93.5754 215.312 92.0634 215.432 90.4794 215.432C88.8714 215.432 87.5274 215.216 86.4474 214.784C85.3914 214.352 84.5514 213.752 83.9274 212.984C83.3034 212.192 82.8594 211.256 82.5954 210.176C82.3314 209.096 82.1994 207.908 82.1994 206.612V196.064H87.5634V205.964C87.5634 207.692 87.7914 208.94 88.2474 209.708C88.7034 210.476 89.5554 210.86 90.8034 210.86C91.1874 210.86 91.5954 210.848 92.0274 210.824C92.4594 210.776 92.8434 210.728 93.1794 210.68V196.064H98.5434V214.352ZM110.815 211.256C111.343 211.256 111.847 211.244 112.327 211.22C112.807 211.196 113.191 211.16 113.479 211.112V207.044C113.263 206.996 112.939 206.948 112.507 206.9C112.075 206.852 111.679 206.828 111.319 206.828C110.815 206.828 110.335 206.864 109.879 206.936C109.447 206.984 109.063 207.092 108.727 207.26C108.391 207.428 108.127 207.656 107.935 207.944C107.743 208.232 107.647 208.592 107.647 209.024C107.647 209.864 107.923 210.452 108.475 210.788C109.051 211.1 109.831 211.256 110.815 211.256ZM110.383 195.56C111.967 195.56 113.287 195.74 114.343 196.1C115.399 196.46 116.239 196.976 116.863 197.648C117.511 198.32 117.967 199.136 118.231 200.096C118.495 201.056 118.627 202.124 118.627 203.3V214.46C117.859 214.628 116.791 214.82 115.423 215.036C114.055 215.276 112.399 215.396 110.455 215.396C109.231 215.396 108.115 215.288 107.107 215.072C106.123 214.856 105.271 214.508 104.551 214.028C103.831 213.524 103.279 212.876 102.895 212.084C102.511 211.292 102.319 210.32 102.319 209.168C102.319 208.064 102.535 207.128 102.967 206.36C103.423 205.592 104.023 204.98 104.767 204.524C105.511 204.068 106.363 203.744 107.323 203.552C108.283 203.336 109.279 203.228 110.311 203.228C111.007 203.228 111.619 203.264 112.147 203.336C112.699 203.384 113.143 203.456 113.479 203.552V203.048C113.479 202.136 113.203 201.404 112.651 200.852C112.099 200.3 111.139 200.024 109.771 200.024C108.859 200.024 107.959 200.096 107.071 200.24C106.183 200.36 105.415 200.54 104.767 200.78L104.083 196.46C104.395 196.364 104.779 196.268 105.235 196.172C105.715 196.052 106.231 195.956 106.783 195.884C107.335 195.788 107.911 195.716 108.511 195.668C109.135 195.596 109.759 195.56 110.383 195.56ZM131.037 215.36C129.477 215.336 128.205 215.168 127.221 214.856C126.261 214.544 125.493 214.112 124.917 213.56C124.365 212.984 123.981 212.3 123.765 211.508C123.573 210.692 123.477 209.78 123.477 208.772V187.928L128.841 187.064V207.692C128.841 208.172 128.877 208.604 128.949 208.988C129.021 209.372 129.153 209.696 129.345 209.96C129.561 210.224 129.861 210.44 130.245 210.608C130.629 210.776 131.145 210.884 131.793 210.932L131.037 215.36ZM140.232 215H134.868V196.064H140.232V215ZM140.736 190.592C140.736 191.576 140.412 192.356 139.764 192.932C139.14 193.484 138.396 193.76 137.532 193.76C136.668 193.76 135.912 193.484 135.264 192.932C134.64 192.356 134.328 191.576 134.328 190.592C134.328 189.608 134.64 188.84 135.264 188.288C135.912 187.712 136.668 187.424 137.532 187.424C138.396 187.424 139.14 187.712 139.764 188.288C140.412 188.84 140.736 189.608 140.736 190.592ZM159.494 199.664C159.062 200.144 158.474 200.792 157.73 201.608C157.01 202.424 156.23 203.324 155.39 204.308C154.55 205.292 153.698 206.324 152.834 207.404C151.994 208.484 151.226 209.528 150.53 210.536H159.674V215H144.014V211.832C144.518 210.968 145.118 210.044 145.814 209.06C146.534 208.052 147.278 207.044 148.046 206.036C148.838 205.028 149.618 204.056 150.386 203.12C151.154 202.16 151.862 201.296 152.51 200.528H144.446V196.064H159.494V199.664ZM169.983 211.256C170.511 211.256 171.015 211.244 171.495 211.22C171.975 211.196 172.359 211.16 172.647 211.112V207.044C172.431 206.996 172.107 206.948 171.675 206.9C171.243 206.852 170.847 206.828 170.487 206.828C169.983 206.828 169.503 206.864 169.047 206.936C168.615 206.984 168.231 207.092 167.895 207.26C167.559 207.428 167.295 207.656 167.103 207.944C166.911 208.232 166.815 208.592 166.815 209.024C166.815 209.864 167.091 210.452 167.643 210.788C168.219 211.1 168.999 211.256 169.983 211.256ZM169.551 195.56C171.135 195.56 172.455 195.74 173.511 196.1C174.567 196.46 175.407 196.976 176.031 197.648C176.679 198.32 177.135 199.136 177.399 200.096C177.663 201.056 177.795 202.124 177.795 203.3V214.46C177.027 214.628 175.959 214.82 174.591 215.036C173.223 215.276 171.567 215.396 169.623 215.396C168.399 215.396 167.283 215.288 166.275 215.072C165.291 214.856 164.439 214.508 163.719 214.028C162.999 213.524 162.447 212.876 162.063 212.084C161.679 211.292 161.487 210.32 161.487 209.168C161.487 208.064 161.703 207.128 162.135 206.36C162.591 205.592 163.191 204.98 163.935 204.524C164.679 204.068 165.531 203.744 166.491 203.552C167.451 203.336 168.447 203.228 169.479 203.228C170.175 203.228 170.787 203.264 171.315 203.336C171.867 203.384 172.311 203.456 172.647 203.552V203.048C172.647 202.136 172.371 201.404 171.819 200.852C171.267 200.3 170.307 200.024 168.939 200.024C168.027 200.024 167.127 200.096 166.239 200.24C165.351 200.36 164.583 200.54 163.935 200.78L163.251 196.46C163.563 196.364 163.947 196.268 164.403 196.172C164.883 196.052 165.399 195.956 165.951 195.884C166.503 195.788 167.079 195.716 167.679 195.668C168.303 195.596 168.927 195.56 169.551 195.56ZM182.465 191.348L187.829 190.484V196.064H194.273V200.528H187.829V207.188C187.829 208.316 188.021 209.216 188.405 209.888C188.813 210.56 189.617 210.896 190.817 210.896C191.393 210.896 191.981 210.848 192.581 210.752C193.205 210.632 193.769 210.476 194.273 210.284L195.029 214.46C194.381 214.724 193.661 214.952 192.869 215.144C192.077 215.336 191.105 215.432 189.953 215.432C188.489 215.432 187.277 215.24 186.317 214.856C185.357 214.448 184.589 213.896 184.013 213.2C183.437 212.48 183.029 211.616 182.789 210.608C182.573 209.6 182.465 208.484 182.465 207.26V191.348ZM204.005 215H198.641V196.064H204.005V215ZM204.509 190.592C204.509 191.576 204.185 192.356 203.537 192.932C202.913 193.484 202.169 193.76 201.305 193.76C200.441 193.76 199.685 193.484 199.037 192.932C198.413 192.356 198.101 191.576 198.101 190.592C198.101 189.608 198.413 188.84 199.037 188.288C199.685 187.712 200.441 187.424 201.305 187.424C202.169 187.424 202.913 187.712 203.537 188.288C204.185 188.84 204.509 189.608 204.509 190.592ZM226.759 205.496C226.759 206.984 226.543 208.352 226.111 209.6C225.679 210.824 225.055 211.88 224.239 212.768C223.423 213.632 222.439 214.304 221.287 214.784C220.159 215.264 218.887 215.504 217.471 215.504C216.079 215.504 214.807 215.264 213.655 214.784C212.527 214.304 211.555 213.632 210.739 212.768C209.923 211.88 209.287 210.824 208.831 209.6C208.375 208.352 208.147 206.984 208.147 205.496C208.147 204.008 208.375 202.652 208.831 201.428C209.311 200.204 209.959 199.16 210.775 198.296C211.615 197.432 212.599 196.76 213.727 196.28C214.879 195.8 216.127 195.56 217.471 195.56C218.839 195.56 220.087 195.8 221.215 196.28C222.367 196.76 223.351 197.432 224.167 198.296C224.983 199.16 225.619 200.204 226.075 201.428C226.531 202.652 226.759 204.008 226.759 205.496ZM221.287 205.496C221.287 203.84 220.951 202.544 220.279 201.608C219.631 200.648 218.695 200.168 217.471 200.168C216.247 200.168 215.299 200.648 214.627 201.608C213.955 202.544 213.619 203.84 213.619 205.496C213.619 207.152 213.955 208.472 214.627 209.456C215.299 210.416 216.247 210.896 217.471 210.896C218.695 210.896 219.631 210.416 220.279 209.456C220.951 208.472 221.287 207.152 221.287 205.496ZM230.915 196.712C231.827 196.448 233.003 196.208 234.443 195.992C235.883 195.752 237.395 195.632 238.979 195.632C240.587 195.632 241.919 195.848 242.975 196.28C244.055 196.688 244.907 197.276 245.531 198.044C246.155 198.812 246.599 199.724 246.863 200.78C247.127 201.836 247.259 203.012 247.259 204.308V215H241.895V204.956C241.895 203.228 241.667 202.004 241.211 201.284C240.755 200.564 239.903 200.204 238.655 200.204C238.271 200.204 237.863 200.228 237.431 200.276C236.999 200.3 236.615 200.336 236.279 200.384V215H230.915V196.712Z" fill="#FEFEFE"/>
<defs>
<linearGradient id="paint0_linear" x1="150" y1="0" x2="150" y2="300" gradientUnits="userSpaceOnUse">
<stop stop-color="#0C1992"/>
<stop offset="1" stop-color="#E20958"/>
</linearGradient>
</defs>
</svg>
